SplineFontDB: 3.2
FontName: RobotoSlab-Share-Regular
FullName: Roboto Slab Share Regular
FamilyName: Roboto Slab Share
Weight: Regular
Copyright: Copyright 2018 The Roboto Slab Project Authors (https://github.com/googlefonts/robotoslab)\n"Fair and Share" tax glyphs by Vector Hastings released under CC 4.0 BY-SA
Version: 2.002
ItalicAngle: 0
UnderlinePosition: -200
UnderlineWidth: 100
Ascent: 1638
Descent: 410
InvalidEm: 0
sfntRevision: 0x00020083
LayerCount: 2
Layer: 0 1 "Back" 1
Layer: 1 1 "Fore" 0
XUID: [1021 508 542950195 7977]
StyleMap: 0x0040
FSType: 0
OS2Version: 4
OS2_WeightWidthSlopeOnly: 0
OS2_UseTypoMetrics: 1
CreationTime: 1533152473
ModificationTime: 1758753222
PfmFamily: 81
TTFWeight: 400
TTFWidth: 5
LineGap: 0
VLineGap: 0
Panose: 0 0 0 0 0 0 0 0 0 0
OS2TypoAscent: 2146
OS2TypoAOffset: 0
OS2TypoDescent: -555
OS2TypoDOffset: 0
OS2TypoLinegap: 0
OS2WinAscent: 2146
OS2WinAOffset: 0
OS2WinDescent: 618
OS2WinDOffset: 0
HheadAscent: 2146
HheadAOffset: 0
HheadDescent: -555
HheadDOffset: 0
OS2SubXSize: 1331
OS2SubYSize: 1229
OS2SubXOff: 0
OS2SubYOff: 154
OS2SupXSize: 1331
OS2SupYSize: 1229
OS2SupXOff: 0
OS2SupYOff: 717
OS2StrikeYSize: 100
OS2StrikeYPos: 649
OS2CapHeight: 1456
OS2XHeight: 1082
OS2Vendor: 'GOOG'
OS2CodePages: 2000019f.00000000
OS2UnicodeRanges: 000000ff.0000005b.00000020.00000000
Lookup: 1 0 0 "'aalt' Access All Alternates in Latin lookup 0" { "'aalt' Access All Alternates in Latin lookup 0 subtable"  } ['aalt' ('DFLT' <'dflt' > 'latn' <'CAT ' 'MOL ' 'ROM ' 'dflt' > ) ]
Lookup: 3 0 0 "'aalt' Access All Alternates in Latin lookup 1" { "'aalt' Access All Alternates in Latin lookup 1 subtable"  } ['aalt' ('DFLT' <'dflt' > 'latn' <'CAT ' 'MOL ' 'ROM ' 'dflt' > ) ]
Lookup: 4 0 0 "'ccmp' Glyph Composition/Decomposition in Latin lookup 2" { "'ccmp' Glyph Composition/Decomposition in Latin lookup 2 subtable"  } ['ccmp' ('DFLT' <'dflt' > 'latn' <'CAT ' 'MOL ' 'ROM ' 'dflt' > ) ]

StartChar: .notdef
Encoding: 65536 -1 0
Width: 1038
GlyphClass: 1
Flags: W
LayerCount: 2
Fore
SplineSet
100 0 m 1,0,-1
 100 1456 l 1,1,-1
 938 1456 l 1,2,-1
 938 0 l 1,3,-1
 100 0 l 1,0,-1
120 20 m 1,4,-1
 180 20 l 1,5,-1
 918 1436 l 1,6,-1
 858 1436 l 1,7,-1
 120 20 l 1,4,-1
858 20 m 1,8,-1
 918 20 l 1,9,-1
 180 1436 l 1,10,-1
 120 1436 l 1,11,-1
 858 20 l 1,8,-1
154 54 m 1,12,-1
 884 54 l 1,13,-1
 884 1402 l 1,14,-1
 154 1402 l 1,15,-1
 154 54 l 1,12,-1
EndSplineSet
EndChar

StartChar: A
Encoding: 65 65 1
Width: 1533
GlyphClass: 2
Flags: W
AnchorPoint: "Anchor-3" 1463 0 basechar 0
AnchorPoint: "Anchor-2" 767 0 basechar 0
AnchorPoint: "Anchor-0" 770 1376 basechar 0
LayerCount: 2
Fore
SplineSet
70 0 m 1,0,-1
 70 126 l 1,1,-1
 178 141 l 1,2,-1
 687 1456 l 1,3,-1
 856 1456 l 1,4,-1
 1356 141 l 1,5,-1
 1463 126 l 1,6,-1
 1463 0 l 1,7,-1
 1045 0 l 1,8,-1
 1045 126 l 1,9,-1
 1155 145 l 1,10,-1
 1059 413 l 1,11,-1
 476 413 l 1,12,-1
 377 145 l 1,13,-1
 487 126 l 1,14,-1
 487 0 l 1,15,-1
 70 0 l 1,0,-1
537 578 m 1,16,-1
 999 578 l 1,17,-1
 785 1170 l 1,18,-1
 773 1203 l 1,19,-1
 767 1203 l 1,20,-1
 755 1170 l 1,21,-1
 537 578 l 1,16,-1
EndSplineSet
Substitution2: "'c2sc' Capitals to Small Capitals in Latin lookup 19 subtable" a.sc
Substitution2: "Single Substitution lookup 17 subtable" ordfeminine
AlternateSubs2: "'aalt' Access All Alternates in Latin lookup 1 subtable" a.sc ordfeminine
EndChar

StartChar: AE
Encoding: 198 198 25
Width: 2096
GlyphClass: 2
Flags: W
AnchorPoint: "Anchor-2" 1088 0 basechar 0
AnchorPoint: "Anchor-0" 1158 1376 basechar 0
LayerCount: 2
Fore
SplineSet
51 0 m 1,0,-1
 51 126 l 1,1,-1
 192 146 l 1,2,-1
 985 1456 l 1,3,-1
 1952 1456 l 1,4,-1
 1952 1134 l 1,5,-1
 1784 1134 l 1,6,-1
 1769 1301 l 1,7,-1
 1261 1301 l 1,8,-1
 1281 835 l 1,9,-1
 1871 835 l 1,10,-1
 1871 680 l 1,11,-1
 1287 680 l 1,12,-1
 1309 154 l 1,13,-1
 1831 154 l 1,14,-1
 1847 321 l 1,15,-1
 2014 321 l 1,16,-1
 2014 0 l 1,17,-1
 956 0 l 1,18,-1
 956 126 l 1,19,-1
 1112 153 l 1,20,-1
 1104 350 l 1,21,-1
 548 350 l 1,22,-1
 427 140 l 1,23,-1
 509 126 l 1,24,-1
 509 0 l 1,25,-1
 51 0 l 1,0,-1
651 529 m 1,26,-1
 1097 529 l 1,27,-1
 1066 1239 l 1,28,-1
 1061 1241 l 1,29,-1
 1053 1227 l 1,30,-1
 651 529 l 1,26,-1
EndSplineSet
Substitution2: "'c2sc' Capitals to Small Capitals in Latin lookup 19 subtable" ae.sc
Substitution2: "'aalt' Access All Alternates in Latin lookup 0 subtable" ae.sc
EndChar

StartChar: B
Encoding: 66 66 27
Width: 1322
GlyphClass: 2
Flags: W
AnchorPoint: "Anchor-2" 669 0 basechar 0
AnchorPoint: "Anchor-0" 669 1376 basechar 0
LayerCount: 2
Fore
SplineSet
81 0 m 1,0,-1
 81 126 l 1,1,-1
 244 154 l 1,2,-1
 244 1301 l 1,3,-1
 81 1329 l 1,4,-1
 81 1456 l 1,5,-1
 244 1456 l 1,6,-1
 709 1456 l 2,7,8
 937 1456 937 1456 1065.5 1357.5 c 128,-1,9
 1194 1259 1194 1259 1194 1062 c 0,10,11
 1194 965 1194 965 1132.5 888.5 c 128,-1,12
 1071 812 1071 812 970 775 c 1,13,14
 1058 757 1058 757 1121 704.5 c 128,-1,15
 1184 652 1184 652 1218.5 576.5 c 128,-1,16
 1253 501 1253 501 1253 411 c 0,17,18
 1253 211 1253 211 1123 105.5 c 128,-1,19
 993 0 993 0 771 0 c 2,20,-1
 81 0 l 1,0,-1
441 154 m 1,21,-1
 771 154 l 2,22,23
 906 154 906 154 980.5 220.5 c 128,-1,24
 1055 287 1055 287 1055 409 c 0,25,26
 1055 537 1055 537 992.5 610 c 128,-1,27
 930 683 930 683 801 683 c 2,28,-1
 441 683 l 1,29,-1
 441 154 l 1,21,-1
441 837 m 1,30,-1
 760 837 l 2,31,32
 866 837 866 837 931.5 898.5 c 128,-1,33
 997 960 997 960 997 1066 c 0,34,35
 997 1184 997 1184 923 1242.5 c 128,-1,36
 849 1301 849 1301 709 1301 c 2,37,-1
 441 1301 l 1,38,-1
 441 837 l 1,30,-1
EndSplineSet
Substitution2: "'c2sc' Capitals to Small Capitals in Latin lookup 19 subtable" b.sc
Substitution2: "'aalt' Access All Alternates in Latin lookup 0 subtable" b.sc
EndChar

StartChar: C
Encoding: 67 67 28
Width: 1290
GlyphClass: 2
Flags: W
AnchorPoint: "Anchor-2" 710 0 basechar 0
AnchorPoint: "Anchor-0" 710 1376 basechar 0
LayerCount: 2
Fore
SplineSet
739 -21 m 0,0,1
 520 -21 520 -21 373.5 75 c 128,-1,2
 227 171 227 171 153.5 338 c 128,-1,3
 80 505 80 505 80 717 c 2,4,-1
 80 738 l 2,5,6
 80 952 80 952 157 1118.5 c 128,-1,7
 234 1285 234 1285 378 1381 c 128,-1,8
 522 1477 522 1477 722 1477 c 0,9,10
 863 1477 863 1477 980 1433 c 128,-1,11
 1097 1389 1097 1389 1174 1321 c 1,12,-1
 1174 1007 l 1,13,-1
 1017 1007 l 1,14,-1
 996 1237 l 1,15,16
 964 1262 964 1262 922.5 1279 c 128,-1,17
 881 1296 881 1296 830.5 1305 c 128,-1,18
 780 1314 780 1314 721 1314 c 0,19,20
 578 1314 578 1314 479 1240.5 c 128,-1,21
 380 1167 380 1167 329 1038 c 128,-1,22
 278 909 278 909 278 740 c 2,23,-1
 278 717 l 2,24,25
 278 534 278 534 332.5 404.5 c 128,-1,26
 387 275 387 275 491.5 207 c 128,-1,27
 596 139 596 139 746 139 c 0,28,29
 816 139 816 139 883 156 c 128,-1,30
 950 173 950 173 994 200 c 1,31,-1
 1016 403 l 1,32,-1
 1170 403 l 1,33,-1
 1170 87 l 1,34,35
 1088 36 1088 36 974 7.5 c 128,-1,36
 860 -21 860 -21 739 -21 c 0,0,1
EndSplineSet
Substitution2: "'ss04' Style Set 4 in Latin lookup 26 subtable" C.ss04
Substitution2: "'ss03' Style Set 3 in Latin lookup 25 subtable" C.ss03
Substitution2: "'c2sc' Capitals to Small Capitals in Latin lookup 19 subtable" c.sc
AlternateSubs2: "'aalt' Access All Alternates in Latin lookup 1 subtable" C.ss03 C.ss04 c.sc
EndChar

StartChar: D
Encoding: 68 68 34
Width: 1356
GlyphClass: 2
Flags: W
AnchorPoint: "Anchor-4" 383 731 basechar 0
AnchorPoint: "Anchor-2" 678 0 basechar 0
AnchorPoint: "Anchor-0" 678 1376 basechar 0
LayerCount: 2
Fore
SplineSet
81 0 m 1,0,-1
 81 126 l 1,1,-1
 244 154 l 1,2,-1
 244 1301 l 1,3,-1
 81 1329 l 1,4,-1
 81 1456 l 1,5,-1
 244 1456 l 1,6,-1
 651 1456 l 2,7,8
 844 1456 844 1456 987.5 1364 c 128,-1,9
 1131 1272 1131 1272 1211 1111 c 128,-1,10
 1291 950 1291 950 1291 743 c 2,11,-1
 1291 712 l 2,12,13
 1291 510 1291 510 1214 348.5 c 128,-1,14
 1137 187 1137 187 995.5 93.5 c 128,-1,15
 854 0 854 0 661 0 c 2,16,-1
 81 0 l 1,0,-1
441 154 m 1,17,-1
 651 154 l 2,18,19
 789 154 789 154 888 229.5 c 128,-1,20
 987 305 987 305 1040.5 431.5 c 128,-1,21
 1094 558 1094 558 1094 712 c 2,22,-1
 1094 745 l 2,23,24
 1094 904 1094 904 1040.5 1029.5 c 128,-1,25
 987 1155 987 1155 888 1228 c 128,-1,26
 789 1301 789 1301 651 1301 c 2,27,-1
 441 1301 l 1,28,-1
 441 154 l 1,17,-1
EndSplineSet
Substitution2: "'ss05' Style Set 5 in Latin lookup 27 subtable" D.ss05
Substitution2: "'c2sc' Capitals to Small Capitals in Latin lookup 19 subtable" d.sc
AlternateSubs2: "'aalt' Access All Alternates in Latin lookup 1 subtable" D.ss05 d.sc
EndChar

StartChar: E
Encoding: 69 69 38
Width: 1306
GlyphClass: 2
Flags: W
AnchorPoint: "Anchor-3" 1190 0 basechar 0
AnchorPoint: "Anchor-2" 653 0 basechar 0
AnchorPoint: "Anchor-0" 653 1376 basechar 0
LayerCount: 2
Fore
SplineSet
81 0 m 1,0,-1
 81 126 l 1,1,-1
 244 154 l 1,2,-1
 244 1301 l 1,3,-1
 81 1329 l 1,4,-1
 81 1456 l 1,5,-1
 1159 1456 l 1,6,-1
 1159 1106 l 1,7,-1
 1001 1106 l 1,8,-1
 979 1304 l 1,9,-1
 441 1304 l 1,10,-1
 441 830 l 1,11,-1
 978 830 l 1,12,-1
 978 675 l 1,13,-1
 441 675 l 1,14,-1
 441 148 l 1,15,-1
 1011 148 l 1,16,-1
 1033 349 l 1,17,-1
 1190 349 l 1,18,-1
 1190 0 l 1,19,-1
 81 0 l 1,0,-1
EndSplineSet
Substitution2: "'c2sc' Capitals to Small Capitals in Latin lookup 19 subtable" e.sc
Substitution2: "'aalt' Access All Alternates in Latin lookup 0 subtable" e.sc
EndChar

StartChar: uni018F
Encoding: 399 399 56
Width: 1402
GlyphClass: 2
Flags: W
AnchorPoint: "Anchor-2" 687 0 basechar 0
AnchorPoint: "Anchor-0" 673 1376 basechar 0
LayerCount: 2
Fore
SplineSet
699 -21 m 0,0,1
 497 -21 497 -21 358.5 58.5 c 128,-1,2
 220 138 220 138 149 287 c 128,-1,3
 78 436 78 436 78 644 c 2,4,-1
 78 754 l 1,5,-1
 1084 754 l 1,6,-1
 1084 808 l 2,7,8
 1084 960 1084 960 1033 1075.5 c 128,-1,9
 982 1191 982 1191 879.5 1256.5 c 128,-1,10
 777 1322 777 1322 622 1322 c 0,11,12
 508 1322 508 1322 427 1298.5 c 128,-1,13
 346 1275 346 1275 267 1238 c 1,14,-1
 218 1377 l 1,15,16
 270 1412 270 1412 371 1444.5 c 128,-1,17
 472 1477 472 1477 622 1477 c 0,18,19
 829 1477 829 1477 976.5 1393 c 128,-1,20
 1124 1309 1124 1309 1202.5 1158.5 c 128,-1,21
 1281 1008 1281 1008 1281 808 c 2,22,-1
 1281 645 l 2,23,24
 1281 452 1281 452 1203 301.5 c 128,-1,25
 1125 151 1125 151 993.5 65 c 128,-1,26
 862 -21 862 -21 699 -21 c 0,0,1
699 133 m 0,27,28
 814 133 814 133 898 195.5 c 128,-1,29
 982 258 982 258 1030 367 c 128,-1,30
 1078 476 1078 476 1083 616 c 1,31,-1
 1083 619 l 1,32,-1
 275 619 l 1,33,-1
 275 586 l 2,34,35
 275 448 275 448 318.5 346 c 128,-1,36
 362 244 362 244 455.5 188.5 c 128,-1,37
 549 133 549 133 699 133 c 0,27,28
EndSplineSet
EndChar

StartChar: F
Encoding: 70 70 57
Width: 1256
GlyphClass: 2
Flags: W
AnchorPoint: "Anchor-4" 383 407 basechar 0
AnchorPoint: "Anchor-2" 628 0 basechar 0
AnchorPoint: "Anchor-0" 628 1376 basechar 0
LayerCount: 2
Fore
SplineSet
81 0 m 1,0,-1
 81 126 l 1,1,-1
 244 154 l 1,2,-1
 244 1301 l 1,3,-1
 81 1329 l 1,4,-1
 81 1456 l 1,5,-1
 1176 1456 l 1,6,-1
 1176 1106 l 1,7,-1
 1018 1106 l 1,8,-1
 996 1303 l 1,9,-1
 441 1303 l 1,10,-1
 441 799 l 1,11,-1
 974 799 l 1,12,-1
 974 644 l 1,13,-1
 441 644 l 1,14,-1
 441 154 l 1,15,-1
 604 126 l 1,16,-1
 604 0 l 1,17,-1
 81 0 l 1,0,-1
EndSplineSet
Substitution2: "'c2sc' Capitals to Small Capitals in Latin lookup 19 subtable" f.sc
Substitution2: "'aalt' Access All Alternates in Latin lookup 0 subtable" f.sc
EndChar

StartChar: G
Encoding: 71 71 58
Width: 1346
GlyphClass: 2
Flags: W
AnchorPoint: "Anchor-2" 673 0 basechar 0
AnchorPoint: "Anchor-0" 673 1376 basechar 0
LayerCount: 2
Fore
SplineSet
738 -21 m 0,0,1
 536 -21 536 -21 388 72.5 c 128,-1,2
 240 166 240 166 160 332 c 128,-1,3
 80 498 80 498 80 716 c 2,4,-1
 80 740 l 2,5,6
 80 960 80 960 160.5 1125.5 c 128,-1,7
 241 1291 241 1291 381 1384 c 128,-1,8
 521 1477 521 1477 699 1477 c 0,9,10
 869 1477 869 1477 987.5 1438 c 128,-1,11
 1106 1399 1106 1399 1190 1333 c 1,12,-1
 1190 1039 l 1,13,-1
 1028 1039 l 1,14,-1
 1007 1250 l 1,15,16
 958 1282 958 1282 887 1298.5 c 128,-1,17
 816 1315 816 1315 719 1315 c 0,18,19
 594 1315 594 1315 494 1243 c 128,-1,20
 394 1171 394 1171 336 1042.5 c 128,-1,21
 278 914 278 914 278 742 c 2,22,-1
 278 716 l 2,23,24
 278 542 278 542 331.5 412.5 c 128,-1,25
 385 283 385 283 488 211.5 c 128,-1,26
 591 140 591 140 738 140 c 0,27,28
 838 140 838 140 907 157.5 c 128,-1,29
 976 175 976 175 1029 203 c 1,30,-1
 1029 545 l 1,31,-1
 750 555 l 1,32,-1
 750 700 l 1,33,-1
 1226 700 l 1,34,-1
 1226 136 l 1,35,36
 1163 77 1163 77 1045.5 28 c 128,-1,37
 928 -21 928 -21 738 -21 c 0,0,1
EndSplineSet
Substitution2: "'ss04' Style Set 4 in Latin lookup 26 subtable" G.ss04
Substitution2: "'ss03' Style Set 3 in Latin lookup 25 subtable" G.ss03
Substitution2: "'c2sc' Capitals to Small Capitals in Latin lookup 19 subtable" g.sc
AlternateSubs2: "'aalt' Access All Alternates in Latin lookup 1 subtable" G.ss03 G.ss04 g.sc
EndChar

StartChar: H
Encoding: 72 72 63
Width: 1578
GlyphClass: 2
Flags: W
AnchorPoint: "Anchor-4" 789 1028 basechar 0
AnchorPoint: "Anchor-2" 789 0 basechar 0
AnchorPoint: "Anchor-0" 789 1376 basechar 0
LayerCount: 2
Fore
SplineSet
81 0 m 1,0,-1
 81 126 l 1,1,-1
 244 154 l 1,2,-1
 244 1301 l 1,3,-1
 81 1329 l 1,4,-1
 81 1456 l 1,5,-1
 604 1456 l 1,6,-1
 604 1329 l 1,7,-1
 441 1301 l 1,8,-1
 441 798 l 1,9,-1
 1137 798 l 1,10,-1
 1137 1301 l 1,11,-1
 974 1329 l 1,12,-1
 974 1456 l 1,13,-1
 1137 1456 l 1,14,-1
 1334 1456 l 1,15,-1
 1497 1456 l 1,16,-1
 1497 1329 l 1,17,-1
 1334 1301 l 1,18,-1
 1334 154 l 1,19,-1
 1497 126 l 1,20,-1
 1497 0 l 1,21,-1
 974 0 l 1,22,-1
 974 126 l 1,23,-1
 1137 154 l 1,24,-1
 1137 643 l 1,25,-1
 441 643 l 1,26,-1
 441 154 l 1,27,-1
 604 126 l 1,28,-1
 604 0 l 1,29,-1
 81 0 l 1,0,-1
EndSplineSet
Substitution2: "'c2sc' Capitals to Small Capitals in Latin lookup 19 subtable" h.sc
Substitution2: "'aalt' Access All Alternates in Latin lookup 0 subtable" h.sc
EndChar

StartChar: I
Encoding: 73 73 66
Width: 685
GlyphClass: 2
Flags: W
AnchorPoint: "Anchor-3" 604 0 basechar 0
AnchorPoint: "Anchor-2" 342 0 basechar 0
AnchorPoint: "Anchor-0" 342 1376 basechar 0
LayerCount: 2
Fore
SplineSet
81 0 m 1,0,-1
 81 126 l 1,1,-1
 244 154 l 1,2,-1
 244 1301 l 1,3,-1
 81 1329 l 1,4,-1
 81 1456 l 1,5,-1
 604 1456 l 1,6,-1
 604 1329 l 1,7,-1
 441 1301 l 1,8,-1
 441 154 l 1,9,-1
 604 126 l 1,10,-1
 604 0 l 1,11,-1
 81 0 l 1,0,-1
EndSplineSet
Substitution2: "'c2sc' Capitals to Small Capitals in Latin lookup 19 subtable" i.sc
Substitution2: "'aalt' Access All Alternates in Latin lookup 0 subtable" i.sc
EndChar

StartChar: J
Encoding: 74 74 79
Width: 1169
GlyphClass: 2
Flags: W
AnchorPoint: "Anchor-2" 585 0 basechar 0
AnchorPoint: "Anchor-0" 835 1376 basechar 0
LayerCount: 2
Fore
SplineSet
503 -21 m 0,0,1
 382 -21 382 -21 283.5 27 c 128,-1,2
 185 75 185 75 125.5 172 c 128,-1,3
 66 269 66 269 60 415 c 1,4,-1
 62 421 l 1,5,-1
 251 421 l 1,6,7
 255 274 255 274 318.5 205 c 128,-1,8
 382 136 382 136 500 136 c 0,9,10
 583 136 583 136 636 171.5 c 128,-1,11
 689 207 689 207 714.5 269.5 c 128,-1,12
 740 332 740 332 740 413 c 2,13,-1
 740 1301 l 1,14,-1
 546 1327 l 1,15,-1
 546 1456 l 1,16,-1
 1100 1456 l 1,17,-1
 1100 1329 l 1,18,-1
 937 1301 l 1,19,-1
 937 413 l 2,20,21
 937 283 937 283 887.5 185 c 128,-1,22
 838 87 838 87 741.5 33 c 128,-1,23
 645 -21 645 -21 503 -21 c 0,0,1
EndSplineSet
Substitution2: "'c2sc' Capitals to Small Capitals in Latin lookup 19 subtable" j.sc
Substitution2: "'aalt' Access All Alternates in Latin lookup 0 subtable" j.sc
EndChar

StartChar: K
Encoding: 75 75 81
Width: 1501
GlyphClass: 2
Flags: W
AnchorPoint: "Anchor-2" 751 0 basechar 0
AnchorPoint: "Anchor-0" 751 1376 basechar 0
LayerCount: 2
Fore
SplineSet
427 421 m 1,0,-1
 322 543 l 1,1,-1
 1013 1310 l 1,2,-1
 1017 1315 l 1,3,-1
 908 1329 l 1,4,-1
 908 1456 l 1,5,-1
 1375 1456 l 1,6,-1
 1375 1329 l 1,7,-1
 1238 1304 l 1,8,-1
 427 421 l 1,0,-1
81 0 m 1,9,-1
 81 126 l 1,10,-1
 244 154 l 1,11,-1
 244 1301 l 1,12,-1
 81 1329 l 1,13,-1
 81 1456 l 1,14,-1
 604 1456 l 1,15,-1
 604 1329 l 1,16,-1
 441 1301 l 1,17,-1
 441 154 l 1,18,-1
 604 126 l 1,19,-1
 604 0 l 1,20,-1
 81 0 l 1,9,-1
941 0 m 1,21,-1
 941 126 l 1,22,-1
 1061 140 l 1,23,-1
 1060 141 l 1,24,-1
 657 700 l 1,25,-1
 767 855 l 1,26,-1
 1293 151 l 1,27,-1
 1427 126 l 1,28,-1
 1427 0 l 1,29,-1
 941 0 l 1,21,-1
EndSplineSet
Substitution2: "'ss05' Style Set 5 in Latin lookup 27 subtable" K.ss05
Substitution2: "'c2sc' Capitals to Small Capitals in Latin lookup 19 subtable" k.sc
AlternateSubs2: "'aalt' Access All Alternates in Latin lookup 1 subtable" K.ss05 k.sc
EndChar

StartChar: L
Encoding: 76 76 83
Width: 1210
GlyphClass: 2
Flags: W
AnchorPoint: "Anchor-4" 361 753 basechar 0
AnchorPoint: "Anchor-2" 605 0 basechar 0
AnchorPoint: "Anchor-1" 1049 1456 basechar 0
AnchorPoint: "Anchor-0" 353 1376 basechar 0
LayerCount: 2
Fore
SplineSet
81 0 m 1,0,-1
 81 126 l 1,1,-1
 244 154 l 1,2,-1
 244 1301 l 1,3,-1
 81 1329 l 1,4,-1
 81 1456 l 1,5,-1
 244 1456 l 1,6,-1
 441 1456 l 1,7,-1
 604 1456 l 1,8,-1
 604 1329 l 1,9,-1
 441 1301 l 1,10,-1
 441 151 l 1,11,-1
 956 151 l 1,12,-1
 979 381 l 1,13,-1
 1130 381 l 1,14,-1
 1130 0 l 1,15,-1
 81 0 l 1,0,-1
EndSplineSet
Substitution2: "'c2sc' Capitals to Small Capitals in Latin lookup 19 subtable" l.sc
Substitution2: "'aalt' Access All Alternates in Latin lookup 0 subtable" l.sc
EndChar

StartChar: M
Encoding: 77 77 89
Width: 1982
GlyphClass: 2
Flags: W
AnchorPoint: "Anchor-2" 991 0 basechar 0
AnchorPoint: "Anchor-0" 991 1376 basechar 0
LayerCount: 2
Fore
SplineSet
94 0 m 1,0,-1
 94 126 l 1,1,-1
 257 154 l 1,2,-1
 257 1301 l 1,3,-1
 94 1329 l 1,4,-1
 94 1456 l 1,5,-1
 257 1456 l 1,6,-1
 520 1456 l 1,7,-1
 989 351 l 1,8,-1
 995 351 l 1,9,-1
 1449 1456 l 1,10,-1
 1888 1456 l 1,11,-1
 1888 1329 l 1,12,-1
 1725 1301 l 1,13,-1
 1725 154 l 1,14,-1
 1888 126 l 1,15,-1
 1888 0 l 1,16,-1
 1365 0 l 1,17,-1
 1365 126 l 1,18,-1
 1537 154 l 1,19,-1
 1537 576 l 1,20,-1
 1537 1187 l 1,21,-1
 1532 1188 l 1,22,-1
 1059 52 l 1,23,-1
 928 52 l 1,24,-1
 439 1186 l 1,25,-1
 434 1185 l 1,26,-1
 441 576 l 1,27,-1
 441 154 l 1,28,-1
 617 126 l 1,29,-1
 617 0 l 1,30,-1
 94 0 l 1,0,-1
EndSplineSet
Substitution2: "'c2sc' Capitals to Small Capitals in Latin lookup 19 subtable" m.sc
Substitution2: "'aalt' Access All Alternates in Latin lookup 0 subtable" m.sc
EndChar

StartChar: N
Encoding: 78 78 91
Width: 1592
GlyphClass: 2
Flags: W
AnchorPoint: "Anchor-2" 796 0 basechar 0
AnchorPoint: "Anchor-0" 796 1376 basechar 0
LayerCount: 2
Fore
SplineSet
83 0 m 1,0,-1
 83 126 l 1,1,-1
 246 154 l 1,2,-1
 246 1301 l 1,3,-1
 83 1329 l 1,4,-1
 83 1456 l 1,5,-1
 246 1456 l 1,6,-1
 445 1456 l 1,7,-1
 1159 321 l 1,8,-1
 1165 323 l 1,9,-1
 1165 1301 l 1,10,-1
 986 1329 l 1,11,-1
 986 1456 l 1,12,-1
 1346 1456 l 1,13,-1
 1509 1456 l 1,14,-1
 1509 1329 l 1,15,-1
 1346 1301 l 1,16,-1
 1346 0 l 1,17,-1
 1166 0 l 1,18,-1
 433 1141 l 1,19,-1
 427 1139 l 1,20,-1
 427 154 l 1,21,-1
 606 126 l 1,22,-1
 606 0 l 1,23,-1
 83 0 l 1,0,-1
EndSplineSet
Substitution2: "'c2sc' Capitals to Small Capitals in Latin lookup 19 subtable" n.sc
Substitution2: "'aalt' Access All Alternates in Latin lookup 0 subtable" n.sc
EndChar

StartChar: Eng
Encoding: 330 330 96
Width: 1559
GlyphClass: 1
Flags: W
LayerCount: 2
Fore
SplineSet
1007 -437 m 0,0,1
 976 -437 976 -437 950 -432.5 c 128,-1,2
 924 -428 924 -428 895 -419 c 1,3,-1
 909 -269 l 1,4,5
 922 -274 922 -274 956 -278 c 128,-1,6
 990 -282 990 -282 1007 -282 c 0,7,8
 1068 -282 1068 -282 1102 -230.5 c 128,-1,9
 1136 -179 1136 -179 1136 -89 c 2,10,-1
 1136 0 l 1,11,-1
 436 1112 l 1,12,-1
 430 1110 l 1,13,-1
 430 154 l 1,14,-1
 593 126 l 1,15,-1
 593 0 l 1,16,-1
 70 0 l 1,17,-1
 70 126 l 1,18,-1
 233 154 l 1,19,-1
 233 1301 l 1,20,-1
 70 1329 l 1,21,-1
 70 1456 l 1,22,-1
 430 1456 l 1,23,-1
 1130 344 l 1,24,-1
 1136 346 l 1,25,-1
 1136 1301 l 1,26,-1
 973 1329 l 1,27,-1
 973 1456 l 1,28,-1
 1496 1456 l 1,29,-1
 1496 1329 l 1,30,-1
 1333 1301 l 1,31,-1
 1333 -89 l 2,32,33
 1333 -256 1333 -256 1247 -346.5 c 128,-1,34
 1161 -437 1161 -437 1007 -437 c 0,0,1
EndSplineSet
Substitution2: "'c2sc' Capitals to Small Capitals in Latin lookup 19 subtable" eng.sc
Substitution2: "'aalt' Access All Alternates in Latin lookup 0 subtable" eng.sc
EndChar

StartChar: O
Encoding: 79 79 97
Width: 1351
GlyphClass: 2
Flags: W
AnchorPoint: "Anchor-4" 676 728 basechar 0
AnchorPoint: "Anchor-3" 960 0 basechar 0
AnchorPoint: "Anchor-2" 676 0 basechar 0
AnchorPoint: "Anchor-1" 985 1376 basechar 0
AnchorPoint: "Anchor-0" 676 1376 basechar 0
LayerCount: 2
Fore
SplineSet
675 -21 m 0,0,1
 534 -21 534 -21 422 33 c 128,-1,2
 310 87 310 87 231.5 185.5 c 128,-1,3
 153 284 153 284 111.5 419 c 128,-1,4
 70 554 70 554 70 717 c 2,5,-1
 70 738 l 2,6,7
 70 900 70 900 111.5 1035.5 c 128,-1,8
 153 1171 153 1171 231.5 1270 c 128,-1,9
 310 1369 310 1369 422 1423 c 128,-1,10
 534 1477 534 1477 675 1477 c 0,11,12
 824 1477 824 1477 937 1423 c 128,-1,13
 1050 1369 1050 1369 1126.5 1270 c 128,-1,14
 1203 1171 1203 1171 1242 1035.5 c 128,-1,15
 1281 900 1281 900 1281 738 c 2,16,-1
 1281 717 l 2,17,18
 1281 554 1281 554 1242 419 c 128,-1,19
 1203 284 1203 284 1126.5 185.5 c 128,-1,20
 1050 87 1050 87 937 33 c 128,-1,21
 824 -21 824 -21 675 -21 c 0,0,1
675 143 m 0,22,23
 820 143 820 143 909.5 215 c 128,-1,24
 999 287 999 287 1041 416.5 c 128,-1,25
 1083 546 1083 546 1083 717 c 2,26,-1
 1083 740 l 2,27,28
 1083 910 1083 910 1040.5 1038.5 c 128,-1,29
 998 1167 998 1167 908 1239.5 c 128,-1,30
 818 1312 818 1312 675 1312 c 0,31,32
 544 1312 544 1312 453 1239 c 128,-1,33
 362 1166 362 1166 315 1037.5 c 128,-1,34
 268 909 268 909 268 740 c 2,35,-1
 268 717 l 2,36,37
 268 547 268 547 315 417.5 c 128,-1,38
 362 288 362 288 453 215.5 c 128,-1,39
 544 143 544 143 675 143 c 0,22,23
EndSplineSet
Substitution2: "'ss04' Style Set 4 in Latin lookup 26 subtable" O.ss04
Substitution2: "'c2sc' Capitals to Small Capitals in Latin lookup 19 subtable" o.sc
Substitution2: "Single Substitution lookup 17 subtable" ordmasculine
AlternateSubs2: "'aalt' Access All Alternates in Latin lookup 1 subtable" O.ss04 o.sc ordmasculine
EndChar

StartChar: OE
Encoding: 338 338 121
Width: 1987
GlyphClass: 2
Flags: W
AnchorPoint: "Anchor-2" 978 0 basechar 0
AnchorPoint: "Anchor-0" 1013 1376 basechar 0
LayerCount: 2
Fore
SplineSet
715 -21 m 0,0,1
 561 -21 561 -21 441 33 c 128,-1,2
 321 87 321 87 238 185.5 c 128,-1,3
 155 284 155 284 112.5 419 c 128,-1,4
 70 554 70 554 70 717 c 2,5,-1
 70 738 l 2,6,7
 70 900 70 900 112.5 1035.5 c 128,-1,8
 155 1171 155 1171 237.5 1270 c 128,-1,9
 320 1369 320 1369 440 1423 c 128,-1,10
 560 1477 560 1477 715 1477 c 0,11,12
 795 1477 795 1477 886 1461.5 c 128,-1,13
 977 1446 977 1446 1078 1417 c 1,14,-1
 1078 1211 l 1,15,16
 996 1259 996 1259 902 1285.5 c 128,-1,17
 808 1312 808 1312 715 1312 c 0,18,19
 566 1312 566 1312 466.5 1239 c 128,-1,20
 367 1166 367 1166 317.5 1037.5 c 128,-1,21
 268 909 268 909 268 740 c 2,22,-1
 268 717 l 2,23,24
 268 547 268 547 317.5 417.5 c 128,-1,25
 367 288 367 288 466.5 215.5 c 128,-1,26
 566 143 566 143 715 143 c 0,27,28
 809 143 809 143 902.5 168.5 c 128,-1,29
 996 194 996 194 1078 240 c 1,30,-1
 1078 38 l 1,31,32
 977 10 977 10 886 -5.5 c 128,-1,33
 795 -21 795 -21 715 -21 c 0,0,1
850 0 m 1,34,-1
 905 154 l 1,35,-1
 905 1301 l 1,36,-1
 850 1456 l 1,37,-1
 1860 1456 l 1,38,-1
 1860 1106 l 1,39,-1
 1691 1106 l 1,40,-1
 1675 1301 l 1,41,-1
 1102 1301 l 1,42,-1
 1102 830 l 1,43,-1
 1659 830 l 1,44,-1
 1659 675 l 1,45,-1
 1102 675 l 1,46,-1
 1102 154 l 1,47,-1
 1687 154 l 1,48,-1
 1703 349 l 1,49,-1
 1871 349 l 1,50,-1
 1871 0 l 1,51,-1
 850 0 l 1,34,-1
EndSplineSet
Substitution2: "'ss05' Style Set 5 in Latin lookup 27 subtable" OE.ss05
Substitution2: "'c2sc' Capitals to Small Capitals in Latin lookup 19 subtable" oe.sc
AlternateSubs2: "'aalt' Access All Alternates in Latin lookup 1 subtable" OE.ss05 oe.sc
EndChar

StartChar: P
Encoding: 80 80 122
Width: 1297
GlyphClass: 2
Flags: W
AnchorPoint: "Anchor-2" 649 0 basechar 0
AnchorPoint: "Anchor-0" 649 1376 basechar 0
LayerCount: 2
Fore
SplineSet
81 0 m 1,0,-1
 81 126 l 1,1,-1
 244 154 l 1,2,-1
 244 1301 l 1,3,-1
 81 1329 l 1,4,-1
 81 1456 l 1,5,-1
 244 1456 l 1,6,-1
 750 1456 l 2,7,8
 906 1456 906 1456 1016 1401.5 c 128,-1,9
 1126 1347 1126 1347 1184 1249 c 128,-1,10
 1242 1151 1242 1151 1242 1020 c 0,11,12
 1242 888 1242 888 1184 790 c 128,-1,13
 1126 692 1126 692 1016 638 c 128,-1,14
 906 584 906 584 750 584 c 2,15,-1
 441 584 l 1,16,-1
 441 154 l 1,17,-1
 604 126 l 1,18,-1
 604 0 l 1,19,-1
 81 0 l 1,0,-1
441 738 m 1,20,-1
 750 738 l 2,21,22
 898 738 898 738 971.5 817.5 c 128,-1,23
 1045 897 1045 897 1045 1018 c 256,24,25
 1045 1139 1045 1139 971.5 1220 c 128,-1,26
 898 1301 898 1301 750 1301 c 2,27,-1
 441 1301 l 1,28,-1
 441 738 l 1,20,-1
EndSplineSet
Substitution2: "'c2sc' Capitals to Small Capitals in Latin lookup 19 subtable" p.sc
Substitution2: "'aalt' Access All Alternates in Latin lookup 0 subtable" p.sc
EndChar

StartChar: Thorn
Encoding: 222 222 123
Width: 1277
GlyphClass: 2
Flags: W
AnchorPoint: "Anchor-2" 338 0 basechar 0
AnchorPoint: "Anchor-0" 338 1376 basechar 0
LayerCount: 2
Fore
SplineSet
70 0 m 1,0,-1
 70 126 l 1,1,-1
 233 154 l 1,2,-1
 233 1301 l 1,3,-1
 70 1329 l 1,4,-1
 70 1456 l 1,5,-1
 430 1456 l 1,6,-1
 593 1456 l 1,7,-1
 593 1329 l 1,8,-1
 430 1301 l 1,9,-1
 430 1163 l 1,10,-1
 699 1163 l 2,11,12
 930 1163 930 1163 1060 1045 c 128,-1,13
 1190 927 1190 927 1190 738 c 0,14,15
 1190 548 1190 548 1060 430.5 c 128,-1,16
 930 313 930 313 699 313 c 2,17,-1
 430 313 l 1,18,-1
 430 154 l 1,19,-1
 593 126 l 1,20,-1
 593 0 l 1,21,-1
 70 0 l 1,0,-1
430 467 m 1,22,-1
 699 467 l 2,23,24
 797 467 797 467 862 503 c 128,-1,25
 927 539 927 539 960 600 c 128,-1,26
 993 661 993 661 993 736 c 0,27,28
 993 812 993 812 960 874 c 128,-1,29
 927 936 927 936 862 972.5 c 128,-1,30
 797 1009 797 1009 699 1009 c 2,31,-1
 430 1009 l 1,32,-1
 430 467 l 1,22,-1
EndSplineSet
Substitution2: "'c2sc' Capitals to Small Capitals in Latin lookup 19 subtable" thorn.sc
Substitution2: "'aalt' Access All Alternates in Latin lookup 0 subtable" thorn.sc
EndChar

StartChar: Q
Encoding: 81 81 124
Width: 1376
GlyphClass: 2
Flags: W
AnchorPoint: "Anchor-2" 682 0 basechar 0
AnchorPoint: "Anchor-0" 682 1376 basechar 0
LayerCount: 2
Fore
SplineSet
1237 -245 m 1,0,-1
 885 13 l 1,1,2
 835 -3 835 -3 782 -12 c 128,-1,3
 729 -21 729 -21 674 -21 c 0,4,5
 534 -21 534 -21 422 33 c 128,-1,6
 310 87 310 87 231.5 186 c 128,-1,7
 153 285 153 285 111.5 420 c 128,-1,8
 70 555 70 555 70 717 c 2,9,-1
 70 738 l 2,10,11
 70 900 70 900 111.5 1035 c 128,-1,12
 153 1170 153 1170 231 1269.5 c 128,-1,13
 309 1369 309 1369 421 1423 c 128,-1,14
 533 1477 533 1477 674 1477 c 0,15,16
 822 1477 822 1477 935 1423 c 128,-1,17
 1048 1369 1048 1369 1124.5 1269.5 c 128,-1,18
 1201 1170 1201 1170 1240 1035 c 128,-1,19
 1279 900 1279 900 1279 738 c 2,20,-1
 1279 717 l 2,21,22
 1279 520 1279 520 1232 361.5 c 128,-1,23
 1185 203 1185 203 1056 105 c 1,24,-1
 1348 -98 l 1,25,-1
 1237 -245 l 1,0,-1
674 143 m 0,26,27
 815 143 815 143 905 215 c 128,-1,28
 995 287 995 287 1038.5 416.5 c 128,-1,29
 1082 546 1082 546 1082 717 c 2,30,-1
 1082 740 l 2,31,32
 1082 910 1082 910 1039.5 1038.5 c 128,-1,33
 997 1167 997 1167 907 1239.5 c 128,-1,34
 817 1312 817 1312 674 1312 c 0,35,36
 544 1312 544 1312 453 1239 c 128,-1,37
 362 1166 362 1166 314.5 1037.5 c 128,-1,38
 267 909 267 909 267 740 c 2,39,-1
 267 717 l 2,40,41
 267 547 267 547 313.5 417.5 c 128,-1,42
 360 288 360 288 451 215.5 c 128,-1,43
 542 143 542 143 674 143 c 0,26,27
EndSplineSet
Substitution2: "'c2sc' Capitals to Small Capitals in Latin lookup 19 subtable" q.sc
Substitution2: "'aalt' Access All Alternates in Latin lookup 0 subtable" q.sc
EndChar

StartChar: R
Encoding: 82 82 125
Width: 1385
GlyphClass: 2
Flags: W
AnchorPoint: "Anchor-2" 693 0 basechar 0
AnchorPoint: "Anchor-0" 693 1376 basechar 0
LayerCount: 2
Fore
SplineSet
81 0 m 1,0,-1
 81 126 l 1,1,-1
 244 154 l 1,2,-1
 244 1301 l 1,3,-1
 81 1329 l 1,4,-1
 81 1455 l 1,5,-1
 730 1455 l 2,6,7
 889 1455 889 1455 998.5 1407.5 c 128,-1,8
 1108 1360 1108 1360 1165 1270 c 128,-1,9
 1222 1180 1222 1180 1222 1050 c 0,10,11
 1222 922 1222 922 1166.5 835 c 128,-1,12
 1111 748 1111 748 1009 703.5 c 128,-1,13
 907 659 907 659 767 656 c 2,14,-1
 441 650 l 1,15,-1
 441 154 l 1,16,-1
 604 126 l 1,17,-1
 604 0 l 1,18,-1
 81 0 l 1,0,-1
1042 0 m 1,19,-1
 718 727 l 1,20,-1
 915 729 l 1,21,-1
 1184 147 l 1,22,-1
 1285 129 l 1,23,-1
 1285 0 l 1,24,-1
 1042 0 l 1,19,-1
441 805 m 1,25,-1
 710 805 l 2,26,27
 875 805 875 805 950 868 c 128,-1,28
 1025 931 1025 931 1025 1052 c 0,29,30
 1025 1167 1025 1167 953 1234 c 128,-1,31
 881 1301 881 1301 730 1301 c 2,32,-1
 441 1301 l 1,33,-1
 441 805 l 1,25,-1
EndSplineSet
Substitution2: "'ss05' Style Set 5 in Latin lookup 27 subtable" R.ss05
Substitution2: "'c2sc' Capitals to Small Capitals in Latin lookup 19 subtable" r.sc
AlternateSubs2: "'aalt' Access All Alternates in Latin lookup 1 subtable" R.ss05 r.sc
EndChar

StartChar: S
Encoding: 83 83 129
Width: 1206
GlyphClass: 2
Flags: W
AnchorPoint: "Anchor-2" 603 0 basechar 0
AnchorPoint: "Anchor-0" 603 1376 basechar 0
LayerCount: 2
Fore
SplineSet
606 -21 m 0,0,1
 473 -21 473 -21 350 18 c 128,-1,2
 227 57 227 57 115 138 c 1,3,-1
 115 449 l 1,4,-1
 268 449 l 1,5,-1
 301 220 l 1,6,7
 366 180 366 180 442 158 c 128,-1,8
 518 136 518 136 606 136 c 0,9,10
 706 136 706 136 775.5 166.5 c 128,-1,11
 845 197 845 197 882 251 c 128,-1,12
 919 305 919 305 919 377 c 0,13,14
 919 444 919 444 887 495 c 128,-1,15
 855 546 855 546 781.5 584.5 c 128,-1,16
 708 623 708 623 581 652 c 0,17,18
 431 687 431 687 327.5 745.5 c 128,-1,19
 224 804 224 804 170.5 887.5 c 128,-1,20
 117 971 117 971 117 1079 c 0,21,22
 117 1193 117 1193 177.5 1283 c 128,-1,23
 238 1373 238 1373 346 1425 c 128,-1,24
 454 1477 454 1477 598 1477 c 0,25,26
 751 1477 751 1477 868.5 1430.5 c 128,-1,27
 986 1384 986 1384 1062 1318 c 1,28,-1
 1062 1027 l 1,29,-1
 909 1027 l 1,30,-1
 876 1235 l 1,31,32
 831 1271 831 1271 764 1295 c 128,-1,33
 697 1319 697 1319 598 1319 c 0,34,35
 514 1319 514 1319 450 1289.5 c 128,-1,36
 386 1260 386 1260 350 1207 c 128,-1,37
 314 1154 314 1154 314 1082 c 0,38,39
 314 1019 314 1019 346.5 972 c 128,-1,40
 379 925 379 925 452.5 889.5 c 128,-1,41
 526 854 526 854 649 823 c 0,42,43
 879 766 879 766 997.5 654.5 c 128,-1,44
 1116 543 1116 543 1116 379 c 0,45,46
 1116 262 1116 262 1053 171.5 c 128,-1,47
 990 81 990 81 875.5 30 c 128,-1,48
 761 -21 761 -21 606 -21 c 0,0,1
EndSplineSet
Substitution2: "'ss03' Style Set 3 in Latin lookup 25 subtable" S.ss03
Substitution2: "'c2sc' Capitals to Small Capitals in Latin lookup 19 subtable" s.sc
AlternateSubs2: "'aalt' Access All Alternates in Latin lookup 1 subtable" S.ss03 s.sc
EndChar

StartChar: uni1E9E
Encoding: 7838 7838 135
Width: 1422
GlyphClass: 2
Flags: W
AnchorPoint: "Anchor-2" 715 0 basechar 0
AnchorPoint: "Anchor-0" 715 1376 basechar 0
LayerCount: 2
Fore
SplineSet
81 0 m 1,0,-1
 81 126 l 1,1,-1
 244 154 l 1,2,-1
 244 1301 l 1,3,-1
 81 1329 l 1,4,-1
 81 1456 l 1,5,-1
 1293 1456 l 1,6,-1
 1293 1304 l 1,7,-1
 441 1304 l 1,8,-1
 441 154 l 1,9,-1
 604 126 l 1,10,-1
 604 0 l 1,11,-1
 81 0 l 1,0,-1
948 -21 m 0,12,13
 890 -21 890 -21 837 -11.5 c 128,-1,14
 784 -2 784 -2 752 8 c 1,15,-1
 798 163 l 1,16,17
 831 150 831 150 868 141.5 c 128,-1,18
 905 133 905 133 945 133 c 0,19,20
 1057 133 1057 133 1120.5 212.5 c 128,-1,21
 1184 292 1184 292 1184 432 c 0,22,23
 1184 583 1184 583 1110.5 668 c 128,-1,24
 1037 753 1037 753 913 753 c 2,25,-1
 763 753 l 1,26,-1
 763 907 l 1,27,-1
 1121 1375 l 1,28,-1
 1293 1304 l 1,29,-1
 952 877 l 1,30,-1
 901 913 l 1,31,32
 1026 917 1026 917 1135.5 863.5 c 128,-1,33
 1245 810 1245 810 1313 701.5 c 128,-1,34
 1381 593 1381 593 1381 432 c 0,35,36
 1381 291 1381 291 1329 189.5 c 128,-1,37
 1277 88 1277 88 1180 33.5 c 128,-1,38
 1083 -21 1083 -21 948 -21 c 0,12,13
EndSplineSet
Substitution2: "'c2sc' Capitals to Small Capitals in Latin lookup 19 subtable" germandbls.sc
Substitution2: "'aalt' Access All Alternates in Latin lookup 0 subtable" germandbls.sc
EndChar

StartChar: T
Encoding: 84 84 136
Width: 1406
GlyphClass: 2
Flags: W
AnchorPoint: "Anchor-4" 703 729 basechar 0
AnchorPoint: "Anchor-2" 703 0 basechar 0
AnchorPoint: "Anchor-0" 703 1376 basechar 0
LayerCount: 2
Fore
SplineSet
440 0 m 1,0,-1
 440 126 l 1,1,-1
 603 154 l 1,2,-1
 603 1307 l 1,3,-1
 273 1307 l 1,4,-1
 244 1105 l 1,5,-1
 96 1105 l 1,6,-1
 96 1456 l 1,7,-1
 1306 1456 l 1,8,-1
 1306 1105 l 1,9,-1
 1160 1105 l 1,10,-1
 1130 1307 l 1,11,-1
 800 1307 l 1,12,-1
 800 154 l 1,13,-1
 963 126 l 1,14,-1
 963 0 l 1,15,-1
 440 0 l 1,0,-1
EndSplineSet
Substitution2: "'c2sc' Capitals to Small Capitals in Latin lookup 19 subtable" t.sc
Substitution2: "'aalt' Access All Alternates in Latin lookup 0 subtable" t.sc
EndChar

StartChar: U
Encoding: 85 85 141
Width: 1522
GlyphClass: 2
Flags: W
AnchorPoint: "Anchor-3" 904 0 basechar 0
AnchorPoint: "Anchor-2" 761 0 basechar 0
AnchorPoint: "Anchor-1" 1502 1376 basechar 0
AnchorPoint: "Anchor-0" 761 1376 basechar 0
LayerCount: 2
Fore
SplineSet
755 -21 m 0,0,1
 605 -21 605 -21 487 38 c 128,-1,2
 369 97 369 97 301 206.5 c 128,-1,3
 233 316 233 316 233 469 c 2,4,-1
 233 1301 l 1,5,-1
 70 1329 l 1,6,-1
 70 1456 l 1,7,-1
 593 1456 l 1,8,-1
 593 1329 l 1,9,-1
 430 1301 l 1,10,-1
 430 469 l 2,11,12
 430 360 430 360 471.5 286 c 128,-1,13
 513 212 513 212 587 174.5 c 128,-1,14
 661 137 661 137 758 137 c 0,15,16
 856 137 856 137 931.5 174 c 128,-1,17
 1007 211 1007 211 1049.5 285 c 128,-1,18
 1092 359 1092 359 1092 469 c 2,19,-1
 1092 1301 l 1,20,-1
 929 1329 l 1,21,-1
 929 1456 l 1,22,-1
 1452 1456 l 1,23,-1
 1452 1329 l 1,24,-1
 1289 1301 l 1,25,-1
 1289 469 l 2,26,27
 1289 311 1289 311 1222.5 201.5 c 128,-1,28
 1156 92 1156 92 1036 35.5 c 128,-1,29
 916 -21 916 -21 755 -21 c 0,0,1
EndSplineSet
Substitution2: "'c2sc' Capitals to Small Capitals in Latin lookup 19 subtable" u.sc
Substitution2: "'aalt' Access All Alternates in Latin lookup 0 subtable" u.sc
EndChar

StartChar: Uhorn
Encoding: 431 431 149
Width: 1724
GlyphClass: 2
Flags: W
AnchorPoint: "Anchor-2" 777 0 basechar 0
AnchorPoint: "Anchor-0" 788 1376 basechar 0
LayerCount: 2
Fore
SplineSet
773 -21 m 0,0,1
 613 -21 613 -21 491 35.5 c 128,-1,2
 369 92 369 92 301 201.5 c 128,-1,3
 233 311 233 311 233 469 c 2,4,-1
 233 1301 l 1,5,-1
 70 1329 l 1,6,-1
 70 1456 l 1,7,-1
 594 1456 l 1,8,-1
 594 1329 l 1,9,-1
 431 1301 l 1,10,-1
 431 469 l 2,11,12
 431 359 431 359 474 284 c 128,-1,13
 517 209 517 209 594 171 c 128,-1,14
 671 133 671 133 773 133 c 0,15,16
 881 133 881 133 962 171 c 128,-1,17
 1043 209 1043 209 1088 284 c 128,-1,18
 1133 359 1133 359 1133 469 c 2,19,-1
 1133 1301 l 1,20,-1
 970 1329 l 1,21,-1
 970 1456 l 1,22,-1
 1330 1456 l 1,23,-1
 1330 469 l 2,24,25
 1330 311 1330 311 1259.5 201.5 c 128,-1,26
 1189 92 1189 92 1064 35.5 c 128,-1,27
 939 -21 939 -21 773 -21 c 0,0,1
1280 1103 m 1,28,-1
 1281 1250 l 1,29,30
 1419 1246 1419 1246 1474.5 1321 c 128,-1,31
 1530 1396 1530 1396 1530 1549 c 1,32,-1
 1703 1549 l 1,33,-1
 1703 1544 l 1,34,35
 1707 1330 1707 1330 1604.5 1217.5 c 128,-1,36
 1502 1105 1502 1105 1280 1103 c 1,28,-1
EndSplineSet
Substitution2: "'c2sc' Capitals to Small Capitals in Latin lookup 19 subtable" uhorn.sc
Substitution2: "'aalt' Access All Alternates in Latin lookup 0 subtable" uhorn.sc
EndChar

StartChar: V
Encoding: 86 86 160
Width: 1508
GlyphClass: 2
Flags: W
AnchorPoint: "Anchor-2" 754 0 basechar 0
AnchorPoint: "Anchor-0" 754 1376 basechar 0
LayerCount: 2
Fore
SplineSet
669 0 m 1,0,-1
 181 1313 l 1,1,-1
 65 1329 l 1,2,-1
 65 1456 l 1,3,-1
 525 1456 l 1,4,-1
 525 1329 l 1,5,-1
 392 1308 l 1,6,-1
 718 382 l 1,7,-1
 752 267 l 1,8,-1
 758 267 l 1,9,-1
 794 382 l 1,10,-1
 1132 1309 l 1,11,-1
 984 1329 l 1,12,-1
 984 1456 l 1,13,-1
 1443 1456 l 1,14,-1
 1443 1329 l 1,15,-1
 1326 1313 l 1,16,-1
 838 0 l 1,17,-1
 669 0 l 1,0,-1
EndSplineSet
Substitution2: "'c2sc' Capitals to Small Capitals in Latin lookup 19 subtable" v.sc
Substitution2: "'aalt' Access All Alternates in Latin lookup 0 subtable" v.sc
EndChar

StartChar: W
Encoding: 87 87 161
Width: 2129
GlyphClass: 2
Flags: W
AnchorPoint: "Anchor-2" 1065 0 basechar 0
AnchorPoint: "Anchor-0" 1065 1376 basechar 0
LayerCount: 2
Fore
SplineSet
535 0 m 1,0,-1
 195 1314 l 1,1,-1
 72 1329 l 1,2,-1
 72 1456 l 1,3,-1
 544 1456 l 1,4,-1
 544 1329 l 1,5,-1
 393 1306 l 1,6,-1
 583 505 l 1,7,-1
 627 318 l 1,8,-1
 633 317 l 1,9,-1
 691 504 l 1,10,-1
 984 1456 l 1,11,-1
 1157 1456 l 1,12,-1
 1453 504 l 1,13,-1
 1510 306 l 1,14,-1
 1516 306 l 1,15,-1
 1568 504 l 1,16,-1
 1756 1306 l 1,17,-1
 1593 1329 l 1,18,-1
 1593 1456 l 1,19,-1
 2057 1456 l 1,20,-1
 2057 1329 l 1,21,-1
 1942 1314 l 1,22,-1
 1616 0 l 1,23,-1
 1429 0 l 1,24,-1
 1113 1008 l 1,25,-1
 1073 1155 l 1,26,-1
 1067 1155 l 1,27,-1
 1028 1008 l 1,28,-1
 711 0 l 1,29,-1
 535 0 l 1,0,-1
EndSplineSet
Substitution2: "'c2sc' Capitals to Small Capitals in Latin lookup 19 subtable" w.sc
Substitution2: "'aalt' Access All Alternates in Latin lookup 0 subtable" w.sc
EndChar

StartChar: X
Encoding: 88 88 166
Width: 1529
GlyphClass: 2
Flags: W
AnchorPoint: "Anchor-2" 765 0 basechar 0
AnchorPoint: "Anchor-0" 765 1376 basechar 0
LayerCount: 2
Fore
SplineSet
80 0 m 1,0,-1
 80 126 l 1,1,-1
 206 148 l 1,2,-1
 657 739 l 1,3,-1
 239 1307 l 1,4,-1
 112 1329 l 1,5,-1
 112 1456 l 1,6,-1
 584 1456 l 1,7,-1
 584 1329 l 1,8,-1
 447 1316 l 1,9,-1
 769 867 l 1,10,-1
 1075 1316 l 1,11,-1
 935 1329 l 1,12,-1
 935 1456 l 1,13,-1
 1410 1456 l 1,14,-1
 1410 1329 l 1,15,-1
 1277 1307 l 1,16,-1
 882 739 l 1,17,-1
 1320 148 l 1,18,-1
 1449 126 l 1,19,-1
 1449 0 l 1,20,-1
 971 0 l 1,21,-1
 971 126 l 1,22,-1
 1112 139 l 1,23,-1
 767 612 l 1,24,-1
 423 139 l 1,25,-1
 556 126 l 1,26,-1
 556 0 l 1,27,-1
 80 0 l 1,0,-1
EndSplineSet
Substitution2: "'c2sc' Capitals to Small Capitals in Latin lookup 19 subtable" x.sc
Substitution2: "'aalt' Access All Alternates in Latin lookup 0 subtable" x.sc
EndChar

StartChar: Y
Encoding: 89 89 167
Width: 1461
GlyphClass: 2
Flags: W
AnchorPoint: "Anchor-2" 731 0 basechar 0
AnchorPoint: "Anchor-0" 731 1376 basechar 0
LayerCount: 2
Fore
SplineSet
470 0 m 1,0,-1
 470 126 l 1,1,-1
 633 154 l 1,2,-1
 633 530 l 1,3,-1
 185 1310 l 1,4,-1
 65 1329 l 1,5,-1
 65 1456 l 1,6,-1
 567 1456 l 1,7,-1
 567 1329 l 1,8,-1
 401 1310 l 1,9,-1
 710 738 l 1,10,-1
 731 699 l 1,11,-1
 732 701 l 1,12,-1
 752 738 l 1,13,-1
 1076 1310 l 1,14,-1
 904 1329 l 1,15,-1
 904 1456 l 1,16,-1
 1396 1456 l 1,17,-1
 1396 1329 l 1,18,-1
 1269 1310 l 1,19,-1
 829 545 l 1,20,-1
 829 154 l 1,21,-1
 992 126 l 1,22,-1
 992 0 l 1,23,-1
 470 0 l 1,0,-1
EndSplineSet
Substitution2: "'c2sc' Capitals to Small Capitals in Latin lookup 19 subtable" y.sc
Substitution2: "'aalt' Access All Alternates in Latin lookup 0 subtable" y.sc
EndChar

StartChar: Z
Encoding: 90 90 175
Width: 1197
GlyphClass: 2
Flags: W
AnchorPoint: "Anchor-2" 599 0 basechar 0
AnchorPoint: "Anchor-0" 585 1376 basechar 0
LayerCount: 2
Fore
SplineSet
90 0 m 1,0,-1
 90 149 l 1,1,-1
 847 1302 l 1,2,-1
 281 1302 l 1,3,-1
 263 1114 l 1,4,-1
 105 1114 l 1,5,-1
 105 1456 l 1,6,-1
 1074 1456 l 1,7,-1
 1074 1311 l 1,8,-1
 313 153 l 1,9,-1
 932 153 l 1,10,-1
 950 360 l 1,11,-1
 1107 360 l 1,12,-1
 1107 0 l 1,13,-1
 90 0 l 1,0,-1
EndSplineSet
Substitution2: "'c2sc' Capitals to Small Capitals in Latin lookup 19 subtable" z.sc
Substitution2: "'aalt' Access All Alternates in Latin lookup 0 subtable" z.sc
EndChar

StartChar: C.ss03
Encoding: 65537 -1 179
Width: 1283
GlyphClass: 1
Flags: W
LayerCount: 2
Fore
SplineSet
672 -21 m 256,0,1
 506 -21 506 -21 380.5 59 c 128,-1,2
 255 139 255 139 184.5 278.5 c 128,-1,3
 114 418 114 418 114 598 c 2,4,-1
 114 857 l 2,5,6
 114 1037 114 1037 187.5 1177 c 128,-1,7
 261 1317 261 1317 391.5 1397 c 128,-1,8
 522 1477 522 1477 692 1477 c 0,9,10
 864 1477 864 1477 995 1412.5 c 128,-1,11
 1126 1348 1126 1348 1192 1268 c 1,12,-1
 1192 958 l 1,13,-1
 1034 958 l 1,14,-1
 977 1196 l 1,15,16
 933 1251 933 1251 867.5 1286.5 c 128,-1,17
 802 1322 802 1322 711 1322 c 0,18,19
 590 1322 590 1322 500 1261 c 128,-1,20
 410 1200 410 1200 360.5 1095.5 c 128,-1,21
 311 991 311 991 311 859 c 2,22,-1
 311 598 l 2,23,24
 311 466 311 466 355.5 360.5 c 128,-1,25
 400 255 400 255 481 194 c 128,-1,26
 562 133 562 133 672 133 c 0,27,28
 764 133 764 133 840 164 c 128,-1,29
 916 195 916 195 957 241 c 1,30,-1
 1014 496 l 1,31,-1
 1152 496 l 1,32,-1
 1152 188 l 1,33,34
 1090 107 1090 107 964 43 c 128,-1,35
 838 -21 838 -21 672 -21 c 256,0,1
EndSplineSet
EndChar

StartChar: G.ss03
Encoding: 65538 -1 180
Width: 1385
GlyphClass: 1
Flags: W
LayerCount: 2
Fore
SplineSet
715 -21 m 0,0,1
 541 -21 541 -21 405.5 55 c 128,-1,2
 270 131 270 131 192 266.5 c 128,-1,3
 114 402 114 402 114 578 c 2,4,-1
 114 878 l 2,5,6
 114 1055 114 1055 188.5 1190 c 128,-1,7
 263 1325 263 1325 396 1401 c 128,-1,8
 529 1477 529 1477 702 1477 c 0,9,10
 871 1477 871 1477 997 1423.5 c 128,-1,11
 1123 1370 1123 1370 1202 1273 c 1,12,-1
 1202 989 l 1,13,-1
 1045 989 l 1,14,-1
 987 1239 l 1,15,16
 945 1276 945 1276 879.5 1299 c 128,-1,17
 814 1322 814 1322 722 1322 c 0,18,19
 600 1322 600 1322 507 1265 c 128,-1,20
 414 1208 414 1208 362.5 1108 c 128,-1,21
 311 1008 311 1008 311 880 c 2,22,-1
 311 578 l 2,23,24
 311 449 311 449 363 348.5 c 128,-1,25
 415 248 415 248 506.5 190.5 c 128,-1,26
 598 133 598 133 715 133 c 0,27,28
 839 133 839 133 918 166 c 128,-1,29
 997 199 997 199 1031 241 c 1,30,-1
 1031 532 l 1,31,-1
 793 542 l 1,32,-1
 793 687 l 1,33,-1
 1228 687 l 1,34,-1
 1228 193 l 1,35,36
 1194 140 1194 140 1125 90.5 c 128,-1,37
 1056 41 1056 41 953.5 10 c 128,-1,38
 851 -21 851 -21 715 -21 c 0,0,1
EndSplineSet
EndChar

StartChar: S.ss03
Encoding: 65539 -1 181
Width: 1248
GlyphClass: 1
Flags: W
LayerCount: 2
Fore
SplineSet
632 -21 m 0,0,1
 487 -21 487 -21 360.5 32.5 c 128,-1,2
 234 86 234 86 157.5 183.5 c 128,-1,3
 81 281 81 281 84 413 c 1,4,-1
 86 419 l 1,5,-1
 274 419 l 1,6,7
 274 326 274 326 321 262 c 128,-1,8
 368 198 368 198 449.5 165.5 c 128,-1,9
 531 133 531 133 632 133 c 0,10,11
 732 133 732 133 804 161.5 c 128,-1,12
 876 190 876 190 915 242.5 c 128,-1,13
 954 295 954 295 954 367 c 0,14,15
 954 434 954 434 922 486 c 128,-1,16
 890 538 890 538 816 578 c 128,-1,17
 742 618 742 618 614 648 c 0,18,19
 460 685 460 685 350.5 744.5 c 128,-1,20
 241 804 241 804 182.5 887.5 c 128,-1,21
 124 971 124 971 124 1079 c 0,22,23
 124 1193 124 1193 187.5 1283 c 128,-1,24
 251 1373 251 1373 364 1425 c 128,-1,25
 477 1477 477 1477 625 1477 c 0,26,27
 785 1477 785 1477 902 1416.5 c 128,-1,28
 1019 1356 1019 1356 1082.5 1257 c 128,-1,29
 1146 1158 1146 1158 1142 1042 c 1,30,-1
 1140 1036 l 1,31,-1
 952 1036 l 1,32,33
 952 1122 952 1122 914 1186 c 128,-1,34
 876 1250 876 1250 803.5 1286 c 128,-1,35
 731 1322 731 1322 625 1322 c 0,36,37
 527 1322 527 1322 459 1292 c 128,-1,38
 391 1262 391 1262 356 1208 c 128,-1,39
 321 1154 321 1154 321 1082 c 0,40,41
 321 1019 321 1019 358 970 c 128,-1,42
 395 921 395 921 475 882.5 c 128,-1,43
 555 844 555 844 682 812 c 0,44,45
 912 755 912 755 1032 644 c 128,-1,46
 1152 533 1152 533 1152 369 c 0,47,48
 1152 252 1152 252 1086.5 164 c 128,-1,49
 1021 76 1021 76 904 27.5 c 128,-1,50
 787 -21 787 -21 632 -21 c 0,0,1
EndSplineSet
EndChar

StartChar: C.ss04
Encoding: 65540 -1 182
Width: 1283
GlyphClass: 1
Flags: W
LayerCount: 2
Fore
SplineSet
672 -21 m 0,0,1
 506 -21 506 -21 380.5 59 c 128,-1,2
 255 139 255 139 184.5 278.5 c 128,-1,3
 114 418 114 418 114 598 c 2,4,-1
 114 857 l 2,5,6
 114 1037 114 1037 185 1177 c 128,-1,7
 256 1317 256 1317 382 1397 c 128,-1,8
 508 1477 508 1477 672 1477 c 0,9,10
 913 1477 913 1477 1050 1348.5 c 128,-1,11
 1187 1220 1187 1220 1206 997 c 1,12,-1
 1204 991 l 1,13,-1
 1015 991 l 1,14,15
 991 1152 991 1152 910.5 1237 c 128,-1,16
 830 1322 830 1322 672 1322 c 0,17,18
 562 1322 562 1322 481 1261 c 128,-1,19
 400 1200 400 1200 355.5 1095.5 c 128,-1,20
 311 991 311 991 311 859 c 2,21,-1
 311 598 l 2,22,23
 311 466 311 466 355.5 360.5 c 128,-1,24
 400 255 400 255 481 194 c 128,-1,25
 562 133 562 133 672 133 c 0,26,27
 831 133 831 133 911 217.5 c 128,-1,28
 991 302 991 302 1015 466 c 1,29,-1
 1204 466 l 1,30,-1
 1206 460 l 1,31,32
 1194 320 1194 320 1127 211 c 128,-1,33
 1060 102 1060 102 945 40.5 c 128,-1,34
 830 -21 830 -21 672 -21 c 0,0,1
EndSplineSet
EndChar

StartChar: G.ss04
Encoding: 65541 -1 183
Width: 1385
GlyphClass: 1
Flags: W
LayerCount: 2
Fore
SplineSet
715 -21 m 0,0,1
 541 -21 541 -21 405.5 55 c 128,-1,2
 270 131 270 131 192 266.5 c 128,-1,3
 114 402 114 402 114 578 c 2,4,-1
 114 878 l 2,5,6
 114 1055 114 1055 186 1190 c 128,-1,7
 258 1325 258 1325 386.5 1401 c 128,-1,8
 515 1477 515 1477 682 1477 c 0,9,10
 927 1477 927 1477 1061 1357 c 128,-1,11
 1195 1237 1195 1237 1221 1038 c 1,12,-1
 1219 1032 l 1,13,-1
 1031 1032 l 1,14,15
 1005 1164 1005 1164 924 1243 c 128,-1,16
 843 1322 843 1322 682 1322 c 0,17,18
 572 1322 572 1322 488 1265 c 128,-1,19
 404 1208 404 1208 357.5 1108 c 128,-1,20
 311 1008 311 1008 311 880 c 2,21,-1
 311 578 l 2,22,23
 311 449 311 449 363 348.5 c 128,-1,24
 415 248 415 248 506.5 190.5 c 128,-1,25
 598 133 598 133 715 133 c 0,26,27
 839 133 839 133 918 166 c 128,-1,28
 997 199 997 199 1031 241 c 1,29,-1
 1031 533 l 1,30,-1
 793 542 l 1,31,-1
 793 687 l 1,32,-1
 1228 687 l 1,33,-1
 1228 193 l 1,34,35
 1194 140 1194 140 1125 90.5 c 128,-1,36
 1056 41 1056 41 953.5 10 c 128,-1,37
 851 -21 851 -21 715 -21 c 0,0,1
EndSplineSet
EndChar

StartChar: O.ss04
Encoding: 65542 -1 184
Width: 1403
GlyphClass: 1
Flags: W
LayerCount: 2
Fore
SplineSet
688 -21 m 0,0,1
 518 -21 518 -21 388.5 59.5 c 128,-1,2
 259 140 259 140 186.5 280 c 128,-1,3
 114 420 114 420 114 598 c 2,4,-1
 114 857 l 2,5,6
 114 1035 114 1035 186.5 1175 c 128,-1,7
 259 1315 259 1315 388.5 1396 c 128,-1,8
 518 1477 518 1477 688 1477 c 0,9,10
 864 1477 864 1477 998 1396 c 128,-1,11
 1132 1315 1132 1315 1207.5 1175 c 128,-1,12
 1283 1035 1283 1035 1283 857 c 2,13,-1
 1283 598 l 2,14,15
 1283 420 1283 420 1207.5 280 c 128,-1,16
 1132 140 1132 140 998 59.5 c 128,-1,17
 864 -21 864 -21 688 -21 c 0,0,1
688 140 m 0,18,19
 810 140 810 140 899.5 198 c 128,-1,20
 989 256 989 256 1037.5 359.5 c 128,-1,21
 1086 463 1086 463 1086 598 c 2,22,-1
 1086 859 l 2,23,24
 1086 993 1086 993 1037 1095.5 c 128,-1,25
 988 1198 988 1198 899 1256.5 c 128,-1,26
 810 1315 810 1315 688 1315 c 0,27,28
 573 1315 573 1315 488 1256.5 c 128,-1,29
 403 1198 403 1198 357 1095.5 c 128,-1,30
 311 993 311 993 311 859 c 2,31,-1
 311 598 l 2,32,33
 311 464 311 464 357 360.5 c 128,-1,34
 403 257 403 257 488 198.5 c 128,-1,35
 573 140 573 140 688 140 c 0,18,19
EndSplineSet
EndChar

StartChar: D.ss05
Encoding: 65543 -1 185
Width: 1359
GlyphClass: 1
Flags: W
LayerCount: 2
Fore
SplineSet
81 0 m 1,0,-1
 81 126 l 1,1,-1
 244 154 l 1,2,-1
 244 1301 l 1,3,-1
 81 1329 l 1,4,-1
 81 1456 l 1,5,-1
 244 1456 l 1,6,-1
 651 1456 l 2,7,8
 841 1456 841 1456 986 1373.5 c 128,-1,9
 1131 1291 1131 1291 1212.5 1147 c 128,-1,10
 1294 1003 1294 1003 1294 817 c 2,11,-1
 1294 638 l 2,12,13
 1294 457 1294 457 1215 312.5 c 128,-1,14
 1136 168 1136 168 993.5 84 c 128,-1,15
 851 0 851 0 661 0 c 2,16,-1
 81 0 l 1,0,-1
441 154 m 1,17,-1
 651 154 l 2,18,19
 786 154 786 154 886 219.5 c 128,-1,20
 986 285 986 285 1041.5 395 c 128,-1,21
 1097 505 1097 505 1097 638 c 2,22,-1
 1097 819 l 2,23,24
 1097 957 1097 957 1041.5 1066 c 128,-1,25
 986 1175 986 1175 886 1238 c 128,-1,26
 786 1301 786 1301 651 1301 c 2,27,-1
 441 1301 l 1,28,-1
 441 154 l 1,17,-1
EndSplineSet
EndChar

StartChar: Dcroat.ss05
Encoding: 65544 -1 186
Width: 1449
GlyphClass: 1
Flags: W
LayerCount: 2
Fore
SplineSet
101 0 m 1,0,-1
 101 126 l 1,1,-1
 264 154 l 1,2,-1
 264 663 l 1,3,-1
 66 663 l 1,4,-1
 66 818 l 1,5,-1
 264 818 l 1,6,-1
 264 1301 l 1,7,-1
 101 1329 l 1,8,-1
 101 1456 l 1,9,-1
 711 1456 l 2,10,11
 901 1456 901 1456 1043 1376 c 128,-1,12
 1185 1296 1185 1296 1264 1154.5 c 128,-1,13
 1343 1013 1343 1013 1343 827 c 2,14,-1
 1343 628 l 2,15,16
 1343 442 1343 442 1264 300.5 c 128,-1,17
 1185 159 1185 159 1043 79.5 c 128,-1,18
 901 0 901 0 711 0 c 2,19,-1
 101 0 l 1,0,-1
461 154 m 1,20,-1
 711 154 l 2,21,22
 846 154 846 154 943.5 215 c 128,-1,23
 1041 276 1041 276 1093.5 382.5 c 128,-1,24
 1146 489 1146 489 1146 628 c 2,25,-1
 1146 829 l 2,26,27
 1146 967 1146 967 1093.5 1073.5 c 128,-1,28
 1041 1180 1041 1180 943.5 1240.5 c 128,-1,29
 846 1301 846 1301 711 1301 c 2,30,-1
 461 1301 l 1,31,-1
 461 818 l 1,32,-1
 707 818 l 1,33,-1
 707 663 l 1,34,-1
 461 663 l 1,35,-1
 461 154 l 1,20,-1
EndSplineSet
EndChar

StartChar: K.ss05
Encoding: 65545 -1 187
Width: 1496
GlyphClass: 1
Flags: W
LayerCount: 2
Fore
SplineSet
81 0 m 1,0,-1
 81 126 l 1,1,-1
 244 154 l 1,2,-1
 244 1301 l 1,3,-1
 81 1329 l 1,4,-1
 81 1456 l 1,5,-1
 604 1456 l 1,6,-1
 604 1329 l 1,7,-1
 441 1301 l 1,8,-1
 441 812 l 1,9,-1
 592 812 l 1,10,-1
 995 1310 l 1,11,-1
 999 1315 l 1,12,-1
 890 1329 l 1,13,-1
 890 1456 l 1,14,-1
 1352 1456 l 1,15,-1
 1352 1329 l 1,16,-1
 1215 1304 l 1,17,-1
 770 752 l 1,18,-1
 1282 151 l 1,19,-1
 1416 126 l 1,20,-1
 1416 0 l 1,21,-1
 935 0 l 1,22,-1
 935 126 l 1,23,-1
 1055 140 l 1,24,-1
 1054 141 l 1,25,-1
 614 657 l 1,26,-1
 441 657 l 1,27,-1
 441 154 l 1,28,-1
 604 126 l 1,29,-1
 604 0 l 1,30,-1
 81 0 l 1,0,-1
EndSplineSet
EndChar

StartChar: OE.ss05
Encoding: 65546 -1 188
Width: 1969
GlyphClass: 1
Flags: W
LayerCount: 2
Fore
SplineSet
674 -21 m 0,0,1
 508 -21 508 -21 382 54.5 c 128,-1,2
 256 130 256 130 185 265 c 128,-1,3
 114 400 114 400 114 576 c 2,4,-1
 114 880 l 2,5,6
 114 1057 114 1057 184.5 1191.5 c 128,-1,7
 255 1326 255 1326 380.5 1401.5 c 128,-1,8
 506 1477 506 1477 672 1477 c 0,9,10
 741 1477 741 1477 812.5 1471 c 128,-1,11
 884 1465 884 1465 963 1456 c 1,12,-1
 1873 1456 l 1,13,-1
 1873 1106 l 1,14,-1
 1704 1106 l 1,15,-1
 1688 1301 l 1,16,-1
 1115 1301 l 1,17,-1
 1115 830 l 1,18,-1
 1672 830 l 1,19,-1
 1672 675 l 1,20,-1
 1115 675 l 1,21,-1
 1115 154 l 1,22,-1
 1700 154 l 1,23,-1
 1716 349 l 1,24,-1
 1884 349 l 1,25,-1
 1884 0 l 1,26,-1
 963 0 l 1,27,28
 872 -10 872 -10 806.5 -15.5 c 128,-1,29
 741 -21 741 -21 674 -21 c 0,0,1
674 134 m 0,30,31
 727 134 727 134 789 138 c 128,-1,32
 851 142 851 142 918 154 c 1,33,-1
 918 1301 l 1,34,35
 829 1315 829 1315 774 1318.5 c 128,-1,36
 719 1322 719 1322 672 1322 c 0,37,38
 560 1322 560 1322 479 1271 c 128,-1,39
 398 1220 398 1220 354.5 1122 c 128,-1,40
 311 1024 311 1024 311 882 c 2,41,-1
 311 576 l 2,42,43
 311 434 311 434 355 335 c 128,-1,44
 399 236 399 236 480.5 185 c 128,-1,45
 562 134 562 134 674 134 c 0,30,31
EndSplineSet
EndChar

StartChar: R.ss05
Encoding: 65547 -1 189
Width: 1396
GlyphClass: 1
Flags: W
LayerCount: 2
Fore
SplineSet
81 0 m 1,0,-1
 81 126 l 1,1,-1
 244 154 l 1,2,-1
 244 1301 l 1,3,-1
 81 1329 l 1,4,-1
 81 1455 l 1,5,-1
 720 1455 l 2,6,7
 958 1455 958 1455 1085 1349.5 c 128,-1,8
 1212 1244 1212 1244 1212 1050 c 0,9,10
 1212 944 1212 944 1153 862 c 128,-1,11
 1094 780 1094 780 984 733 c 1,12,13
 1103 694 1103 694 1155.5 606 c 128,-1,14
 1208 518 1208 518 1208 389 c 2,15,-1
 1208 272 l 2,16,17
 1208 205 1208 205 1225 173 c 128,-1,18
 1242 141 1242 141 1281 135 c 2,19,-1
 1329 129 l 1,20,-1
 1329 0 l 1,21,-1
 1223 0 l 2,22,23
 1108 0 1108 0 1059.5 80 c 128,-1,24
 1011 160 1011 160 1011 274 c 2,25,-1
 1011 387 l 2,26,27
 1011 506 1011 506 942 578 c 128,-1,28
 873 650 873 650 757 650 c 2,29,-1
 441 650 l 1,30,-1
 441 154 l 1,31,-1
 604 126 l 1,32,-1
 604 0 l 1,33,-1
 81 0 l 1,0,-1
441 805 m 1,34,-1
 700 805 l 2,35,36
 865 805 865 805 940 868 c 128,-1,37
 1015 931 1015 931 1015 1052 c 0,38,39
 1015 1167 1015 1167 943 1234 c 128,-1,40
 871 1301 871 1301 720 1301 c 2,41,-1
 441 1301 l 1,42,-1
 441 805 l 1,34,-1
EndSplineSet
EndChar

StartChar: a
Encoding: 97 97 190
Width: 1132
GlyphClass: 2
Flags: W
AnchorPoint: "Anchor-3" 1053 0 basechar 0
AnchorPoint: "Anchor-2" 551 0 basechar 0
AnchorPoint: "Anchor-0" 534 1082 basechar 0
LayerCount: 2
Fore
SplineSet
424 -21 m 0,0,1
 255 -21 255 -21 167 61.5 c 128,-1,2
 79 144 79 144 79 294 c 0,3,4
 79 448 79 448 205 541.5 c 128,-1,5
 331 635 331 635 555 635 c 2,6,-1
 748 635 l 1,7,-1
 748 741 l 2,8,9
 748 839 748 839 688.5 893 c 128,-1,10
 629 947 629 947 521 947 c 0,11,12
 453 947 453 947 403 930.5 c 128,-1,13
 353 914 353 914 312 885 c 1,14,-1
 291 734 l 1,15,-1
 139 734 l 1,16,-1
 139 982 l 1,17,18
 212 1041 212 1041 309 1071.5 c 128,-1,19
 406 1102 406 1102 524 1102 c 0,20,21
 721 1102 721 1102 833 1008 c 128,-1,22
 945 914 945 914 945 739 c 2,23,-1
 945 218 l 2,24,25
 945 197 945 197 945.5 177 c 128,-1,26
 946 157 946 157 948 137 c 1,27,-1
 1053 126 l 1,28,-1
 1053 0 l 1,29,-1
 770 0 l 1,30,31
 761 44 761 44 756 79 c 128,-1,32
 751 114 751 114 749 149 c 1,33,34
 692 76 692 76 606.5 27.5 c 128,-1,35
 521 -21 521 -21 424 -21 c 0,0,1
453 144 m 0,36,37
 551 144 551 144 632 191 c 128,-1,38
 713 238 713 238 748 304 c 1,39,-1
 748 500 l 1,40,-1
 548 500 l 2,41,42
 412 500 412 500 344 435 c 128,-1,43
 276 370 276 370 276 290 c 0,44,45
 276 219 276 219 320 181.5 c 128,-1,46
 364 144 364 144 453 144 c 0,36,37
EndSplineSet
Substitution2: "'ss03' Style Set 3 in Latin lookup 25 subtable" a.ss03
Substitution2: "'smcp' Lowercase to Small Capitals in Latin lookup 20 subtable" a.sc
Substitution2: "Single Substitution lookup 17 subtable" ordfeminine
AlternateSubs2: "'aalt' Access All Alternates in Latin lookup 1 subtable" a.ss03 a.sc ordfeminine
EndChar

StartChar: ae
Encoding: 230 230 214
Width: 1737
GlyphClass: 2
Flags: W
AnchorPoint: "Anchor-2" 892 0 basechar 0
AnchorPoint: "Anchor-0" 892 1082 basechar 0
LayerCount: 2
Fore
SplineSet
435 -21 m 0,0,1
 260 -21 260 -21 169.5 64 c 128,-1,2
 79 149 79 149 79 302 c 0,3,4
 79 404 79 404 136 480 c 128,-1,5
 193 556 193 556 299.5 598 c 128,-1,6
 406 640 406 640 556 640 c 2,7,-1
 749 640 l 1,8,-1
 749 741 l 2,9,10
 749 839 749 839 689.5 893 c 128,-1,11
 630 947 630 947 522 947 c 0,12,13
 454 947 454 947 404 930.5 c 128,-1,14
 354 914 354 914 313 885 c 1,15,-1
 292 734 l 1,16,-1
 140 734 l 1,17,-1
 140 982 l 1,18,19
 213 1041 213 1041 310 1071.5 c 128,-1,20
 407 1102 407 1102 525 1102 c 0,21,22
 647 1102 647 1102 736 1060.5 c 128,-1,23
 825 1019 825 1019 874 937 c 1,24,25
 917 990 917 990 970 1027 c 128,-1,26
 1023 1064 1023 1064 1084.5 1083 c 128,-1,27
 1146 1102 1146 1102 1213 1102 c 0,28,29
 1356 1102 1356 1102 1455 1043.5 c 128,-1,30
 1554 985 1554 985 1606 875.5 c 128,-1,31
 1658 766 1658 766 1658 614 c 2,32,-1
 1658 495 l 1,33,-1
 948 495 l 1,34,-1
 946 490 l 1,35,36
 947 331 947 331 1025.5 232 c 128,-1,37
 1104 133 1104 133 1259 133 c 0,38,39
 1363 133 1363 133 1429 160.5 c 128,-1,40
 1495 188 1495 188 1573 239 c 1,41,-1
 1641 101 l 1,42,43
 1586 56 1586 56 1492 17.5 c 128,-1,44
 1398 -21 1398 -21 1259 -21 c 0,45,46
 988 -21 988 -21 831 190 c 1,47,48
 761 86 761 86 660.5 32.5 c 128,-1,49
 560 -21 560 -21 435 -21 c 0,0,1
454 144 m 0,50,51
 522 144 522 144 582.5 171 c 128,-1,52
 643 198 643 198 689.5 243 c 128,-1,53
 736 288 736 288 760 342 c 1,54,55
 754 391 754 391 751.5 426 c 128,-1,56
 749 461 749 461 749 504 c 2,57,-1
 749 505 l 1,58,-1
 549 505 l 2,59,60
 413 505 413 505 344.5 441.5 c 128,-1,61
 276 378 276 378 276 298 c 0,62,63
 276 233 276 233 320 188.5 c 128,-1,64
 364 144 364 144 454 144 c 0,50,51
950 640 m 1,65,-1
 1461 640 l 1,66,-1
 1461 671 l 2,67,68
 1461 793 1461 793 1401 870 c 128,-1,69
 1341 947 1341 947 1213 947 c 0,70,71
 1137 947 1137 947 1080 908.5 c 128,-1,72
 1023 870 1023 870 989.5 802 c 128,-1,73
 956 734 956 734 948 645 c 1,74,-1
 950 640 l 1,65,-1
EndSplineSet
Substitution2: "'ss03' Style Set 3 in Latin lookup 25 subtable" ae.ss03
Substitution2: "'smcp' Lowercase to Small Capitals in Latin lookup 20 subtable" ae.sc
AlternateSubs2: "'aalt' Access All Alternates in Latin lookup 1 subtable" ae.ss03 ae.sc
EndChar

StartChar: b
Encoding: 98 98 216
Width: 1145
GlyphClass: 2
Flags: W
AnchorPoint: "Anchor-2" 587 0 basechar 0
AnchorPoint: "Anchor-0" 246 1456 basechar 0
LayerCount: 2
Fore
SplineSet
649 -21 m 0,0,1
 543 -21 543 -21 465 19.5 c 128,-1,2
 387 60 387 60 335 139 c 1,3,-1
 317 0 l 1,4,-1
 147 0 l 1,5,-1
 147 1405 l 1,6,-1
 -16 1433 l 1,7,-1
 -16 1560 l 1,8,-1
 344 1560 l 1,9,-1
 344 954 l 1,10,11
 395 1026 395 1026 470.5 1064 c 128,-1,12
 546 1102 546 1102 647 1102 c 0,13,14
 781 1102 781 1102 875.5 1029.5 c 128,-1,15
 970 957 970 957 1020.5 826 c 128,-1,16
 1071 695 1071 695 1071 521 c 2,17,-1
 1071 500 l 2,18,19
 1071 344 1071 344 1020.5 227 c 128,-1,20
 970 110 970 110 875.5 44.5 c 128,-1,21
 781 -21 781 -21 649 -21 c 0,0,1
599 139 m 0,22,23
 738 139 738 139 805.5 238 c 128,-1,24
 873 337 873 337 873 500 c 2,25,-1
 873 521 l 2,26,27
 873 646 873 646 843 740.5 c 128,-1,28
 813 835 813 835 752 888.5 c 128,-1,29
 691 942 691 942 597 942 c 0,30,31
 506 942 506 942 443.5 898 c 128,-1,32
 381 854 381 854 344 780 c 1,33,-1
 344 302 l 1,34,35
 381 227 381 227 444.5 183 c 128,-1,36
 508 139 508 139 599 139 c 0,22,23
EndSplineSet
Substitution2: "'smcp' Lowercase to Small Capitals in Latin lookup 20 subtable" b.sc
Substitution2: "'aalt' Access All Alternates in Latin lookup 0 subtable" b.sc
EndChar

StartChar: c
Encoding: 99 99 217
Width: 1067
GlyphClass: 2
Flags: W
AnchorPoint: "Anchor-2" 557 0 basechar 0
AnchorPoint: "Anchor-0" 557 1082 basechar 0
LayerCount: 2
Fore
SplineSet
563 -21 m 0,0,1
 416 -21 416 -21 307 47.5 c 128,-1,2
 198 116 198 116 138 238 c 128,-1,3
 78 360 78 360 78 520 c 2,4,-1
 78 562 l 2,5,6
 78 716 78 716 136 838 c 128,-1,7
 194 960 194 960 303 1031 c 128,-1,8
 412 1102 412 1102 563 1102 c 0,9,10
 694 1102 694 1102 792.5 1059 c 128,-1,11
 891 1016 891 1016 958 941 c 1,12,-1
 963 681 l 1,13,-1
 809 681 l 1,14,-1
 775 870 l 1,15,16
 741 905 741 905 690 926 c 128,-1,17
 639 947 639 947 570 947 c 0,18,19
 482 947 482 947 415.5 895 c 128,-1,20
 349 843 349 843 312 756 c 128,-1,21
 275 669 275 669 275 562 c 2,22,-1
 275 520 l 2,23,24
 275 402 275 402 309.5 315 c 128,-1,25
 344 228 344 228 408.5 180.5 c 128,-1,26
 473 133 473 133 562 133 c 0,27,28
 662 133 662 133 728 188 c 128,-1,29
 794 243 794 243 809 339 c 1,30,-1
 986 339 l 1,31,-1
 988 333 l 1,32,33
 983 240 983 240 933 159 c 128,-1,34
 883 78 883 78 790.5 28.5 c 128,-1,35
 698 -21 698 -21 563 -21 c 0,0,1
EndSplineSet
Substitution2: "'ss03' Style Set 3 in Latin lookup 25 subtable" c.ss03
Substitution2: "'smcp' Lowercase to Small Capitals in Latin lookup 20 subtable" c.sc
AlternateSubs2: "'aalt' Access All Alternates in Latin lookup 1 subtable" c.ss03 c.sc
EndChar

StartChar: d
Encoding: 100 100 223
Width: 1218
GlyphClass: 2
Flags: W
AnchorPoint: "Anchor-4" 855 1232 basechar 0
AnchorPoint: "Anchor-2" 611 0 basechar 0
AnchorPoint: "Anchor-1" 1222 1560 basechar 0
AnchorPoint: "Anchor-0" 860 1456 basechar 0
LayerCount: 2
Fore
SplineSet
499 -21 m 0,0,1
 367 -21 367 -21 272.5 44.5 c 128,-1,2
 178 110 178 110 128 227 c 128,-1,3
 78 344 78 344 78 500 c 2,4,-1
 78 521 l 2,5,6
 78 695 78 695 128 826 c 128,-1,7
 178 957 178 957 273 1029.5 c 128,-1,8
 368 1102 368 1102 501 1102 c 0,9,10
 597 1102 597 1102 670.5 1066.5 c 128,-1,11
 744 1031 744 1031 796 964 c 1,12,-1
 796 1405 l 1,13,-1
 633 1433 l 1,14,-1
 633 1560 l 1,15,-1
 796 1560 l 1,16,-1
 993 1560 l 1,17,-1
 993 154 l 1,18,-1
 1156 126 l 1,19,-1
 1156 0 l 1,20,-1
 822 0 l 1,21,-1
 806 129 l 1,22,23
 753 55 753 55 676.5 17 c 128,-1,24
 600 -21 600 -21 499 -21 c 0,0,1
549 139 m 0,25,26
 637 139 637 139 697 179 c 128,-1,27
 757 219 757 219 796 292 c 1,28,-1
 796 794 l 1,29,30
 758 862 758 862 697 902 c 128,-1,31
 636 942 636 942 551 942 c 0,32,33
 457 942 457 942 396 888.5 c 128,-1,34
 335 835 335 835 305 740.5 c 128,-1,35
 275 646 275 646 275 521 c 2,36,-1
 275 500 l 2,37,38
 275 337 275 337 342 238 c 128,-1,39
 409 139 409 139 549 139 c 0,25,26
EndSplineSet
Substitution2: "'smcp' Lowercase to Small Capitals in Latin lookup 20 subtable" d.sc
Substitution2: "'aalt' Access All Alternates in Latin lookup 0 subtable" d.sc
EndChar

StartChar: eth
Encoding: 240 240 226
Width: 1191
GlyphClass: 1
Flags: W
LayerCount: 2
Fore
SplineSet
575 -21 m 0,0,1
 430 -21 430 -21 317.5 43.5 c 128,-1,2
 205 108 205 108 141.5 218 c 128,-1,3
 78 328 78 328 78 466 c 0,4,5
 78 618 78 618 141 733.5 c 128,-1,6
 204 849 204 849 314.5 913.5 c 128,-1,7
 425 978 425 978 567 978 c 0,8,9
 650 978 650 978 724.5 946 c 128,-1,10
 799 914 799 914 851 862 c 1,11,-1
 855 867 l 1,12,13
 835 965 835 965 793 1046.5 c 128,-1,14
 751 1128 751 1128 692 1190 c 1,15,-1
 420 1035 l 1,16,-1
 343 1137 l 1,17,-1
 588 1277 l 1,18,19
 552 1300 552 1300 513.5 1318.5 c 128,-1,20
 475 1337 475 1337 433 1353 c 1,21,-1
 493 1517 l 1,22,23
 568 1495 568 1495 636 1460 c 128,-1,24
 704 1425 704 1425 764 1378 c 1,25,-1
 997 1511 l 1,26,-1
 1074 1409 l 1,27,-1
 859 1286 l 1,28,29
 963 1165 963 1165 1020.5 999 c 128,-1,30
 1078 833 1078 833 1078 633 c 2,31,-1
 1078 535 l 2,32,33
 1078 372 1078 372 1012 246.5 c 128,-1,34
 946 121 946 121 832.5 50 c 128,-1,35
 719 -21 719 -21 575 -21 c 0,0,1
579 133 m 0,36,37
 668 133 668 133 736 185 c 128,-1,38
 804 237 804 237 842.5 328 c 128,-1,39
 881 419 881 419 881 535 c 2,40,-1
 881 635 l 1,41,-1
 881 685 l 1,42,43
 845 743 845 743 764.5 783 c 128,-1,44
 684 823 684 823 567 823 c 0,45,46
 480 823 480 823 414 775 c 128,-1,47
 348 727 348 727 311.5 646.5 c 128,-1,48
 275 566 275 566 275 466 c 0,49,50
 275 378 275 378 312 302 c 128,-1,51
 349 226 349 226 417 179.5 c 128,-1,52
 485 133 485 133 579 133 c 0,36,37
EndSplineSet
Substitution2: "'smcp' Lowercase to Small Capitals in Latin lookup 20 subtable" eth.sc
Substitution2: "'aalt' Access All Alternates in Latin lookup 0 subtable" eth.sc
EndChar

StartChar: e
Encoding: 101 101 227
Width: 1059
GlyphClass: 2
Flags: W
AnchorPoint: "Anchor-3" 853 0 basechar 0
AnchorPoint: "Anchor-2" 539 0 basechar 0
AnchorPoint: "Anchor-0" 536 1082 basechar 0
LayerCount: 2
Fore
SplineSet
567 -21 m 0,0,1
 417 -21 417 -21 306 47.5 c 128,-1,2
 195 116 195 116 134.5 238 c 128,-1,3
 74 360 74 360 74 520 c 2,4,-1
 74 564 l 2,5,6
 74 718 74 718 137.5 839.5 c 128,-1,7
 201 961 201 961 306.5 1031.5 c 128,-1,8
 412 1102 412 1102 537 1102 c 0,9,10
 683 1102 683 1102 781.5 1042 c 128,-1,11
 880 982 880 982 930 873.5 c 128,-1,12
 980 765 980 765 980 618 c 2,13,-1
 980 495 l 1,14,-1
 278 495 l 1,15,-1
 275 490 l 1,16,17
 277 386 277 386 311.5 305.5 c 128,-1,18
 346 225 346 225 411 179 c 128,-1,19
 476 133 476 133 567 133 c 0,20,21
 667 133 667 133 742.5 161.5 c 128,-1,22
 818 190 818 190 873 240 c 1,23,-1
 950 112 l 1,24,25
 892 56 892 56 796.5 17.5 c 128,-1,26
 701 -21 701 -21 567 -21 c 0,0,1
284 649 m 1,27,-1
 783 649 l 1,28,-1
 783 675 l 2,29,30
 783 753 783 753 755.5 814.5 c 128,-1,31
 728 876 728 876 673.5 911.5 c 128,-1,32
 619 947 619 947 537 947 c 0,33,34
 471 947 471 947 417 908.5 c 128,-1,35
 363 870 363 870 328 804 c 128,-1,36
 293 738 293 738 282 654 c 1,37,-1
 284 649 l 1,27,-1
EndSplineSet
Substitution2: "'smcp' Lowercase to Small Capitals in Latin lookup 20 subtable" e.sc
Substitution2: "'aalt' Access All Alternates in Latin lookup 0 subtable" e.sc
EndChar

StartChar: uni0259
Encoding: 601 601 245
Width: 1115
GlyphClass: 1
Flags: W
LayerCount: 2
Fore
SplineSet
547 -19 m 0,0,1
 401 -19 401 -19 302 40.5 c 128,-1,2
 203 100 203 100 153 208.5 c 128,-1,3
 103 317 103 317 103 464 c 2,4,-1
 103 587 l 1,5,-1
 807 587 l 1,6,7
 807 589 807 589 807 590 c 128,-1,8
 807 591 807 591 807 592 c 0,9,10
 805 696 805 696 770.5 776.5 c 128,-1,11
 736 857 736 857 672 903 c 128,-1,12
 608 949 608 949 516 949 c 0,13,14
 415 949 415 949 340 919.5 c 128,-1,15
 265 890 265 890 210 841 c 1,16,-1
 133 970 l 1,17,18
 191 1026 191 1026 286 1064.5 c 128,-1,19
 381 1103 381 1103 516 1103 c 0,20,21
 666 1103 666 1103 777 1034 c 128,-1,22
 888 965 888 965 948.5 843.5 c 128,-1,23
 1009 722 1009 722 1009 562 c 2,24,-1
 1009 518 l 2,25,26
 1009 364 1009 364 945.5 242.5 c 128,-1,27
 882 121 882 121 777 51 c 128,-1,28
 672 -19 672 -19 547 -19 c 0,0,1
547 135 m 0,29,30
 612 135 612 135 665.5 173 c 128,-1,31
 719 211 719 211 754.5 277 c 128,-1,32
 790 343 790 343 800 427 c 1,33,-1
 798 432 l 1,34,-1
 300 432 l 1,35,-1
 300 407 l 2,36,37
 300 329 300 329 327.5 267.5 c 128,-1,38
 355 206 355 206 410 170.5 c 128,-1,39
 465 135 465 135 547 135 c 0,29,30
EndSplineSet
EndChar

StartChar: f
Encoding: 102 102 246
Width: 725
GlyphClass: 2
Flags: W
AnchorPoint: "Anchor-2" 363 0 basechar 0
AnchorPoint: "Anchor-0" 483 1456 basechar 0
LayerCount: 2
Fore
SplineSet
70 0 m 1,0,-1
 70 126 l 1,1,-1
 233 154 l 1,2,-1
 233 936 l 1,3,-1
 64 936 l 1,4,-1
 64 1082 l 1,5,-1
 233 1082 l 1,6,-1
 233 1219 l 2,7,8
 233 1392 233 1392 323.5 1486.5 c 128,-1,9
 414 1581 414 1581 576 1581 c 0,10,11
 610 1581 610 1581 649.5 1575.5 c 128,-1,12
 689 1570 689 1570 731 1560 c 1,13,-1
 707 1410 l 1,14,15
 689 1414 689 1414 658.5 1417 c 128,-1,16
 628 1420 628 1420 601 1420 c 0,17,18
 514 1420 514 1420 472 1368.5 c 128,-1,19
 430 1317 430 1317 430 1219 c 2,20,-1
 430 1082 l 1,21,-1
 666 1082 l 1,22,-1
 666 936 l 1,23,-1
 430 936 l 1,24,-1
 430 154 l 1,25,-1
 616 126 l 1,26,-1
 616 0 l 1,27,-1
 70 0 l 1,0,-1
EndSplineSet
Substitution2: "'smcp' Lowercase to Small Capitals in Latin lookup 20 subtable" f.sc
Substitution2: "'aalt' Access All Alternates in Latin lookup 0 subtable" f.sc
EndChar

StartChar: g
Encoding: 103 103 247
Width: 1157
GlyphClass: 2
Flags: W
AnchorPoint: "Anchor-2" 555 -416 basechar 0
AnchorPoint: "Anchor-0" 585 1082 basechar 0
LayerCount: 2
Fore
SplineSet
549 -437 m 0,0,1
 471 -437 471 -437 380 -415.5 c 128,-1,2
 289 -394 289 -394 220 -357 c 1,3,-1
 271 -204 l 1,4,5
 326 -233 326 -233 401 -252 c 128,-1,6
 476 -271 476 -271 547 -271 c 0,7,8
 679 -271 679 -271 740.5 -197 c 128,-1,9
 802 -123 802 -123 802 14 c 2,10,-1
 802 117 l 1,11,12
 749 49 749 49 675 14 c 128,-1,13
 601 -21 601 -21 505 -21 c 0,14,15
 373 -21 373 -21 277 44.5 c 128,-1,16
 181 110 181 110 129.5 227.5 c 128,-1,17
 78 345 78 345 78 500 c 2,18,-1
 78 521 l 2,19,20
 78 695 78 695 129.5 826 c 128,-1,21
 181 957 181 957 277 1029.5 c 128,-1,22
 373 1102 373 1102 507 1102 c 0,23,24
 609 1102 609 1102 686 1062 c 128,-1,25
 763 1022 763 1022 815 946 c 1,26,-1
 833 1082 l 1,27,-1
 999 1082 l 1,28,-1
 999 14 l 2,29,30
 999 -126 999 -126 946.5 -227 c 128,-1,31
 894 -328 894 -328 793.5 -382.5 c 128,-1,32
 693 -437 693 -437 549 -437 c 0,0,1
554 139 m 0,33,34
 643 139 643 139 703 179.5 c 128,-1,35
 763 220 763 220 802 294 c 1,36,-1
 802 792 l 1,37,38
 764 861 764 861 703 901.5 c 128,-1,39
 642 942 642 942 556 942 c 0,40,41
 462 942 462 942 399.5 888 c 128,-1,42
 337 834 337 834 306 739.5 c 128,-1,43
 275 645 275 645 275 521 c 2,44,-1
 275 500 l 2,45,46
 275 337 275 337 344 238 c 128,-1,47
 413 139 413 139 554 139 c 0,33,34
969 921 m 1,48,-1
 892 1082 l 1,49,-1
 1133 1082 l 1,50,-1
 1133 956 l 1,51,-1
 969 921 l 1,48,-1
EndSplineSet
Substitution2: "'ss01' Style Set 1 in Latin lookup 23 subtable" g.ss01
Substitution2: "'smcp' Lowercase to Small Capitals in Latin lookup 20 subtable" g.sc
AlternateSubs2: "'aalt' Access All Alternates in Latin lookup 1 subtable" g.ss01 g.sc
EndChar

StartChar: h
Encoding: 104 104 252
Width: 1315
GlyphClass: 2
Flags: W
AnchorPoint: "Anchor-4" 351 1232 basechar 0
AnchorPoint: "Anchor-2" 658 0 basechar 0
AnchorPoint: "Anchor-0" 318 1456 basechar 0
LayerCount: 2
Fore
SplineSet
49 0 m 1,0,-1
 49 126 l 1,1,-1
 212 154 l 1,2,-1
 212 1405 l 1,3,-1
 49 1433 l 1,4,-1
 49 1560 l 1,5,-1
 409 1560 l 1,6,-1
 409 938 l 1,7,8
 465 1016 465 1016 546 1059 c 128,-1,9
 627 1102 627 1102 726 1102 c 0,10,11
 900 1102 900 1102 996 998 c 128,-1,12
 1092 894 1092 894 1092 678 c 2,13,-1
 1092 154 l 1,14,-1
 1255 126 l 1,15,-1
 1255 0 l 1,16,-1
 732 0 l 1,17,-1
 732 126 l 1,18,-1
 895 154 l 1,19,-1
 895 680 l 2,20,21
 895 814 895 814 837.5 878 c 128,-1,22
 780 942 780 942 666 942 c 0,23,24
 585 942 585 942 518.5 903.5 c 128,-1,25
 452 865 452 865 409 799 c 1,26,-1
 409 154 l 1,27,-1
 572 126 l 1,28,-1
 572 0 l 1,29,-1
 49 0 l 1,0,-1
EndSplineSet
Substitution2: "'smcp' Lowercase to Small Capitals in Latin lookup 20 subtable" h.sc
Substitution2: "'aalt' Access All Alternates in Latin lookup 0 subtable" h.sc
EndChar

StartChar: dotlessi
Encoding: 305 305 256
Width: 652
GlyphClass: 2
Flags: W
AnchorPoint: "Anchor-3" 590 0 basechar 0
AnchorPoint: "Anchor-2" 328 0 basechar 0
AnchorPoint: "Anchor-0" 324 1082 basechar 0
LayerCount: 2
Fore
SplineSet
67 0 m 1,0,-1
 67 126 l 1,1,-1
 230 154 l 1,2,-1
 230 927 l 1,3,-1
 67 955 l 1,4,-1
 67 1082 l 1,5,-1
 427 1082 l 1,6,-1
 427 154 l 1,7,-1
 590 126 l 1,8,-1
 590 0 l 1,9,-1
 67 0 l 1,0,-1
EndSplineSet
Substitution2: "'smcp' Lowercase to Small Capitals in Latin lookup 20 subtable" i.sc
Substitution2: "'aalt' Access All Alternates in Latin lookup 0 subtable" i.sc
EndChar

StartChar: uni0237
Encoding: 567 567 269
Width: 525
GlyphClass: 2
Flags: W
AnchorPoint: "Anchor-2" 238 -555 basechar 0
AnchorPoint: "Anchor-0" 278 1082 basechar 0
LayerCount: 2
Fore
SplineSet
56 -437 m 0,0,1
 24 -437 24 -437 -2 -432.5 c 128,-1,2
 -28 -428 -28 -428 -56 -419 c 1,3,-1
 -43 -269 l 1,4,5
 -29 -274 -29 -274 4.5 -278 c 128,-1,6
 38 -282 38 -282 56 -282 c 0,7,8
 115 -282 115 -282 149.5 -230.5 c 128,-1,9
 184 -179 184 -179 184 -89 c 2,10,-1
 184 927 l 1,11,-1
 21 955 l 1,12,-1
 21 1082 l 1,13,-1
 381 1082 l 1,14,-1
 381 -89 l 2,15,16
 381 -256 381 -256 295 -346.5 c 128,-1,17
 209 -437 209 -437 56 -437 c 0,0,1
EndSplineSet
Substitution2: "'smcp' Lowercase to Small Capitals in Latin lookup 20 subtable" j.sc
Substitution2: "'aalt' Access All Alternates in Latin lookup 0 subtable" j.sc
EndChar

StartChar: k
Encoding: 107 107 272
Width: 1287
GlyphClass: 2
Flags: W
AnchorPoint: "Anchor-2" 644 0 basechar 0
AnchorPoint: "Anchor-0" 327 1456 basechar 0
LayerCount: 2
Fore
SplineSet
64 0 m 1,0,-1
 64 126 l 1,1,-1
 227 154 l 1,2,-1
 227 1405 l 1,3,-1
 64 1433 l 1,4,-1
 64 1560 l 1,5,-1
 424 1560 l 1,6,-1
 424 154 l 1,7,-1
 587 126 l 1,8,-1
 587 0 l 1,9,-1
 64 0 l 1,0,-1
759 0 m 1,10,-1
 759 126 l 1,11,-1
 869 139 l 1,12,-1
 866 143 l 1,13,-1
 553 547 l 1,14,-1
 655 704 l 1,15,-1
 1092 150 l 1,16,-1
 1248 126 l 1,17,-1
 1248 0 l 1,18,-1
 759 0 l 1,10,-1
410 313 m 1,19,-1
 337 468 l 1,20,-1
 807 936 l 1,21,-1
 812 942 l 1,22,-1
 696 955 l 1,23,-1
 696 1082 l 1,24,-1
 1162 1082 l 1,25,-1
 1162 955 l 1,26,-1
 1023 929 l 1,27,-1
 410 313 l 1,19,-1
EndSplineSet
Substitution2: "'ss05' Style Set 5 in Latin lookup 27 subtable" k.ss05
Substitution2: "'smcp' Lowercase to Small Capitals in Latin lookup 20 subtable" k.sc
AlternateSubs2: "'aalt' Access All Alternates in Latin lookup 1 subtable" k.ss05 k.sc
EndChar

StartChar: kgreenlandic
Encoding: 312 312 274
Width: 1257
GlyphClass: 2
Flags: W
AnchorPoint: "Anchor-2" 639 0 basechar 0
AnchorPoint: "Anchor-0" 629 1082 basechar 0
LayerCount: 2
Fore
SplineSet
410 313 m 1,0,-1
 337 468 l 1,1,-1
 807 936 l 1,2,-1
 812 942 l 1,3,-1
 696 955 l 1,4,-1
 696 1082 l 1,5,-1
 1162 1082 l 1,6,-1
 1162 955 l 1,7,-1
 1023 929 l 1,8,-1
 410 313 l 1,0,-1
64 0 m 1,9,-1
 64 126 l 1,10,-1
 227 154 l 1,11,-1
 227 927 l 1,12,-1
 64 955 l 1,13,-1
 64 1082 l 1,14,-1
 424 1082 l 1,15,-1
 424 154 l 1,16,-1
 587 126 l 1,17,-1
 587 0 l 1,18,-1
 64 0 l 1,9,-1
949 0 m 1,19,-1
 551 547 l 1,20,-1
 655 704 l 1,21,-1
 1066 150 l 1,22,-1
 1186 126 l 1,23,-1
 1186 0 l 1,24,-1
 949 0 l 1,19,-1
EndSplineSet
Substitution2: "'ss05' Style Set 5 in Latin lookup 27 subtable" kgreenlandic.ss05
Substitution2: "'aalt' Access All Alternates in Latin lookup 0 subtable" kgreenlandic.ss05
EndChar

StartChar: l
Encoding: 108 108 275
Width: 653
GlyphClass: 2
Flags: W
AnchorPoint: "Anchor-4" 327 753 basechar 0
AnchorPoint: "Anchor-2" 327 0 basechar 0
AnchorPoint: "Anchor-1" 653 1560 basechar 0
AnchorPoint: "Anchor-0" 327 1456 basechar 0
LayerCount: 2
Fore
SplineSet
64 0 m 1,0,-1
 64 126 l 1,1,-1
 227 154 l 1,2,-1
 227 1405 l 1,3,-1
 64 1433 l 1,4,-1
 64 1560 l 1,5,-1
 424 1560 l 1,6,-1
 424 154 l 1,7,-1
 587 126 l 1,8,-1
 587 0 l 1,9,-1
 64 0 l 1,0,-1
EndSplineSet
Substitution2: "'smcp' Lowercase to Small Capitals in Latin lookup 20 subtable" l.sc
Substitution2: "'aalt' Access All Alternates in Latin lookup 0 subtable" l.sc
EndChar

StartChar: m
Encoding: 109 109 281
Width: 1977
GlyphClass: 2
Flags: W
AnchorPoint: "Anchor-2" 989 0 basechar 0
AnchorPoint: "Anchor-0" 989 1082 basechar 0
LayerCount: 2
Fore
SplineSet
74 0 m 1,0,-1
 74 126 l 1,1,-1
 237 154 l 1,2,-1
 237 927 l 1,3,-1
 74 955 l 1,4,-1
 74 1082 l 1,5,-1
 414 1082 l 1,6,-1
 427 941 l 1,7,8
 479 1018 479 1018 561 1060 c 128,-1,9
 643 1102 643 1102 751 1102 c 256,10,11
 859 1102 859 1102 936.5 1052 c 128,-1,12
 1014 1002 1014 1002 1053 902 c 1,13,14
 1104 994 1104 994 1188 1048 c 128,-1,15
 1272 1102 1272 1102 1384 1102 c 0,16,17
 1550 1102 1550 1102 1646 988.5 c 128,-1,18
 1742 875 1742 875 1742 647 c 2,19,-1
 1742 154 l 1,20,-1
 1905 126 l 1,21,-1
 1905 0 l 1,22,-1
 1381 0 l 1,23,-1
 1381 126 l 1,24,-1
 1544 154 l 1,25,-1
 1544 649 l 2,26,27
 1544 809 1544 809 1489 875.5 c 128,-1,28
 1434 942 1434 942 1326 942 c 0,29,30
 1223 942 1223 942 1160.5 869.5 c 128,-1,31
 1098 797 1098 797 1088 687 c 1,32,-1
 1088 154 l 1,33,-1
 1251 126 l 1,34,-1
 1251 0 l 1,35,-1
 728 0 l 1,36,-1
 728 126 l 1,37,-1
 891 154 l 1,38,-1
 891 649 l 2,39,40
 891 801 891 801 834.5 871.5 c 128,-1,41
 778 942 778 942 671 942 c 0,42,43
 581 942 581 942 523 905 c 128,-1,44
 465 868 465 868 434 801 c 1,45,-1
 434 154 l 1,46,-1
 597 126 l 1,47,-1
 597 0 l 1,48,-1
 74 0 l 1,0,-1
EndSplineSet
Substitution2: "'smcp' Lowercase to Small Capitals in Latin lookup 20 subtable" m.sc
Substitution2: "'aalt' Access All Alternates in Latin lookup 0 subtable" m.sc
EndChar

StartChar: n
Encoding: 110 110 283
Width: 1343
GlyphClass: 2
Flags: W
AnchorPoint: "Anchor-2" 675 0 basechar 0
AnchorPoint: "Anchor-0" 675 1082 basechar 0
LayerCount: 2
Fore
SplineSet
74 0 m 1,0,-1
 74 126 l 1,1,-1
 237 154 l 1,2,-1
 237 927 l 1,3,-1
 74 955 l 1,4,-1
 74 1082 l 1,5,-1
 413 1082 l 1,6,-1
 427 921 l 1,7,8
 481 1007 481 1007 562.5 1054.5 c 128,-1,9
 644 1102 644 1102 748 1102 c 0,10,11
 923 1102 923 1102 1019 999.5 c 128,-1,12
 1115 897 1115 897 1115 683 c 2,13,-1
 1115 154 l 1,14,-1
 1278 126 l 1,15,-1
 1278 0 l 1,16,-1
 755 0 l 1,17,-1
 755 126 l 1,18,-1
 918 154 l 1,19,-1
 918 679 l 2,20,21
 918 822 918 822 861.5 882 c 128,-1,22
 805 942 805 942 689 942 c 0,23,24
 604 942 604 942 538.5 901 c 128,-1,25
 473 860 473 860 434 789 c 1,26,-1
 434 154 l 1,27,-1
 597 126 l 1,28,-1
 597 0 l 1,29,-1
 74 0 l 1,0,-1
EndSplineSet
Substitution2: "'smcp' Lowercase to Small Capitals in Latin lookup 20 subtable" n.sc
Substitution2: "'aalt' Access All Alternates in Latin lookup 0 subtable" n.sc
EndChar

StartChar: eng
Encoding: 331 331 289
Width: 1263
GlyphClass: 1
Flags: W
LayerCount: 2
Fore
SplineSet
797 -437 m 0,0,1
 765 -437 765 -437 738.5 -432.5 c 128,-1,2
 712 -428 712 -428 684 -419 c 1,3,-1
 698 -259 l 1,4,5
 711 -264 711 -264 745 -267.5 c 128,-1,6
 779 -271 779 -271 797 -271 c 0,7,8
 858 -271 858 -271 892 -224 c 128,-1,9
 926 -177 926 -177 926 -89 c 2,10,-1
 926 679 l 2,11,12
 926 822 926 822 869 882 c 128,-1,13
 812 942 812 942 695 942 c 0,14,15
 610 942 610 942 549 909.5 c 128,-1,16
 488 877 488 877 450 818 c 1,17,-1
 450 154 l 1,18,-1
 613 126 l 1,19,-1
 613 0 l 1,20,-1
 90 0 l 1,21,-1
 90 126 l 1,22,-1
 253 154 l 1,23,-1
 253 927 l 1,24,-1
 90 955 l 1,25,-1
 90 1082 l 1,26,-1
 429 1082 l 1,27,-1
 442 933 l 1,28,29
 496 1013 496 1013 576 1057.5 c 128,-1,30
 656 1102 656 1102 756 1102 c 0,31,32
 930 1102 930 1102 1026.5 999.5 c 128,-1,33
 1123 897 1123 897 1123 683 c 2,34,-1
 1123 -89 l 2,35,36
 1123 -256 1123 -256 1036.5 -346.5 c 128,-1,37
 950 -437 950 -437 797 -437 c 0,0,1
EndSplineSet
Substitution2: "'smcp' Lowercase to Small Capitals in Latin lookup 20 subtable" eng.sc
Substitution2: "'aalt' Access All Alternates in Latin lookup 0 subtable" eng.sc
EndChar

StartChar: o
Encoding: 111 111 290
Width: 1124
GlyphClass: 2
Flags: W
AnchorPoint: "Anchor-4" 562 541 basechar 0
AnchorPoint: "Anchor-3" 809 0 basechar 0
AnchorPoint: "Anchor-2" 562 0 basechar 0
AnchorPoint: "Anchor-1" 1005 1082 basechar 0
AnchorPoint: "Anchor-0" 562 1082 basechar 0
LayerCount: 2
Fore
SplineSet
563 -21 m 0,0,1
 413 -21 413 -21 304.5 49.5 c 128,-1,2
 196 120 196 120 137 244.5 c 128,-1,3
 78 369 78 369 78 529 c 2,4,-1
 78 551 l 2,5,6
 78 711 78 711 137 835.5 c 128,-1,7
 196 960 196 960 304.5 1031 c 128,-1,8
 413 1102 413 1102 561 1102 c 0,9,10
 711 1102 711 1102 819.5 1031 c 128,-1,11
 928 960 928 960 987 836 c 128,-1,12
 1046 712 1046 712 1046 551 c 2,13,-1
 1046 529 l 2,14,15
 1046 368 1046 368 987 243.5 c 128,-1,16
 928 119 928 119 820 49 c 128,-1,17
 712 -21 712 -21 563 -21 c 0,0,1
563 133 m 0,18,19
 657 133 657 133 720.5 184.5 c 128,-1,20
 784 236 784 236 816.5 325.5 c 128,-1,21
 849 415 849 415 849 529 c 2,22,-1
 849 551 l 2,23,24
 849 665 849 665 816.5 754.5 c 128,-1,25
 784 844 784 844 720 895.5 c 128,-1,26
 656 947 656 947 561 947 c 0,27,28
 467 947 467 947 403 895.5 c 128,-1,29
 339 844 339 844 307 754.5 c 128,-1,30
 275 665 275 665 275 551 c 2,31,-1
 275 529 l 2,32,33
 275 415 275 415 307 325.5 c 128,-1,34
 339 236 339 236 403.5 184.5 c 128,-1,35
 468 133 468 133 563 133 c 0,18,19
EndSplineSet
Substitution2: "'smcp' Lowercase to Small Capitals in Latin lookup 20 subtable" o.sc
Substitution2: "Single Substitution lookup 17 subtable" ordmasculine
AlternateSubs2: "'aalt' Access All Alternates in Latin lookup 1 subtable" o.sc ordmasculine
EndChar

StartChar: oe
Encoding: 339 339 314
Width: 1845
GlyphClass: 2
Flags: W
AnchorPoint: "Anchor-2" 943 0 basechar 0
AnchorPoint: "Anchor-0" 953 1082 basechar 0
LayerCount: 2
Fore
SplineSet
562 -21 m 0,0,1
 413 -21 413 -21 304 49.5 c 128,-1,2
 195 120 195 120 136.5 244.5 c 128,-1,3
 78 369 78 369 78 529 c 2,4,-1
 78 551 l 2,5,6
 78 711 78 711 136.5 835.5 c 128,-1,7
 195 960 195 960 303.5 1031 c 128,-1,8
 412 1102 412 1102 560 1102 c 0,9,10
 690 1102 690 1102 790.5 1047 c 128,-1,11
 891 992 891 992 955 893 c 1,12,13
 1019 991 1019 991 1116.5 1046.5 c 128,-1,14
 1214 1102 1214 1102 1323 1102 c 0,15,16
 1469 1102 1469 1102 1567.5 1042 c 128,-1,17
 1666 982 1666 982 1716 873.5 c 128,-1,18
 1766 765 1766 765 1766 618 c 2,19,-1
 1766 495 l 1,20,-1
 1064 495 l 1,21,-1
 1061 490 l 1,22,23
 1063 386 1063 386 1097.5 305.5 c 128,-1,24
 1132 225 1132 225 1196.5 179 c 128,-1,25
 1261 133 1261 133 1353 133 c 0,26,27
 1420 133 1420 133 1475.5 146 c 128,-1,28
 1531 159 1531 159 1577 183 c 128,-1,29
 1623 207 1623 207 1659 240 c 1,30,-1
 1736 112 l 1,31,32
 1677 55 1677 55 1582.5 17 c 128,-1,33
 1488 -21 1488 -21 1353 -21 c 0,34,35
 1265 -21 1265 -21 1190 3 c 128,-1,36
 1115 27 1115 27 1055.5 72.5 c 128,-1,37
 996 118 996 118 953 182 c 1,38,39
 889 85 889 85 789.5 32 c 128,-1,40
 690 -21 690 -21 562 -21 c 0,0,1
562 133 m 0,41,42
 656 133 656 133 720 184.5 c 128,-1,43
 784 236 784 236 816.5 325.5 c 128,-1,44
 849 415 849 415 849 529 c 2,45,-1
 849 551 l 2,46,47
 849 665 849 665 816 754.5 c 128,-1,48
 783 844 783 844 719 895.5 c 128,-1,49
 655 947 655 947 560 947 c 0,50,51
 466 947 466 947 402.5 895.5 c 128,-1,52
 339 844 339 844 307 754.5 c 128,-1,53
 275 665 275 665 275 551 c 2,54,-1
 275 529 l 2,55,56
 275 415 275 415 307 325.5 c 128,-1,57
 339 236 339 236 403 184.5 c 128,-1,58
 467 133 467 133 562 133 c 0,41,42
1070 649 m 1,59,-1
 1569 649 l 1,60,-1
 1569 675 l 2,61,62
 1569 753 1569 753 1541.5 814.5 c 128,-1,63
 1514 876 1514 876 1459.5 911.5 c 128,-1,64
 1405 947 1405 947 1323 947 c 0,65,66
 1257 947 1257 947 1203 908.5 c 128,-1,67
 1149 870 1149 870 1114 804 c 128,-1,68
 1079 738 1079 738 1068 654 c 1,69,-1
 1070 649 l 1,59,-1
EndSplineSet
Substitution2: "'smcp' Lowercase to Small Capitals in Latin lookup 20 subtable" oe.sc
Substitution2: "'aalt' Access All Alternates in Latin lookup 0 subtable" oe.sc
EndChar

StartChar: p
Encoding: 112 112 315
Width: 1197
GlyphClass: 2
Flags: W
AnchorPoint: "Anchor-2" 597 0 basechar 0
AnchorPoint: "Anchor-0" 597 1082 basechar 0
LayerCount: 2
Fore
SplineSet
44 -416 m 1,0,-1
 44 -289 l 1,1,-1
 197 -261 l 1,2,-1
 197 927 l 1,3,-1
 34 955 l 1,4,-1
 34 1082 l 1,5,-1
 366 1082 l 1,6,-1
 384 950 l 1,7,8
 438 1024 438 1024 515.5 1063 c 128,-1,9
 593 1102 593 1102 695 1102 c 0,10,11
 829 1102 829 1102 924 1029.5 c 128,-1,12
 1019 957 1019 957 1069 826.5 c 128,-1,13
 1119 696 1119 696 1119 521 c 2,14,-1
 1119 500 l 2,15,16
 1119 344 1119 344 1068.5 227 c 128,-1,17
 1018 110 1018 110 924 44.5 c 128,-1,18
 830 -21 830 -21 698 -21 c 0,19,20
 598 -21 598 -21 522.5 12.5 c 128,-1,21
 447 46 447 46 394 112 c 1,22,-1
 394 -261 l 1,23,-1
 566 -289 l 1,24,-1
 566 -416 l 1,25,-1
 44 -416 l 1,0,-1
637 133 m 0,26,27
 777 133 777 133 849 235 c 128,-1,28
 921 337 921 337 921 500 c 2,29,-1
 921 521 l 2,30,31
 921 645 921 645 889 739.5 c 128,-1,32
 857 834 857 834 793.5 888 c 128,-1,33
 730 942 730 942 635 942 c 0,34,35
 551 942 551 942 491 904 c 128,-1,36
 431 866 431 866 394 800 c 1,37,-1
 394 273 l 1,38,39
 431 206 431 206 490.5 169.5 c 128,-1,40
 550 133 550 133 637 133 c 0,26,27
EndSplineSet
Substitution2: "'smcp' Lowercase to Small Capitals in Latin lookup 20 subtable" p.sc
Substitution2: "'aalt' Access All Alternates in Latin lookup 0 subtable" p.sc
EndChar

StartChar: thorn
Encoding: 254 254 316
Width: 1188
GlyphClass: 2
Flags: W
AnchorPoint: "Anchor-2" 299 -416 basechar 0
AnchorPoint: "Anchor-0" 300 1456 basechar 0
LayerCount: 2
Fore
SplineSet
25 -416 m 1,0,-1
 25 -289 l 1,1,-1
 188 -261 l 1,2,-1
 188 1405 l 1,3,-1
 25 1433 l 1,4,-1
 25 1560 l 1,5,-1
 385 1560 l 1,6,-1
 385 962 l 1,7,8
 438 1030 438 1030 513.5 1066 c 128,-1,9
 589 1102 589 1102 687 1102 c 0,10,11
 821 1102 821 1102 915.5 1029.5 c 128,-1,12
 1010 957 1010 957 1060 826.5 c 128,-1,13
 1110 696 1110 696 1110 521 c 2,14,-1
 1110 500 l 2,15,16
 1110 344 1110 344 1060 227 c 128,-1,17
 1010 110 1010 110 916 44.5 c 128,-1,18
 822 -21 822 -21 690 -21 c 0,19,20
 590 -21 590 -21 514 12.5 c 128,-1,21
 438 46 438 46 385 113 c 1,22,-1
 385 -261 l 1,23,-1
 548 -289 l 1,24,-1
 548 -416 l 1,25,-1
 25 -416 l 1,0,-1
629 133 m 0,26,27
 769 133 769 133 841 235 c 128,-1,28
 913 337 913 337 913 500 c 2,29,-1
 913 521 l 2,30,31
 913 645 913 645 881 739.5 c 128,-1,32
 849 834 849 834 785.5 888 c 128,-1,33
 722 942 722 942 627 942 c 0,34,35
 542 942 542 942 482 903.5 c 128,-1,36
 422 865 422 865 385 798 c 1,37,-1
 385 275 l 1,38,39
 422 208 422 208 482 170.5 c 128,-1,40
 542 133 542 133 629 133 c 0,26,27
EndSplineSet
Substitution2: "'smcp' Lowercase to Small Capitals in Latin lookup 20 subtable" thorn.sc
Substitution2: "'aalt' Access All Alternates in Latin lookup 0 subtable" thorn.sc
EndChar

StartChar: q
Encoding: 113 113 317
Width: 1139
GlyphClass: 2
Flags: W
AnchorPoint: "Anchor-2" 885 -416 basechar 0
AnchorPoint: "Anchor-0" 572 1082 basechar 0
LayerCount: 2
Fore
SplineSet
622 -416 m 1,0,-1
 622 -289 l 1,1,-1
 785 -261 l 1,2,-1
 785 102 l 1,3,4
 733 41 733 41 661.5 10 c 128,-1,5
 590 -21 590 -21 499 -21 c 0,6,7
 367 -21 367 -21 272.5 44.5 c 128,-1,8
 178 110 178 110 128 227 c 128,-1,9
 78 344 78 344 78 500 c 2,10,-1
 78 521 l 2,11,12
 78 695 78 695 128 826 c 128,-1,13
 178 957 178 957 273 1029.5 c 128,-1,14
 368 1102 368 1102 501 1102 c 0,15,16
 596 1102 596 1102 670 1066.5 c 128,-1,17
 744 1031 744 1031 796 963 c 1,18,-1
 812 1082 l 1,19,-1
 982 1082 l 1,20,-1
 982 -261 l 1,21,-1
 1135 -289 l 1,22,-1
 1135 -416 l 1,23,-1
 622 -416 l 1,0,-1
549 133 m 0,24,25
 631 133 631 133 688.5 169 c 128,-1,26
 746 205 746 205 785 271 c 1,27,-1
 785 814 l 1,28,29
 746 875 746 875 688 911 c 128,-1,30
 630 947 630 947 551 947 c 0,31,32
 457 947 457 947 396 892.5 c 128,-1,33
 335 838 335 838 305 742 c 128,-1,34
 275 646 275 646 275 521 c 2,35,-1
 275 500 l 2,36,37
 275 336 275 336 342 234.5 c 128,-1,38
 409 133 409 133 549 133 c 0,24,25
EndSplineSet
Substitution2: "'smcp' Lowercase to Small Capitals in Latin lookup 20 subtable" q.sc
Substitution2: "'aalt' Access All Alternates in Latin lookup 0 subtable" q.sc
EndChar

StartChar: r
Encoding: 114 114 318
Width: 854
GlyphClass: 2
Flags: W
AnchorPoint: "Anchor-2" 341 0 basechar 0
AnchorPoint: "Anchor-0" 451 1082 basechar 0
LayerCount: 2
Fore
SplineSet
72 0 m 1,0,-1
 72 126 l 1,1,-1
 235 154 l 1,2,-1
 235 927 l 1,3,-1
 72 955 l 1,4,-1
 72 1082 l 1,5,-1
 411 1082 l 1,6,-1
 428 944 l 1,7,-1
 430 925 l 1,8,9
 476 1008 476 1008 543.5 1055 c 128,-1,10
 611 1102 611 1102 698 1102 c 0,11,12
 729 1102 729 1102 761.5 1096.5 c 128,-1,13
 794 1091 794 1091 808 1086 c 1,14,-1
 782 903 l 1,15,-1
 645 911 l 2,16,17
 567 916 567 916 514 875.5 c 128,-1,18
 461 835 461 835 432 767 c 1,19,-1
 432 154 l 1,20,-1
 595 126 l 1,21,-1
 595 0 l 1,22,-1
 72 0 l 1,0,-1
EndSplineSet
Substitution2: "'smcp' Lowercase to Small Capitals in Latin lookup 20 subtable" r.sc
Substitution2: "'aalt' Access All Alternates in Latin lookup 0 subtable" r.sc
EndChar

StartChar: s
Encoding: 115 115 322
Width: 1022
GlyphClass: 2
Flags: W
AnchorPoint: "Anchor-2" 511 0 basechar 0
AnchorPoint: "Anchor-0" 511 1082 basechar 0
LayerCount: 2
Fore
SplineSet
512 -21 m 0,0,1
 403 -21 403 -21 308 1 c 128,-1,2
 213 23 213 23 106 69 c 1,3,-1
 104 326 l 1,4,-1
 253 326 l 1,5,-1
 290 171 l 1,6,7
 346 148 346 148 398.5 137.5 c 128,-1,8
 451 127 451 127 512 127 c 0,9,10
 632 127 632 127 684 173 c 128,-1,11
 736 219 736 219 736 287 c 0,12,13
 736 351 736 351 683.5 395.5 c 128,-1,14
 631 440 631 440 493 471 c 0,15,16
 297 516 297 516 204.5 591.5 c 128,-1,17
 112 667 112 667 112 793 c 0,18,19
 112 881 112 881 163 950.5 c 128,-1,20
 214 1020 214 1020 305 1061 c 128,-1,21
 396 1102 396 1102 517 1102 c 0,22,23
 640 1102 640 1102 727.5 1074 c 128,-1,24
 815 1046 815 1046 880 999 c 1,25,-1
 890 752 l 1,26,-1
 742 752 l 1,27,-1
 710 896 l 1,28,29
 675 922 675 922 627 936 c 128,-1,30
 579 950 579 950 517 950 c 0,31,32
 425 950 425 950 367.5 907 c 128,-1,33
 310 864 310 864 310 799 c 0,34,35
 310 761 310 761 326.5 733 c 128,-1,36
 343 705 343 705 390 682.5 c 128,-1,37
 437 660 437 660 528 638 c 0,38,39
 754 585 754 585 843.5 503 c 128,-1,40
 933 421 933 421 933 301 c 0,41,42
 933 164 933 164 831.5 71.5 c 128,-1,43
 730 -21 730 -21 512 -21 c 0,0,1
EndSplineSet
Substitution2: "'ss03' Style Set 3 in Latin lookup 25 subtable" s.ss03
Substitution2: "'smcp' Lowercase to Small Capitals in Latin lookup 20 subtable" s.sc
AlternateSubs2: "'aalt' Access All Alternates in Latin lookup 1 subtable" s.ss03 s.sc
EndChar

StartChar: germandbls
Encoding: 223 223 328
Width: 1288
GlyphClass: 2
Flags: W
AnchorPoint: "Anchor-2" 644 0 basechar 0
AnchorPoint: "Anchor-0" 644 1456 basechar 0
LayerCount: 2
Fore
SplineSet
830 -21 m 0,0,1
 774 -21 774 -21 714.5 -11.5 c 128,-1,2
 655 -2 655 -2 606 14 c 128,-1,3
 557 30 557 30 532 50 c 1,4,-1
 575 209 l 1,5,6
 617 181 617 181 683 157 c 128,-1,7
 749 133 749 133 809 133 c 0,8,9
 918 133 918 133 968.5 180 c 128,-1,10
 1019 227 1019 227 1019 306 c 0,11,12
 1019 361 1019 361 984 412.5 c 128,-1,13
 949 464 949 464 897.5 513.5 c 128,-1,14
 846 563 846 563 794.5 614 c 128,-1,15
 743 665 743 665 708 719.5 c 128,-1,16
 673 774 673 774 673 836 c 0,17,18
 673 885 673 885 694 933.5 c 128,-1,19
 715 982 715 982 743 1032.5 c 128,-1,20
 771 1083 771 1083 792 1137 c 128,-1,21
 813 1191 813 1191 813 1249 c 0,22,23
 813 1329 813 1329 764 1378 c 128,-1,24
 715 1427 715 1427 638 1427 c 0,25,26
 537 1427 537 1427 475.5 1347.5 c 128,-1,27
 414 1268 414 1268 414 1122 c 2,28,-1
 414 0 l 1,29,-1
 55 0 l 1,30,-1
 55 126 l 1,31,-1
 218 154 l 1,32,-1
 218 1122 l 2,33,34
 218 1267 218 1267 270.5 1369.5 c 128,-1,35
 323 1472 323 1472 415.5 1526.5 c 128,-1,36
 508 1581 508 1581 629 1581 c 0,37,38
 738 1581 738 1581 821 1543 c 128,-1,39
 904 1505 904 1505 951 1431 c 128,-1,40
 998 1357 998 1357 998 1248 c 0,41,42
 998 1170 998 1170 978 1109.5 c 128,-1,43
 958 1049 958 1049 932.5 1001 c 128,-1,44
 907 953 907 953 887 913.5 c 128,-1,45
 867 874 867 874 867 839 c 0,46,47
 867 799 867 799 902 758 c 128,-1,48
 937 717 937 717 989.5 671.5 c 128,-1,49
 1042 626 1042 626 1094 572 c 128,-1,50
 1146 518 1146 518 1181 452.5 c 128,-1,51
 1216 387 1216 387 1216 306 c 0,52,53
 1216 200 1216 200 1169 127 c 128,-1,54
 1122 54 1122 54 1035.5 16.5 c 128,-1,55
 949 -21 949 -21 830 -21 c 0,0,1
EndSplineSet
Substitution2: "'smcp' Lowercase to Small Capitals in Latin lookup 20 subtable" germandbls.sc
Substitution2: "'aalt' Access All Alternates in Latin lookup 0 subtable" germandbls.sc
EndChar

StartChar: longs
Encoding: 383 383 329
Width: 734
GlyphClass: 2
Flags: W
AnchorPoint: "Anchor-2" 329 0 basechar 0
AnchorPoint: "Anchor-0" 507 1456 basechar 0
LayerCount: 2
Fore
SplineSet
57 0 m 1,0,-1
 57 126 l 1,1,-1
 220 154 l 1,2,-1
 220 1219 l 2,3,4
 220 1392 220 1392 310.5 1486.5 c 128,-1,5
 401 1581 401 1581 563 1581 c 0,6,7
 597 1581 597 1581 631.5 1575.5 c 128,-1,8
 666 1570 666 1570 708 1560 c 1,9,-1
 683 1415 l 1,10,11
 664 1420 664 1420 642 1423 c 128,-1,12
 620 1426 620 1426 595 1426 c 0,13,14
 508 1426 508 1426 462.5 1371.5 c 128,-1,15
 417 1317 417 1317 417 1219 c 2,16,-1
 417 154 l 1,17,-1
 580 126 l 1,18,-1
 580 0 l 1,19,-1
 57 0 l 1,0,-1
EndSplineSet
EndChar

StartChar: t
Encoding: 116 116 330
Width: 730
GlyphClass: 2
Flags: W
AnchorPoint: "Anchor-4" 325 667 basechar 0
AnchorPoint: "Anchor-2" 412 0 basechar 0
AnchorPoint: "Anchor-1" 653 1560 basechar 0
AnchorPoint: "Anchor-0" 305 1273 basechar 0
LayerCount: 2
Fore
SplineSet
456 -17 m 0,0,1
 336 -17 336 -17 265.5 53.5 c 128,-1,2
 195 124 195 124 195 279 c 2,3,-1
 195 936 l 1,4,-1
 24 936 l 1,5,-1
 24 1082 l 1,6,-1
 195 1082 l 1,7,-1
 195 1343 l 1,8,-1
 392 1343 l 1,9,-1
 392 1082 l 1,10,-1
 627 1082 l 1,11,-1
 627 936 l 1,12,-1
 392 936 l 1,13,-1
 392 279 l 2,14,15
 392 201 392 201 423 164 c 128,-1,16
 454 127 454 127 506 127 c 0,17,18
 541 127 541 127 584 133.5 c 128,-1,19
 627 140 627 140 651 145 c 1,20,-1
 678 16 l 1,21,22
 635 3 635 3 572.5 -7 c 128,-1,23
 510 -17 510 -17 456 -17 c 0,0,1
EndSplineSet
Substitution2: "'smcp' Lowercase to Small Capitals in Latin lookup 20 subtable" t.sc
Substitution2: "'aalt' Access All Alternates in Latin lookup 0 subtable" t.sc
EndChar

StartChar: u
Encoding: 117 117 335
Width: 1245
GlyphClass: 2
Flags: W
AnchorPoint: "Anchor-3" 1181 0 basechar 0
AnchorPoint: "Anchor-2" 623 0 basechar 0
AnchorPoint: "Anchor-1" 1193 1082 basechar 0
AnchorPoint: "Anchor-0" 606 1082 basechar 0
LayerCount: 2
Fore
SplineSet
550 -21 m 0,0,1
 374 -21 374 -21 275 92 c 128,-1,2
 176 205 176 205 176 444 c 2,3,-1
 176 927 l 1,4,-1
 52 955 l 1,5,-1
 52 1082 l 1,6,-1
 176 1082 l 1,7,-1
 373 1082 l 1,8,-1
 373 442 l 2,9,10
 373 269 373 269 424 204 c 128,-1,11
 475 139 475 139 583 139 c 0,12,13
 688 139 688 139 756.5 181.5 c 128,-1,14
 825 224 825 224 860 302 c 1,15,-1
 860 927 l 1,16,-1
 715 955 l 1,17,-1
 715 1082 l 1,18,-1
 860 1082 l 1,19,-1
 1057 1082 l 1,20,-1
 1057 154 l 1,21,-1
 1181 126 l 1,22,-1
 1181 0 l 1,23,-1
 880 0 l 1,24,-1
 867 160 l 1,25,26
 816 73 816 73 735.5 26 c 128,-1,27
 655 -21 655 -21 550 -21 c 0,0,1
EndSplineSet
Substitution2: "'smcp' Lowercase to Small Capitals in Latin lookup 20 subtable" u.sc
Substitution2: "'aalt' Access All Alternates in Latin lookup 0 subtable" u.sc
EndChar

StartChar: v
Encoding: 118 118 354
Width: 1206
GlyphClass: 2
Flags: W
AnchorPoint: "Anchor-2" 603 0 basechar 0
AnchorPoint: "Anchor-0" 603 1082 basechar 0
LayerCount: 2
Fore
SplineSet
523 0 m 1,0,-1
 138 940 l 1,1,-1
 26 955 l 1,2,-1
 26 1082 l 1,3,-1
 480 1082 l 1,4,-1
 480 955 l 1,5,-1
 339 935 l 1,6,-1
 579 319 l 1,7,-1
 607 232 l 1,8,-1
 613 232 l 1,9,-1
 645 319 l 1,10,-1
 868 935 l 1,11,-1
 723 955 l 1,12,-1
 723 1082 l 1,13,-1
 1176 1082 l 1,14,-1
 1176 955 l 1,15,-1
 1062 940 l 1,16,-1
 696 0 l 1,17,-1
 523 0 l 1,0,-1
EndSplineSet
Substitution2: "'smcp' Lowercase to Small Capitals in Latin lookup 20 subtable" v.sc
Substitution2: "'aalt' Access All Alternates in Latin lookup 0 subtable" v.sc
EndChar

StartChar: w
Encoding: 119 119 355
Width: 1823
GlyphClass: 2
Flags: W
AnchorPoint: "Anchor-2" 912 0 basechar 0
AnchorPoint: "Anchor-0" 912 1082 basechar 0
LayerCount: 2
Fore
SplineSet
458 0 m 1,0,-1
 173 941 l 1,1,-1
 52 955 l 1,2,-1
 52 1082 l 1,3,-1
 499 1082 l 1,4,-1
 499 955 l 1,5,-1
 366 933 l 1,6,-1
 515 394 l 1,7,-1
 549 266 l 1,8,-1
 555 266 l 1,9,-1
 599 394 l 1,10,-1
 834 1082 l 1,11,-1
 1000 1082 l 1,12,-1
 1224 396 l 1,13,-1
 1272 244 l 1,14,-1
 1278 244 l 1,15,-1
 1325 396 l 1,16,-1
 1476 934 l 1,17,-1
 1340 955 l 1,18,-1
 1340 1082 l 1,19,-1
 1777 1082 l 1,20,-1
 1777 955 l 1,21,-1
 1657 938 l 1,22,-1
 1377 0 l 1,23,-1
 1190 0 l 1,24,-1
 971 650 l 1,25,-1
 919 824 l 1,26,-1
 913 823 l 1,27,-1
 862 650 l 1,28,-1
 627 0 l 1,29,-1
 458 0 l 1,0,-1
EndSplineSet
Substitution2: "'smcp' Lowercase to Small Capitals in Latin lookup 20 subtable" w.sc
Substitution2: "'aalt' Access All Alternates in Latin lookup 0 subtable" w.sc
EndChar

StartChar: x
Encoding: 120 120 360
Width: 1203
GlyphClass: 2
Flags: W
AnchorPoint: "Anchor-2" 602 0 basechar 0
AnchorPoint: "Anchor-0" 602 1082 basechar 0
LayerCount: 2
Fore
SplineSet
42 0 m 1,0,-1
 42 126 l 1,1,-1
 162 149 l 1,2,-1
 485 547 l 1,3,-1
 169 932 l 1,4,-1
 62 955 l 1,5,-1
 62 1082 l 1,6,-1
 486 1082 l 1,7,-1
 486 955 l 1,8,-1
 378 943 l 1,9,-1
 600 667 l 1,10,-1
 816 944 l 1,11,-1
 700 955 l 1,12,-1
 700 1082 l 1,13,-1
 1117 1082 l 1,14,-1
 1117 955 l 1,15,-1
 1007 932 l 1,16,-1
 714 550 l 1,17,-1
 1051 149 l 1,18,-1
 1163 126 l 1,19,-1
 1163 0 l 1,20,-1
 704 0 l 1,21,-1
 704 126 l 1,22,-1
 834 137 l 1,23,-1
 597 426 l 1,24,-1
 367 137 l 1,25,-1
 484 126 l 1,26,-1
 484 0 l 1,27,-1
 42 0 l 1,0,-1
EndSplineSet
Substitution2: "'smcp' Lowercase to Small Capitals in Latin lookup 20 subtable" x.sc
Substitution2: "'aalt' Access All Alternates in Latin lookup 0 subtable" x.sc
EndChar

StartChar: y
Encoding: 121 121 361
Width: 1192
GlyphClass: 2
Flags: W
AnchorPoint: "Anchor-2" 860 0 basechar 0
AnchorPoint: "Anchor-0" 596 1082 basechar 0
LayerCount: 2
Fore
SplineSet
309 -437 m 0,0,1
 286 -437 286 -437 249 -431.5 c 128,-1,2
 212 -426 212 -426 192 -421 c 1,3,-1
 212 -266 l 1,4,5
 229 -268 229 -268 259 -269.5 c 128,-1,6
 289 -271 289 -271 300 -271 c 0,7,8
 363 -271 363 -271 402.5 -223 c 128,-1,9
 442 -175 442 -175 476 -92 c 2,10,-1
 523 22 l 1,11,-1
 140 939 l 1,12,-1
 24 955 l 1,13,-1
 24 1082 l 1,14,-1
 478 1082 l 1,15,-1
 478 955 l 1,16,-1
 347 935 l 1,17,-1
 558 394 l 1,18,-1
 609 253 l 1,19,-1
 615 253 l 1,20,-1
 865 935 l 1,21,-1
 727 955 l 1,22,-1
 727 1082 l 1,23,-1
 1172 1082 l 1,24,-1
 1172 955 l 1,25,-1
 1060 939 l 1,26,-1
 634 -166 l 2,27,28
 604 -244 604 -244 561.5 -305.5 c 128,-1,29
 519 -367 519 -367 457.5 -402 c 128,-1,30
 396 -437 396 -437 309 -437 c 0,0,1
EndSplineSet
Substitution2: "'smcp' Lowercase to Small Capitals in Latin lookup 20 subtable" y.sc
Substitution2: "'aalt' Access All Alternates in Latin lookup 0 subtable" y.sc
EndChar

StartChar: z
Encoding: 122 122 369
Width: 1032
GlyphClass: 2
Flags: W
AnchorPoint: "Anchor-2" 516 0 basechar 0
AnchorPoint: "Anchor-0" 516 1082 basechar 0
LayerCount: 2
Fore
SplineSet
88 0 m 1,0,-1
 88 138 l 1,1,-1
 677 930 l 1,2,-1
 274 930 l 1,3,-1
 249 748 l 1,4,-1
 101 748 l 1,5,-1
 101 1082 l 1,6,-1
 921 1082 l 1,7,-1
 921 948 l 1,8,-1
 326 150 l 1,9,-1
 787 150 l 1,10,-1
 813 333 l 1,11,-1
 960 333 l 1,12,-1
 960 0 l 1,13,-1
 88 0 l 1,0,-1
EndSplineSet
Substitution2: "'smcp' Lowercase to Small Capitals in Latin lookup 20 subtable" z.sc
Substitution2: "'aalt' Access All Alternates in Latin lookup 0 subtable" z.sc
EndChar

StartChar: g.ss01
Encoding: 65548 -1 373
Width: 1082
GlyphClass: 2
Flags: W
AnchorPoint: "Anchor-2" 509 -416 basechar 0
AnchorPoint: "Anchor-0" 541 1082 basechar 0
LayerCount: 2
Fore
SplineSet
494 -438 m 0,0,1
 274 -438 274 -438 149.5 -357.5 c 128,-1,2
 25 -277 25 -277 25 -161 c 0,3,4
 25 -71 25 -71 73.5 -5.5 c 128,-1,5
 122 60 122 60 200 100 c 1,6,7
 172 122 172 122 158 152 c 128,-1,8
 144 182 144 182 144 221 c 0,9,10
 144 292 144 292 176.5 341.5 c 128,-1,11
 209 391 209 391 262 429 c 1,12,13
 179 478 179 478 133.5 555 c 128,-1,14
 88 632 88 632 88 721 c 2,15,-1
 88 743 l 2,16,17
 88 847 88 847 143 928 c 128,-1,18
 198 1009 198 1009 295.5 1055.5 c 128,-1,19
 393 1102 393 1102 520 1102 c 0,20,21
 560 1102 560 1102 598.5 1096.5 c 128,-1,22
 637 1091 637 1091 673 1082 c 1,23,-1
 1044 1082 l 1,24,-1
 1044 933 l 1,25,-1
 895 933 l 1,26,27
 923 891 923 891 938 843 c 128,-1,28
 953 795 953 795 953 743 c 2,29,-1
 953 721 l 2,30,31
 953 621 953 621 897.5 539.5 c 128,-1,32
 842 458 842 458 745 410 c 128,-1,33
 648 362 648 362 522 362 c 0,34,35
 481 362 481 362 443 367 c 128,-1,36
 405 372 405 372 370 382 c 1,37,38
 347 363 347 363 334 337.5 c 128,-1,39
 321 312 321 312 321 278 c 0,40,41
 321 234 321 234 355 215 c 128,-1,42
 389 196 389 196 448 196 c 2,43,-1
 619 196 l 2,44,45
 819 196 819 196 926.5 123 c 128,-1,46
 1034 50 1034 50 1034 -97 c 0,47,48
 1034 -181 1034 -181 966 -259 c 128,-1,49
 898 -337 898 -337 776.5 -387.5 c 128,-1,50
 655 -438 655 -438 494 -438 c 0,0,1
494 -284 m 0,51,52
 596 -284 596 -284 673 -256 c 128,-1,53
 750 -228 750 -228 793 -185 c 128,-1,54
 836 -142 836 -142 836 -97 c 0,55,56
 836 -26 836 -26 787.5 8 c 128,-1,57
 739 42 739 42 619 42 c 2,58,-1
 409 42 l 2,59,60
 385 42 385 42 365.5 43 c 128,-1,61
 346 44 346 44 328 48 c 1,62,63
 297 33 297 33 273 7.5 c 128,-1,64
 249 -18 249 -18 235.5 -51 c 128,-1,65
 222 -84 222 -84 222 -123 c 0,66,67
 222 -192 222 -192 291 -238 c 128,-1,68
 360 -284 360 -284 494 -284 c 0,51,52
522 516 m 0,69,70
 590 516 590 516 642.5 545 c 128,-1,71
 695 574 695 574 725.5 620.5 c 128,-1,72
 756 667 756 667 756 721 c 2,73,-1
 756 743 l 2,74,75
 756 799 756 799 725.5 845.5 c 128,-1,76
 695 892 695 892 642 919.5 c 128,-1,77
 589 947 589 947 520 947 c 0,78,79
 452 947 452 947 398.5 919.5 c 128,-1,80
 345 892 345 892 315 845.5 c 128,-1,81
 285 799 285 799 285 743 c 2,82,-1
 285 721 l 2,83,84
 285 667 285 667 315.5 620.5 c 128,-1,85
 346 574 346 574 399.5 545 c 128,-1,86
 453 516 453 516 522 516 c 0,69,70
EndSplineSet
EndChar

StartChar: a.ss03
Encoding: 65549 -1 374
Width: 1128
GlyphClass: 1
Flags: W
LayerCount: 2
Fore
SplineSet
449 -21 m 0,0,1
 281 -21 281 -21 192.5 65.5 c 128,-1,2
 104 152 104 152 104 304 c 0,3,4
 104 408 104 408 160.5 481.5 c 128,-1,5
 217 555 217 555 322 594.5 c 128,-1,6
 427 634 427 634 570 634 c 2,7,-1
 773 634 l 1,8,-1
 773 741 l 2,9,10
 773 836 773 836 713 891.5 c 128,-1,11
 653 947 653 947 546 947 c 0,12,13
 481 947 481 947 430.5 924.5 c 128,-1,14
 380 902 380 902 351.5 864.5 c 128,-1,15
 323 827 323 827 323 782 c 1,16,-1
 136 782 l 1,17,-1
 134 788 l 1,18,19
 130 867 130 867 183.5 938.5 c 128,-1,20
 237 1010 237 1010 334.5 1056 c 128,-1,21
 432 1102 432 1102 558 1102 c 0,22,23
 742 1102 742 1102 856 1008 c 128,-1,24
 970 914 970 914 970 739 c 2,25,-1
 970 218 l 2,26,27
 970 197 970 197 970.5 177 c 128,-1,28
 971 157 971 157 973 137 c 1,29,-1
 1053 126 l 1,30,-1
 1053 0 l 1,31,-1
 795 0 l 1,32,33
 786 44 786 44 781 79 c 128,-1,34
 776 114 776 114 774 149 c 1,35,36
 717 76 717 76 631.5 27.5 c 128,-1,37
 546 -21 546 -21 449 -21 c 0,0,1
478 144 m 0,38,39
 576 144 576 144 657 191 c 128,-1,40
 738 238 738 238 773 304 c 1,41,-1
 773 501 l 1,42,-1
 563 501 l 2,43,44
 443 501 443 501 372 441 c 128,-1,45
 301 381 301 381 301 300 c 0,46,47
 301 228 301 228 345.5 186 c 128,-1,48
 390 144 390 144 478 144 c 0,38,39
EndSplineSet
EndChar

StartChar: ae.ss03
Encoding: 65550 -1 375
Width: 1795
GlyphClass: 2
Flags: W
AnchorPoint: "Anchor-2" 933 0 basechar 0
AnchorPoint: "Anchor-0" 933 1082 basechar 0
LayerCount: 2
Fore
SplineSet
452 -21 m 0,0,1
 282 -21 282 -21 189.5 66 c 128,-1,2
 97 153 97 153 97 304 c 0,3,4
 97 462 97 462 211.5 548.5 c 128,-1,5
 326 635 326 635 546 635 c 2,6,-1
 775 635 l 1,7,-1
 775 720 l 2,8,9
 775 826 775 826 723.5 886.5 c 128,-1,10
 672 947 672 947 574 947 c 0,11,12
 471 947 471 947 410 892 c 128,-1,13
 349 837 349 837 349 759 c 1,14,-1
 161 777 l 1,15,-1
 159 783 l 1,16,17
 156 875 156 875 207 947 c 128,-1,18
 258 1019 258 1019 353 1060.5 c 128,-1,19
 448 1102 448 1102 574 1102 c 0,20,21
 689 1102 689 1102 776 1061.5 c 128,-1,22
 863 1021 863 1021 913 944 c 1,23,24
 977 1019 977 1019 1064.5 1060.5 c 128,-1,25
 1152 1102 1152 1102 1254 1102 c 0,26,27
 1397 1102 1397 1102 1496 1043.5 c 128,-1,28
 1595 985 1595 985 1647 875.5 c 128,-1,29
 1699 766 1699 766 1699 614 c 2,30,-1
 1699 495 l 1,31,-1
 989 495 l 1,32,-1
 987 490 l 1,33,34
 988 331 988 331 1066.5 232 c 128,-1,35
 1145 133 1145 133 1300 133 c 0,36,37
 1404 133 1404 133 1470 160.5 c 128,-1,38
 1536 188 1536 188 1614 239 c 1,39,-1
 1682 101 l 1,40,41
 1627 56 1627 56 1533 17.5 c 128,-1,42
 1439 -21 1439 -21 1300 -21 c 0,43,44
 1165 -21 1165 -21 1061 27.5 c 128,-1,45
 957 76 957 76 891 165 c 1,46,47
 835 86 835 86 723 32.5 c 128,-1,48
 611 -21 611 -21 452 -21 c 0,0,1
491 133 m 0,49,50
 542 133 542 133 596.5 153 c 128,-1,51
 651 173 651 173 699 205.5 c 128,-1,52
 747 238 747 238 775 276 c 1,53,-1
 775 493 l 1,54,-1
 548 493 l 2,55,56
 428 493 428 493 361 437 c 128,-1,57
 294 381 294 381 294 300 c 0,58,59
 294 226 294 226 344 179.5 c 128,-1,60
 394 133 394 133 491 133 c 0,49,50
993 640 m 1,61,-1
 1502 640 l 1,62,-1
 1502 671 l 2,63,64
 1502 793 1502 793 1442 870 c 128,-1,65
 1382 947 1382 947 1254 947 c 0,66,67
 1178 947 1178 947 1121.5 908.5 c 128,-1,68
 1065 870 1065 870 1032 802 c 128,-1,69
 999 734 999 734 991 645 c 1,70,-1
 993 640 l 1,61,-1
EndSplineSet
EndChar

StartChar: c.ss03
Encoding: 65551 -1 376
Width: 1118
GlyphClass: 1
Flags: W
LayerCount: 2
Fore
SplineSet
589 -21 m 0,0,1
 432 -21 432 -21 323.5 49.5 c 128,-1,2
 215 120 215 120 159.5 242.5 c 128,-1,3
 104 365 104 365 104 520 c 2,4,-1
 104 562 l 2,5,6
 104 716 104 716 160 838 c 128,-1,7
 216 960 216 960 324.5 1031 c 128,-1,8
 433 1102 433 1102 589 1102 c 0,9,10
 716 1102 716 1102 813 1050.5 c 128,-1,11
 910 999 910 999 964.5 911.5 c 128,-1,12
 1019 824 1019 824 1016 715 c 1,13,-1
 1014 709 l 1,14,-1
 836 709 l 1,15,16
 836 775 836 775 804 829 c 128,-1,17
 772 883 772 883 716.5 915 c 128,-1,18
 661 947 661 947 589 947 c 0,19,20
 486 947 486 947 422.5 896 c 128,-1,21
 359 845 359 845 330 757.5 c 128,-1,22
 301 670 301 670 301 562 c 2,23,-1
 301 520 l 2,24,25
 301 410 301 410 329.5 322 c 128,-1,26
 358 234 358 234 421.5 183.5 c 128,-1,27
 485 133 485 133 589 133 c 0,28,29
 655 133 655 133 711 161 c 128,-1,30
 767 189 767 189 801.5 236.5 c 128,-1,31
 836 284 836 284 836 342 c 1,32,-1
 1013 342 l 1,33,-1
 1015 336 l 1,34,35
 1019 243 1019 243 959.5 161.5 c 128,-1,36
 900 80 900 80 802 29.5 c 128,-1,37
 704 -21 704 -21 589 -21 c 0,0,1
EndSplineSet
EndChar

StartChar: s.ss03
Encoding: 65552 -1 377
Width: 1044
GlyphClass: 1
Flags: W
LayerCount: 2
Fore
SplineSet
528 -21 m 0,0,1
 390 -21 390 -21 290 27.5 c 128,-1,2
 190 76 190 76 137.5 156 c 128,-1,3
 85 236 85 236 89 329 c 1,4,-1
 91 335 l 1,5,-1
 279 335 l 1,6,7
 283 265 283 265 317.5 220.5 c 128,-1,8
 352 176 352 176 407.5 154.5 c 128,-1,9
 463 133 463 133 528 133 c 0,10,11
 633 133 633 133 692.5 175.5 c 128,-1,12
 752 218 752 218 752 287 c 0,13,14
 752 352 752 352 702.5 394 c 128,-1,15
 653 436 653 436 515 467 c 0,16,17
 318 510 318 510 218 584 c 128,-1,18
 118 658 118 658 118 784 c 0,19,20
 118 872 118 872 169.5 944 c 128,-1,21
 221 1016 221 1016 312 1059 c 128,-1,22
 403 1102 403 1102 523 1102 c 0,23,24
 649 1102 649 1102 741.5 1057.5 c 128,-1,25
 834 1013 834 1013 884 937.5 c 128,-1,26
 934 862 934 862 930 769 c 1,27,-1
 928 763 l 1,28,-1
 740 763 l 1,29,30
 740 834 740 834 680.5 890.5 c 128,-1,31
 621 947 621 947 523 947 c 0,32,33
 418 947 418 947 367 901 c 128,-1,34
 316 855 316 855 316 790 c 0,35,36
 316 748 316 748 334.5 717.5 c 128,-1,37
 353 687 353 687 402.5 665 c 128,-1,38
 452 643 452 643 544 623 c 0,39,40
 749 579 749 579 849 503.5 c 128,-1,41
 949 428 949 428 949 301 c 0,42,43
 949 205 949 205 896 132.5 c 128,-1,44
 843 60 843 60 748.5 19.5 c 128,-1,45
 654 -21 654 -21 528 -21 c 0,0,1
EndSplineSet
EndChar

StartChar: k.ss05
Encoding: 65553 -1 378
Width: 1287
GlyphClass: 1
Flags: W
LayerCount: 2
Fore
SplineSet
64 0 m 1,0,-1
 64 126 l 1,1,-1
 227 154 l 1,2,-1
 227 1405 l 1,3,-1
 64 1433 l 1,4,-1
 64 1560 l 1,5,-1
 424 1560 l 1,6,-1
 424 656 l 1,7,-1
 550 656 l 1,8,-1
 813 936 l 1,9,-1
 818 942 l 1,10,-1
 702 955 l 1,11,-1
 702 1082 l 1,12,-1
 1162 1082 l 1,13,-1
 1162 955 l 1,14,-1
 1023 929 l 1,15,-1
 716 585 l 1,16,-1
 1092 150 l 1,17,-1
 1248 126 l 1,18,-1
 1248 0 l 1,19,-1
 759 0 l 1,20,-1
 759 126 l 1,21,-1
 869 139 l 1,22,-1
 866 143 l 1,23,-1
 554 499 l 1,24,-1
 424 499 l 1,25,-1
 424 154 l 1,26,-1
 587 126 l 1,27,-1
 587 0 l 1,28,-1
 64 0 l 1,0,-1
EndSplineSet
EndChar

StartChar: kgreenlandic.ss05
Encoding: 65554 -1 379
Width: 1257
GlyphClass: 1
Flags: W
LayerCount: 2
Fore
SplineSet
62 0 m 1,0,-1
 62 126 l 1,1,-1
 225 154 l 1,2,-1
 225 927 l 1,3,-1
 71 955 l 1,4,-1
 71 1081 l 1,5,-1
 422 1081 l 1,6,-1
 422 656 l 1,7,-1
 548 656 l 1,8,-1
 799 942 l 1,9,-1
 800 943 l 1,10,-1
 710 955 l 1,11,-1
 710 1082 l 1,12,-1
 1162 1082 l 1,13,-1
 1162 955 l 1,14,-1
 1030 929 l 1,15,-1
 719 586 l 1,16,-1
 1063 150 l 1,17,-1
 1186 126 l 1,18,-1
 1186 0 l 1,19,-1
 949 0 l 1,20,-1
 551 499 l 1,21,-1
 422 499 l 1,22,-1
 422 154 l 1,23,-1
 585 126 l 1,24,-1
 585 0 l 1,25,-1
 62 0 l 1,0,-1
EndSplineSet
EndChar

StartChar: fi
Encoding: 64257 64257 380
Width: 1239
GlyphClass: 3
LigCaretCntFixed: 1
Flags: W
LayerCount: 2
Fore
SplineSet
51 0 m 1,0,-1
 51 126 l 1,1,-1
 214 154 l 1,2,-1
 214 936 l 1,3,-1
 45 936 l 1,4,-1
 45 1082 l 1,5,-1
 214 1082 l 1,6,-1
 214 1199 l 2,7,8
 214 1381 214 1381 321 1481 c 128,-1,9
 428 1581 428 1581 617 1581 c 0,10,11
 683 1581 683 1581 749 1565 c 128,-1,12
 815 1549 815 1549 901 1520 c 1,13,-1
 868 1360 l 1,14,15
 815 1381 815 1381 755 1396 c 128,-1,16
 695 1411 695 1411 632 1411 c 0,17,18
 514 1411 514 1411 462.5 1359 c 128,-1,19
 411 1307 411 1307 411 1199 c 2,20,-1
 411 1082 l 1,21,-1
 1028 1082 l 1,22,-1
 1028 154 l 1,23,-1
 1191 126 l 1,24,-1
 1191 0 l 1,25,-1
 668 0 l 1,26,-1
 668 126 l 1,27,-1
 831 154 l 1,28,-1
 831 936 l 1,29,-1
 411 936 l 1,30,-1
 411 154 l 1,31,-1
 574 126 l 1,32,-1
 574 0 l 1,33,-1
 51 0 l 1,0,-1
EndSplineSet
Ligature2: "'liga' Standard Ligatures in Latin lookup 22 subtable" f i
MultipleSubs2: "'ccmp' Glyph Composition/Decomposition in Latin lookup 9 subtable" f i
LCarets2: 1 620
EndChar

StartChar: fl
Encoding: 64258 64258 381
Width: 1350
GlyphClass: 3
LigCaretCntFixed: 1
Flags: W
LayerCount: 2
Fore
SplineSet
51 0 m 1,0,-1
 51 126 l 1,1,-1
 214 154 l 1,2,-1
 214 936 l 1,3,-1
 70 936 l 1,4,-1
 70 1082 l 1,5,-1
 214 1082 l 1,6,-1
 214 1160 l 2,7,8
 214 1361 214 1361 331.5 1471 c 128,-1,9
 449 1581 449 1581 657 1581 c 0,10,11
 743 1581 743 1581 827 1565 c 128,-1,12
 911 1549 911 1549 1022 1519 c 1,13,-1
 1111 1519 l 1,14,-1
 1111 154 l 1,15,-1
 1274 126 l 1,16,-1
 1274 0 l 1,17,-1
 751 0 l 1,18,-1
 751 126 l 1,19,-1
 914 154 l 1,20,-1
 914 1380 l 1,21,22
 856 1394 856 1394 795 1402.5 c 128,-1,23
 734 1411 734 1411 672 1411 c 0,24,25
 534 1411 534 1411 472.5 1349 c 128,-1,26
 411 1287 411 1287 411 1160 c 2,27,-1
 411 1082 l 1,28,-1
 662 1082 l 1,29,-1
 662 936 l 1,30,-1
 411 936 l 1,31,-1
 411 154 l 1,32,-1
 574 126 l 1,33,-1
 574 0 l 1,34,-1
 51 0 l 1,0,-1
EndSplineSet
Ligature2: "'liga' Standard Ligatures in Latin lookup 22 subtable" f l
MultipleSubs2: "'ccmp' Glyph Composition/Decomposition in Latin lookup 9 subtable" f l
LCarets2: 1 675
EndChar

StartChar: a.sc
Encoding: 65555 -1 384
Width: 1214
GlyphClass: 2
Flags: W
AnchorPoint: "Anchor-3" 1188 0 basechar 0
AnchorPoint: "Anchor-2" 603 0 basechar 0
AnchorPoint: "Anchor-0" 603 1082 basechar 0
LayerCount: 2
Fore
SplineSet
16 0 m 1,0,-1
 16 126 l 1,1,-1
 97 140 l 1,2,-1
 510 1165 l 1,3,-1
 695 1165 l 1,4,-1
 1107 140 l 1,5,-1
 1188 126 l 1,6,-1
 1188 0 l 1,7,-1
 797 0 l 1,8,-1
 797 126 l 1,9,-1
 904 144 l 1,10,-1
 856 268 l 1,11,-1
 348 268 l 1,12,-1
 300 144 l 1,13,-1
 408 126 l 1,14,-1
 408 0 l 1,15,-1
 16 0 l 1,0,-1
407 422 m 1,16,-1
 797 422 l 1,17,-1
 624 870 l 1,18,-1
 604 921 l 1,19,-1
 598 921 l 1,20,-1
 580 874 l 1,21,-1
 407 422 l 1,16,-1
EndSplineSet
EndChar

StartChar: ae.sc
Encoding: 65579 -1 408
Width: 1797
GlyphClass: 2
Flags: W
AnchorPoint: "Anchor-2" 964 0 basechar 0
AnchorPoint: "Anchor-0" 963 1082 basechar 0
LayerCount: 2
Fore
SplineSet
16 0 m 1,0,-1
 16 121 l 1,1,-1
 137 137 l 1,2,-1
 741 1165 l 1,3,-1
 1616 1165 l 1,4,-1
 1616 888 l 1,5,-1
 1455 888 l 1,6,-1
 1443 1011 l 1,7,-1
 1042 1011 l 1,8,-1
 1059 679 l 1,9,-1
 1545 679 l 1,10,-1
 1545 525 l 1,11,-1
 1065 525 l 1,12,-1
 1082 153 l 1,13,-1
 1496 153 l 1,14,-1
 1509 276 l 1,15,-1
 1669 276 l 1,16,-1
 1669 0 l 1,17,-1
 753 0 l 1,18,-1
 753 121 l 1,19,-1
 886 143 l 1,20,-1
 879 282 l 1,21,-1
 452 282 l 1,22,-1
 357 132 l 1,23,-1
 429 121 l 1,24,-1
 429 0 l 1,25,-1
 16 0 l 1,0,-1
544 445 m 1,26,-1
 872 445 l 1,27,-1
 848 984 l 1,28,-1
 843 985 l 1,29,-1
 836 971 l 1,30,-1
 544 445 l 1,26,-1
EndSplineSet
EndChar

StartChar: b.sc
Encoding: 65581 -1 410
Width: 1186
GlyphClass: 2
Flags: W
AnchorPoint: "Anchor-2" 593 0 basechar 0
AnchorPoint: "Anchor-0" 593 1082 basechar 0
LayerCount: 2
Fore
SplineSet
31 0 m 1,0,-1
 31 126 l 1,1,-1
 194 154 l 1,2,-1
 194 1010 l 1,3,-1
 31 1038 l 1,4,-1
 31 1165 l 1,5,-1
 194 1165 l 1,6,-1
 591 1165 l 2,7,8
 804 1165 804 1165 922.5 1085.5 c 128,-1,9
 1041 1006 1041 1006 1041 847 c 0,10,11
 1041 764 1041 764 993.5 698.5 c 128,-1,12
 946 633 946 633 859 600 c 1,13,14
 962 575 962 575 1020 500 c 128,-1,15
 1078 425 1078 425 1078 329 c 0,16,17
 1078 167 1078 167 967.5 83.5 c 128,-1,18
 857 0 857 0 660 0 c 2,19,-1
 31 0 l 1,0,-1
391 152 m 1,20,-1
 660 152 l 2,21,22
 769 152 769 152 824.5 199 c 128,-1,23
 880 246 880 246 880 334 c 0,24,25
 880 418 880 418 825.5 469.5 c 128,-1,26
 771 521 771 521 660 521 c 2,27,-1
 391 521 l 1,28,-1
 391 152 l 1,20,-1
391 662 m 1,29,-1
 603 662 l 1,30,31
 844 667 844 667 844 836 c 0,32,33
 844 922 844 922 782.5 957 c 128,-1,34
 721 992 721 992 591 992 c 2,35,-1
 391 992 l 1,36,-1
 391 662 l 1,29,-1
EndSplineSet
EndChar

StartChar: c.sc
Encoding: 65582 -1 411
Width: 1170
GlyphClass: 2
Flags: W
AnchorPoint: "Anchor-2" 623 0 basechar 0
AnchorPoint: "Anchor-0" 636 1082 basechar 0
LayerCount: 2
Fore
SplineSet
664 -17 m 0,0,1
 535 -17 535 -17 432.5 25 c 128,-1,2
 330 67 330 67 258 145 c 128,-1,3
 186 223 186 223 148.5 330.5 c 128,-1,4
 111 438 111 438 111 568 c 2,5,-1
 111 596 l 2,6,7
 111 767 111 767 177.5 899 c 128,-1,8
 244 1031 244 1031 365.5 1106.5 c 128,-1,9
 487 1182 487 1182 651 1182 c 0,10,11
 776 1182 776 1182 877.5 1147.5 c 128,-1,12
 979 1113 979 1113 1049 1052 c 1,13,-1
 1049 784 l 1,14,-1
 899 784 l 1,15,-1
 878 966 l 1,16,17
 838 995 838 995 783 1012 c 128,-1,18
 728 1029 728 1029 654 1029 c 0,19,20
 548 1029 548 1029 470.5 975 c 128,-1,21
 393 921 393 921 350.5 824.5 c 128,-1,22
 308 728 308 728 308 598 c 2,23,-1
 308 568 l 2,24,25
 308 433 308 433 352 336 c 128,-1,26
 396 239 396 239 477.5 187 c 128,-1,27
 559 135 559 135 669 135 c 0,28,29
 735 135 735 135 787 147.5 c 128,-1,30
 839 160 839 160 877 181 c 1,31,-1
 898 346 l 1,32,-1
 1047 346 l 1,33,-1
 1047 80 l 1,34,35
 981 36 981 36 881.5 9.5 c 128,-1,36
 782 -17 782 -17 664 -17 c 0,0,1
EndSplineSet
Substitution2: "'ss05' Style Set 5 in Latin lookup 27 subtable" c.sc.ss05
Substitution2: "'aalt' Access All Alternates in Latin lookup 0 subtable" c.sc.ss05
EndChar

StartChar: d.sc
Encoding: 65588 -1 417
Width: 1235
GlyphClass: 2
Flags: W
AnchorPoint: "Anchor-4" 343 593 basechar 0
AnchorPoint: "Anchor-2" 606 0 basechar 0
AnchorPoint: "Anchor-0" 603 1082 basechar 0
LayerCount: 2
Fore
SplineSet
41 0 m 1,0,-1
 41 126 l 1,1,-1
 204 154 l 1,2,-1
 204 1010 l 1,3,-1
 41 1038 l 1,4,-1
 41 1165 l 1,5,-1
 204 1165 l 1,6,-1
 610 1165 l 2,7,8
 761 1165 761 1165 880 1093 c 128,-1,9
 999 1021 999 1021 1068.5 895.5 c 128,-1,10
 1138 770 1138 770 1138 607 c 2,11,-1
 1138 557 l 2,12,13
 1138 394 1138 394 1068.5 268 c 128,-1,14
 999 142 999 142 880 71 c 128,-1,15
 761 0 761 0 610 0 c 2,16,-1
 41 0 l 1,0,-1
401 152 m 1,17,-1
 610 152 l 2,18,19
 704 152 704 152 778.5 205 c 128,-1,20
 853 258 853 258 897 350 c 128,-1,21
 941 442 941 442 941 557 c 2,22,-1
 941 608 l 2,23,24
 941 722 941 722 897 813.5 c 128,-1,25
 853 905 853 905 778.5 958.5 c 128,-1,26
 704 1012 704 1012 610 1012 c 2,27,-1
 401 1012 l 1,28,-1
 401 152 l 1,17,-1
EndSplineSet
Substitution2: "'ss05' Style Set 5 in Latin lookup 27 subtable" d.sc.ss05
Substitution2: "'aalt' Access All Alternates in Latin lookup 0 subtable" d.sc.ss05
EndChar

StartChar: e.sc
Encoding: 65592 -1 421
Width: 1137
GlyphClass: 2
Flags: W
AnchorPoint: "Anchor-3" 1009 0 basechar 0
AnchorPoint: "Anchor-2" 569 0 basechar 0
AnchorPoint: "Anchor-0" 569 1082 basechar 0
LayerCount: 2
Fore
SplineSet
31 0 m 1,0,-1
 31 126 l 1,1,-1
 194 154 l 1,2,-1
 194 1010 l 1,3,-1
 31 1038 l 1,4,-1
 31 1165 l 1,5,-1
 1009 1165 l 1,6,-1
 1009 843 l 1,7,-1
 840 843 l 1,8,-1
 825 1012 l 1,9,-1
 391 1012 l 1,10,-1
 391 684 l 1,11,-1
 863 684 l 1,12,-1
 863 530 l 1,13,-1
 391 530 l 1,14,-1
 391 152 l 1,15,-1
 825 152 l 1,16,-1
 841 321 l 1,17,-1
 1009 321 l 1,18,-1
 1009 0 l 1,19,-1
 31 0 l 1,0,-1
EndSplineSet
EndChar

StartChar: f.sc
Encoding: 65610 -1 439
Width: 1096
GlyphClass: 2
Flags: W
AnchorPoint: "Anchor-2" 548 0 basechar 0
AnchorPoint: "Anchor-0" 548 1082 basechar 0
LayerCount: 2
Fore
SplineSet
31 0 m 1,0,-1
 31 126 l 1,1,-1
 194 154 l 1,2,-1
 194 1010 l 1,3,-1
 31 1038 l 1,4,-1
 31 1165 l 1,5,-1
 1011 1165 l 1,6,-1
 1011 843 l 1,7,-1
 842 843 l 1,8,-1
 827 1012 l 1,9,-1
 391 1012 l 1,10,-1
 391 655 l 1,11,-1
 865 655 l 1,12,-1
 865 501 l 1,13,-1
 391 501 l 1,14,-1
 391 154 l 1,15,-1
 554 126 l 1,16,-1
 554 0 l 1,17,-1
 31 0 l 1,0,-1
EndSplineSet
EndChar

StartChar: g.sc
Encoding: 65611 -1 440
Width: 1230
GlyphClass: 2
Flags: W
AnchorPoint: "Anchor-2" 617 0 basechar 0
AnchorPoint: "Anchor-0" 628 1082 basechar 0
LayerCount: 2
Fore
SplineSet
655 -17 m 0,0,1
 486 -17 486 -17 360.5 56.5 c 128,-1,2
 235 130 235 130 166 260.5 c 128,-1,3
 97 391 97 391 97 562 c 2,4,-1
 97 592 l 2,5,6
 97 767 97 767 165.5 900 c 128,-1,7
 234 1033 234 1033 354.5 1107.5 c 128,-1,8
 475 1182 475 1182 630 1182 c 0,9,10
 773 1182 773 1182 880 1149.5 c 128,-1,11
 987 1117 987 1117 1064 1055 c 1,12,-1
 1064 808 l 1,13,-1
 910 808 l 1,14,-1
 886 972 l 1,15,16
 847 999 847 999 787.5 1014 c 128,-1,17
 728 1029 728 1029 651 1029 c 0,18,19
 546 1029 546 1029 465.5 974 c 128,-1,20
 385 919 385 919 339.5 821.5 c 128,-1,21
 294 724 294 724 294 594 c 2,22,-1
 294 562 l 2,23,24
 294 433 294 433 337 337 c 128,-1,25
 380 241 380 241 463 188 c 128,-1,26
 546 135 546 135 665 135 c 0,27,28
 742 135 742 135 800 147.5 c 128,-1,29
 858 160 858 160 898 180 c 1,30,-1
 898 434 l 1,31,-1
 681 444 l 1,32,-1
 681 585 l 1,33,-1
 1095 585 l 1,34,-1
 1095 107 l 1,35,36
 1034 55 1034 55 926.5 19 c 128,-1,37
 819 -17 819 -17 655 -17 c 0,0,1
EndSplineSet
Substitution2: "'ss05' Style Set 5 in Latin lookup 27 subtable" g.sc.ss05
Substitution2: "'aalt' Access All Alternates in Latin lookup 0 subtable" g.sc.ss05
EndChar

StartChar: h.sc
Encoding: 65616 -1 445
Width: 1369
GlyphClass: 2
Flags: W
AnchorPoint: "Anchor-4" 684 831 basechar 0
AnchorPoint: "Anchor-2" 685 0 basechar 0
AnchorPoint: "Anchor-0" 685 1082 basechar 0
LayerCount: 2
Fore
SplineSet
41 0 m 1,0,-1
 41 126 l 1,1,-1
 204 154 l 1,2,-1
 204 1010 l 1,3,-1
 41 1038 l 1,4,-1
 41 1165 l 1,5,-1
 564 1165 l 1,6,-1
 564 1038 l 1,7,-1
 401 1010 l 1,8,-1
 401 644 l 1,9,-1
 967 644 l 1,10,-1
 967 1010 l 1,11,-1
 804 1038 l 1,12,-1
 804 1165 l 1,13,-1
 967 1165 l 1,14,-1
 1165 1165 l 1,15,-1
 1328 1165 l 1,16,-1
 1328 1038 l 1,17,-1
 1165 1010 l 1,18,-1
 1165 154 l 1,19,-1
 1328 126 l 1,20,-1
 1328 0 l 1,21,-1
 804 0 l 1,22,-1
 804 126 l 1,23,-1
 967 154 l 1,24,-1
 967 491 l 1,25,-1
 401 491 l 1,26,-1
 401 154 l 1,27,-1
 564 126 l 1,28,-1
 564 0 l 1,29,-1
 41 0 l 1,0,-1
EndSplineSet
EndChar

StartChar: i.sc
Encoding: 65619 -1 448
Width: 585
GlyphClass: 2
Flags: W
AnchorPoint: "Anchor-3" 553 0 basechar 0
AnchorPoint: "Anchor-2" 293 0 basechar 0
AnchorPoint: "Anchor-0" 293 1082 basechar 0
LayerCount: 2
Fore
SplineSet
31 0 m 1,0,-1
 31 126 l 1,1,-1
 194 154 l 1,2,-1
 194 1010 l 1,3,-1
 31 1038 l 1,4,-1
 31 1165 l 1,5,-1
 553 1165 l 1,6,-1
 553 1038 l 1,7,-1
 390 1010 l 1,8,-1
 390 154 l 1,9,-1
 553 126 l 1,10,-1
 553 0 l 1,11,-1
 31 0 l 1,0,-1
EndSplineSet
EndChar

StartChar: j.sc
Encoding: 65631 -1 460
Width: 1081
GlyphClass: 2
Flags: W
AnchorPoint: "Anchor-2" 496 0 basechar 0
AnchorPoint: "Anchor-0" 788 1082 basechar 0
LayerCount: 2
Fore
SplineSet
484 -17 m 0,0,1
 289 -17 289 -17 176 72 c 128,-1,2
 63 161 63 161 69 331 c 1,3,-1
 71 337 l 1,4,-1
 259 337 l 1,5,6
 259 236 259 236 318 185.5 c 128,-1,7
 377 135 377 135 484 135 c 0,8,9
 572 135 572 135 631 195.5 c 128,-1,10
 690 256 690 256 690 354 c 2,11,-1
 690 1010 l 1,12,-1
 527 1038 l 1,13,-1
 527 1165 l 1,14,-1
 1049 1165 l 1,15,-1
 1049 1038 l 1,16,-1
 886 1010 l 1,17,-1
 886 354 l 2,18,19
 886 240 886 240 834.5 157 c 128,-1,20
 783 74 783 74 692.5 28.5 c 128,-1,21
 602 -17 602 -17 484 -17 c 0,0,1
EndSplineSet
EndChar

StartChar: k.sc
Encoding: 65633 -1 462
Width: 1207
GlyphClass: 2
Flags: W
AnchorPoint: "Anchor-2" 617 0 basechar 0
AnchorPoint: "Anchor-0" 627 1082 basechar 0
LayerCount: 2
Fore
SplineSet
363 308 m 1,0,-1
 268 430 l 1,1,-1
 825 1021 l 1,2,-1
 828 1025 l 1,3,-1
 733 1038 l 1,4,-1
 733 1165 l 1,5,-1
 1144 1165 l 1,6,-1
 1144 1038 l 1,7,-1
 1036 1011 l 1,8,-1
 363 308 l 1,0,-1
30 0 m 1,9,-1
 30 126 l 1,10,-1
 193 154 l 1,11,-1
 193 1010 l 1,12,-1
 30 1038 l 1,13,-1
 30 1165 l 1,14,-1
 543 1165 l 1,15,-1
 543 1038 l 1,16,-1
 390 1010 l 1,17,-1
 390 154 l 1,18,-1
 543 126 l 1,19,-1
 543 0 l 1,20,-1
 30 0 l 1,9,-1
746 0 m 1,21,-1
 746 126 l 1,22,-1
 839 139 l 1,23,-1
 837 142 l 1,24,-1
 523 603 l 1,25,-1
 629 759 l 1,26,-1
 1067 152 l 1,27,-1
 1188 126 l 1,28,-1
 1188 0 l 1,29,-1
 746 0 l 1,21,-1
EndSplineSet
Substitution2: "'ss05' Style Set 5 in Latin lookup 27 subtable" k.sc.ss05
Substitution2: "'aalt' Access All Alternates in Latin lookup 0 subtable" k.sc.ss05
EndChar

StartChar: l.sc
Encoding: 65635 -1 464
Width: 1023
GlyphClass: 2
Flags: W
AnchorPoint: "Anchor-4" 314 591 basechar 0
AnchorPoint: "Anchor-2" 512 0 basechar 0
AnchorPoint: "Anchor-1" 875 1165 basechar 0
AnchorPoint: "Anchor-0" 309 1082 basechar 0
LayerCount: 2
Fore
SplineSet
31 0 m 1,0,-1
 31 126 l 1,1,-1
 194 154 l 1,2,-1
 194 1010 l 1,3,-1
 31 1038 l 1,4,-1
 31 1165 l 1,5,-1
 194 1165 l 1,6,-1
 391 1165 l 1,7,-1
 554 1165 l 1,8,-1
 554 1038 l 1,9,-1
 391 1010 l 1,10,-1
 391 152 l 1,11,-1
 781 152 l 1,12,-1
 797 321 l 1,13,-1
 965 321 l 1,14,-1
 965 0 l 1,15,-1
 31 0 l 1,0,-1
EndSplineSet
EndChar

StartChar: m.sc
Encoding: 65641 -1 470
Width: 1601
GlyphClass: 2
Flags: W
AnchorPoint: "Anchor-2" 801 0 basechar 0
AnchorPoint: "Anchor-0" 801 1082 basechar 0
LayerCount: 2
Fore
SplineSet
31 0 m 1,0,-1
 31 126 l 1,1,-1
 194 154 l 1,2,-1
 194 1010 l 1,3,-1
 31 1038 l 1,4,-1
 31 1165 l 1,5,-1
 194 1165 l 1,6,-1
 448 1165 l 1,7,-1
 800 259 l 1,8,-1
 806 259 l 1,9,-1
 1160 1165 l 1,10,-1
 1406 1165 l 1,11,-1
 1569 1165 l 1,12,-1
 1569 1038 l 1,13,-1
 1406 1010 l 1,14,-1
 1406 154 l 1,15,-1
 1569 126 l 1,16,-1
 1569 0 l 1,17,-1
 1046 0 l 1,18,-1
 1046 126 l 1,19,-1
 1209 154 l 1,20,-1
 1209 809 l 1,21,-1
 1203 811 l 1,22,-1
 871 0 l 1,23,-1
 735 0 l 1,24,-1
 397 829 l 1,25,-1
 391 827 l 1,26,-1
 391 154 l 1,27,-1
 554 126 l 1,28,-1
 554 0 l 1,29,-1
 31 0 l 1,0,-1
EndSplineSet
EndChar

StartChar: n.sc
Encoding: 65643 -1 472
Width: 1378
GlyphClass: 2
Flags: W
AnchorPoint: "Anchor-2" 689 0 basechar 0
AnchorPoint: "Anchor-0" 689 1082 basechar 0
LayerCount: 2
Fore
SplineSet
31 0 m 1,0,-1
 31 126 l 1,1,-1
 194 154 l 1,2,-1
 194 1010 l 1,3,-1
 31 1038 l 1,4,-1
 31 1165 l 1,5,-1
 194 1165 l 1,6,-1
 391 1165 l 1,7,-1
 981 306 l 1,8,-1
 987 308 l 1,9,-1
 987 1010 l 1,10,-1
 824 1038 l 1,11,-1
 824 1165 l 1,12,-1
 1183 1165 l 1,13,-1
 1346 1165 l 1,14,-1
 1346 1038 l 1,15,-1
 1183 1010 l 1,16,-1
 1183 0 l 1,17,-1
 987 0 l 1,18,-1
 397 859 l 1,19,-1
 391 857 l 1,20,-1
 391 154 l 1,21,-1
 554 126 l 1,22,-1
 554 0 l 1,23,-1
 31 0 l 1,0,-1
EndSplineSet
EndChar

StartChar: eng.sc
Encoding: 65648 -1 477
Width: 1369
GlyphClass: 1
Flags: W
LayerCount: 2
Fore
SplineSet
865 -437 m 0,0,1
 833 -437 833 -437 806.5 -432.5 c 128,-1,2
 780 -428 780 -428 752 -419 c 1,3,-1
 766 -259 l 1,4,5
 779 -264 779 -264 813 -267.5 c 128,-1,6
 847 -271 847 -271 865 -271 c 0,7,8
 926 -271 926 -271 960 -224 c 128,-1,9
 994 -177 994 -177 994 -89 c 2,10,-1
 994 0 l 1,11,-1
 380 864 l 1,12,-1
 375 863 l 1,13,-1
 375 144 l 1,14,-1
 521 121 l 1,15,-1
 521 0 l 1,16,-1
 31 0 l 1,17,-1
 31 121 l 1,18,-1
 178 144 l 1,19,-1
 178 1020 l 1,20,-1
 31 1043 l 1,21,-1
 31 1165 l 1,22,-1
 375 1165 l 1,23,-1
 988 300 l 1,24,-1
 994 302 l 1,25,-1
 994 1020 l 1,26,-1
 847 1043 l 1,27,-1
 847 1165 l 1,28,-1
 1337 1165 l 1,29,-1
 1337 1043 l 1,30,-1
 1191 1020 l 1,31,-1
 1191 -89 l 2,32,33
 1191 -256 1191 -256 1104.5 -346.5 c 128,-1,34
 1018 -437 1018 -437 865 -437 c 0,0,1
EndSplineSet
EndChar

StartChar: o.sc
Encoding: 65649 -1 478
Width: 1227
GlyphClass: 2
Flags: W
AnchorPoint: "Anchor-4" 614 583 basechar 0
AnchorPoint: "Anchor-3" 946 0 basechar 0
AnchorPoint: "Anchor-2" 614 0 basechar 0
AnchorPoint: "Anchor-1" 1114 1082 basechar 0
AnchorPoint: "Anchor-0" 614 1082 basechar 0
LayerCount: 2
Fore
SplineSet
614 -17 m 0,0,1
 460 -17 460 -17 342 55 c 128,-1,2
 224 127 224 127 158 256 c 128,-1,3
 92 385 92 385 92 555 c 2,4,-1
 92 609 l 2,5,6
 92 779 92 779 157.5 907.5 c 128,-1,7
 223 1036 223 1036 340.5 1108.5 c 128,-1,8
 458 1181 458 1181 612 1181 c 0,9,10
 767 1181 767 1181 884.5 1108.5 c 128,-1,11
 1002 1036 1002 1036 1068.5 907.5 c 128,-1,12
 1135 779 1135 779 1135 609 c 2,13,-1
 1135 555 l 2,14,15
 1135 385 1135 385 1069 256 c 128,-1,16
 1003 127 1003 127 886 55 c 128,-1,17
 769 -17 769 -17 614 -17 c 0,0,1
614 135 m 0,18,19
 715 135 715 135 787.5 185 c 128,-1,20
 860 235 860 235 899 329 c 128,-1,21
 938 423 938 423 938 555 c 2,22,-1
 938 610 l 2,23,24
 938 741 938 741 898.5 834.5 c 128,-1,25
 859 928 859 928 786 978 c 128,-1,26
 713 1028 713 1028 612 1028 c 0,27,28
 512 1028 512 1028 439.5 978 c 128,-1,29
 367 928 367 928 328 834.5 c 128,-1,30
 289 741 289 741 289 610 c 2,31,-1
 289 555 l 2,32,33
 289 423 289 423 328.5 329 c 128,-1,34
 368 235 368 235 441 185 c 128,-1,35
 514 135 514 135 614 135 c 0,18,19
EndSplineSet
Substitution2: "'ss05' Style Set 5 in Latin lookup 27 subtable" o.sc.ss05
Substitution2: "'aalt' Access All Alternates in Latin lookup 0 subtable" o.sc.ss05
EndChar

StartChar: oe.sc
Encoding: 65673 -1 502
Width: 1741
GlyphClass: 2
Flags: W
AnchorPoint: "Anchor-2" 887 0 basechar 0
AnchorPoint: "Anchor-0" 887 1165 basechar 0
LayerCount: 2
Fore
SplineSet
643 -17 m 0,0,1
 468 -17 468 -17 344.5 59.5 c 128,-1,2
 221 136 221 136 156.5 269.5 c 128,-1,3
 92 403 92 403 92 574 c 2,4,-1
 92 591 l 2,5,6
 92 763 92 763 156.5 896.5 c 128,-1,7
 221 1030 221 1030 344.5 1106.5 c 128,-1,8
 468 1183 468 1183 643 1183 c 0,9,10
 775 1183 775 1183 936 1138 c 1,11,-1
 936 941 l 1,12,13
 871 981 871 981 795.5 1003 c 128,-1,14
 720 1025 720 1025 643 1025 c 0,15,16
 524 1025 524 1025 445.5 970 c 128,-1,17
 367 915 367 915 328.5 818 c 128,-1,18
 290 721 290 721 290 593 c 2,19,-1
 290 574 l 2,20,21
 290 445 290 445 328.5 347 c 128,-1,22
 367 249 367 249 445.5 194.5 c 128,-1,23
 524 140 524 140 643 140 c 0,24,25
 720 140 720 140 795.5 160.5 c 128,-1,26
 871 181 871 181 936 218 c 1,27,-1
 936 27 l 1,28,29
 858 6 858 6 784.5 -5.5 c 128,-1,30
 711 -17 711 -17 643 -17 c 0,0,1
748 0 m 1,31,-1
 798 138 l 1,32,-1
 798 1025 l 1,33,-1
 748 1165 l 1,34,-1
 1607 1165 l 1,35,-1
 1607 864 l 1,36,-1
 1447 864 l 1,37,-1
 1435 1012 l 1,38,-1
 995 1012 l 1,39,-1
 995 679 l 1,40,-1
 1436 679 l 1,41,-1
 1436 526 l 1,42,-1
 995 526 l 1,43,-1
 995 152 l 1,44,-1
 1442 152 l 1,45,-1
 1454 299 l 1,46,-1
 1613 299 l 1,47,-1
 1613 0 l 1,48,-1
 748 0 l 1,31,-1
EndSplineSet
EndChar

StartChar: p.sc
Encoding: 65674 -1 503
Width: 1162
GlyphClass: 2
Flags: W
AnchorPoint: "Anchor-2" 307 0 basechar 0
AnchorPoint: "Anchor-0" 622 1082 basechar 0
LayerCount: 2
Fore
SplineSet
41 0 m 1,0,-1
 41 126 l 1,1,-1
 203 154 l 1,2,-1
 203 1010 l 1,3,-1
 41 1038 l 1,4,-1
 41 1165 l 1,5,-1
 203 1165 l 1,6,-1
 670 1165 l 2,7,8
 805 1165 805 1165 902.5 1117.5 c 128,-1,9
 1000 1070 1000 1070 1053 986 c 128,-1,10
 1106 902 1106 902 1106 792 c 256,11,12
 1106 682 1106 682 1053 598 c 128,-1,13
 1000 514 1000 514 902.5 467 c 128,-1,14
 805 420 805 420 670 420 c 2,15,-1
 401 420 l 1,16,-1
 401 154 l 1,17,-1
 564 126 l 1,18,-1
 564 0 l 1,19,-1
 41 0 l 1,0,-1
401 574 m 1,20,-1
 670 574 l 2,21,22
 787 574 787 574 847 637 c 128,-1,23
 907 700 907 700 907 790 c 0,24,25
 907 882 907 882 847 947 c 128,-1,26
 787 1012 787 1012 670 1012 c 2,27,-1
 401 1012 l 1,28,-1
 401 574 l 1,20,-1
EndSplineSet
EndChar

StartChar: thorn.sc
Encoding: 65675 -1 504
Width: 1084
GlyphClass: 2
Flags: W
AnchorPoint: "Anchor-2" 303 0 basechar 0
AnchorPoint: "Anchor-0" 303 1082 basechar 0
LayerCount: 2
Fore
SplineSet
41 0 m 1,0,-1
 41 126 l 1,1,-1
 204 154 l 1,2,-1
 204 1010 l 1,3,-1
 41 1038 l 1,4,-1
 41 1165 l 1,5,-1
 564 1165 l 1,6,-1
 564 1038 l 1,7,-1
 401 1010 l 1,8,-1
 401 154 l 1,9,-1
 564 126 l 1,10,-1
 564 0 l 1,11,-1
 41 0 l 1,0,-1
310 917 m 1,12,-1
 678 917 l 2,13,14
 863 917 863 917 969.5 824 c 128,-1,15
 1076 731 1076 731 1076 584 c 256,16,17
 1076 437 1076 437 969.5 344.5 c 128,-1,18
 863 252 863 252 678 252 c 2,19,-1
 310 252 l 1,20,-1
 310 406 l 1,21,-1
 678 406 l 2,22,23
 776 406 776 406 826.5 457.5 c 128,-1,24
 877 509 877 509 877 582 c 0,25,26
 877 658 877 658 826.5 711 c 128,-1,27
 776 764 776 764 678 764 c 2,28,-1
 310 764 l 1,29,-1
 310 917 l 1,12,-1
EndSplineSet
EndChar

StartChar: q.sc
Encoding: 65676 -1 505
Width: 1251
GlyphClass: 2
Flags: W
AnchorPoint: "Anchor-2" 626 0 basechar 0
AnchorPoint: "Anchor-0" 626 1082 basechar 0
LayerCount: 2
Fore
SplineSet
1004 -213 m 1,0,-1
 723 -7 l 1,1,2
 695 -11 695 -11 668 -14 c 128,-1,3
 641 -17 641 -17 614 -17 c 0,4,5
 460 -17 460 -17 342 55 c 128,-1,6
 224 127 224 127 158 256 c 128,-1,7
 92 385 92 385 92 555 c 2,8,-1
 92 609 l 2,9,10
 92 779 92 779 157.5 907.5 c 128,-1,11
 223 1036 223 1036 340.5 1108.5 c 128,-1,12
 458 1181 458 1181 612 1181 c 0,13,14
 767 1181 767 1181 884.5 1108.5 c 128,-1,15
 1002 1036 1002 1036 1068.5 907.5 c 128,-1,16
 1135 779 1135 779 1135 609 c 2,17,-1
 1135 555 l 2,18,19
 1135 387 1135 387 1070 258 c 128,-1,20
 1005 129 1005 129 890 58 c 1,21,-1
 1149 -87 l 1,22,-1
 1004 -213 l 1,0,-1
614 135 m 256,23,24
 765 135 765 135 851.5 246 c 128,-1,25
 938 357 938 357 938 555 c 2,26,-1
 938 610 l 2,27,28
 938 806 938 806 850.5 917 c 128,-1,29
 763 1028 763 1028 612 1028 c 256,30,31
 461 1028 461 1028 375 917 c 128,-1,32
 289 806 289 806 289 610 c 2,33,-1
 289 555 l 2,34,35
 289 357 289 357 376 246 c 128,-1,36
 463 135 463 135 614 135 c 256,23,24
EndSplineSet
Substitution2: "'ss05' Style Set 5 in Latin lookup 27 subtable" q.sc.ss05
Substitution2: "'aalt' Access All Alternates in Latin lookup 0 subtable" q.sc.ss05
EndChar

StartChar: r.sc
Encoding: 65677 -1 506
Width: 1183
GlyphClass: 2
Flags: W
AnchorPoint: "Anchor-2" 592 0 basechar 0
AnchorPoint: "Anchor-0" 592 1082 basechar 0
LayerCount: 2
Fore
SplineSet
31 0 m 1,0,-1
 31 126 l 1,1,-1
 194 154 l 1,2,-1
 194 1010 l 1,3,-1
 31 1038 l 1,4,-1
 31 1165 l 1,5,-1
 194 1165 l 1,6,-1
 641 1165 l 2,7,8
 778 1165 778 1165 874 1123.5 c 128,-1,9
 970 1082 970 1082 1020.5 1004 c 128,-1,10
 1071 926 1071 926 1071 815 c 0,11,12
 1071 717 1071 717 1020.5 641 c 128,-1,13
 970 565 970 565 874 522 c 128,-1,14
 778 479 778 479 641 479 c 2,15,-1
 391 479 l 1,16,-1
 391 154 l 1,17,-1
 554 126 l 1,18,-1
 554 0 l 1,19,-1
 31 0 l 1,0,-1
864 0 m 1,20,-1
 632 551 l 1,21,-1
 829 552 l 1,22,-1
 1011 145 l 1,23,-1
 1121 126 l 1,24,-1
 1121 0 l 1,25,-1
 864 0 l 1,20,-1
391 633 m 1,26,-1
 641 633 l 2,27,28
 761 633 761 633 817 680 c 128,-1,29
 873 727 873 727 873 815 c 0,30,31
 873 907 873 907 816.5 959.5 c 128,-1,32
 760 1012 760 1012 641 1012 c 2,33,-1
 391 1012 l 1,34,-1
 391 633 l 1,26,-1
EndSplineSet
Substitution2: "'ss05' Style Set 5 in Latin lookup 27 subtable" r.sc.ss05
Substitution2: "'aalt' Access All Alternates in Latin lookup 0 subtable" r.sc.ss05
EndChar

StartChar: s.sc
Encoding: 65681 -1 510
Width: 1101
GlyphClass: 2
Flags: W
AnchorPoint: "Anchor-2" 551 0 basechar 0
AnchorPoint: "Anchor-0" 551 1082 basechar 0
LayerCount: 2
Fore
SplineSet
551 -17 m 0,0,1
 429 -17 429 -17 318 13 c 128,-1,2
 207 43 207 43 105 111 c 1,3,-1
 105 377 l 1,4,-1
 258 377 l 1,5,-1
 286 203 l 1,6,7
 338 172 338 172 405 153.5 c 128,-1,8
 472 135 472 135 551 135 c 0,9,10
 674 135 674 135 741.5 181 c 128,-1,11
 809 227 809 227 809 303 c 0,12,13
 809 378 809 378 746 423.5 c 128,-1,14
 683 469 683 469 530 506 c 0,15,16
 394 539 394 539 300.5 586 c 128,-1,17
 207 633 207 633 159 700.5 c 128,-1,18
 111 768 111 768 111 860 c 256,19,20
 111 952 111 952 164.5 1024.5 c 128,-1,21
 218 1097 218 1097 314.5 1139.5 c 128,-1,22
 411 1182 411 1182 541 1182 c 0,23,24
 681 1183 681 1183 786.5 1147.5 c 128,-1,25
 892 1112 892 1112 963 1056 c 1,26,-1
 963 807 l 1,27,-1
 812 807 l 1,28,-1
 781 970 l 1,29,30
 744 994 744 994 686 1011 c 128,-1,31
 628 1028 628 1028 545 1028 c 0,32,33
 440 1028 440 1028 373.5 982 c 128,-1,34
 307 936 307 936 307 861 c 0,35,36
 307 817 307 817 333.5 783.5 c 128,-1,37
 360 750 360 750 422.5 723 c 128,-1,38
 485 696 485 696 592 669 c 0,39,40
 798 618 798 618 902 529.5 c 128,-1,41
 1006 441 1006 441 1006 305 c 0,42,43
 1006 208 1006 208 949.5 135.5 c 128,-1,44
 893 63 893 63 791 23 c 128,-1,45
 689 -17 689 -17 551 -17 c 0,0,1
EndSplineSet
Substitution2: "'ss05' Style Set 5 in Latin lookup 27 subtable" s.sc.ss05
Substitution2: "'aalt' Access All Alternates in Latin lookup 0 subtable" s.sc.ss05
EndChar

StartChar: t.sc
Encoding: 65688 -1 517
Width: 1175
GlyphClass: 2
Flags: W
AnchorPoint: "Anchor-4" 580 577 basechar 0
AnchorPoint: "Anchor-2" 580 0 basechar 0
AnchorPoint: "Anchor-0" 580 1082 basechar 0
LayerCount: 2
Fore
SplineSet
319 0 m 1,0,-1
 319 126 l 1,1,-1
 482 154 l 1,2,-1
 482 1012 l 1,3,-1
 234 1012 l 1,4,-1
 220 843 l 1,5,-1
 51 843 l 1,6,-1
 51 1165 l 1,7,-1
 1116 1165 l 1,8,-1
 1116 843 l 1,9,-1
 948 843 l 1,10,-1
 933 1012 l 1,11,-1
 679 1012 l 1,12,-1
 679 154 l 1,13,-1
 842 126 l 1,14,-1
 842 0 l 1,15,-1
 319 0 l 1,0,-1
EndSplineSet
EndChar

StartChar: u.sc
Encoding: 65692 -1 521
Width: 1371
GlyphClass: 2
Flags: W
AnchorPoint: "Anchor-3" 834 0 basechar 0
AnchorPoint: "Anchor-2" 686 0 basechar 0
AnchorPoint: "Anchor-1" 1349 1082 basechar 0
AnchorPoint: "Anchor-0" 686 1082 basechar 0
LayerCount: 2
Fore
SplineSet
685 -17 m 256,0,1
 537 -17 537 -17 424 32.5 c 128,-1,2
 311 82 311 82 247 175 c 128,-1,3
 183 268 183 268 183 398 c 2,4,-1
 183 1010 l 1,5,-1
 20 1038 l 1,6,-1
 20 1165 l 1,7,-1
 543 1165 l 1,8,-1
 543 1038 l 1,9,-1
 380 1010 l 1,10,-1
 380 398 l 2,11,12
 380 316 380 316 418.5 257 c 128,-1,13
 457 198 457 198 526 166.5 c 128,-1,14
 595 135 595 135 685 135 c 0,15,16
 777 135 777 135 845.5 166.5 c 128,-1,17
 914 198 914 198 952 257 c 128,-1,18
 990 316 990 316 990 398 c 2,19,-1
 990 1010 l 1,20,-1
 827 1038 l 1,21,-1
 827 1165 l 1,22,-1
 1349 1165 l 1,23,-1
 1349 1038 l 1,24,-1
 1186 1010 l 1,25,-1
 1186 398 l 2,26,27
 1186 268 1186 268 1122.5 175 c 128,-1,28
 1059 82 1059 82 946 32.5 c 128,-1,29
 833 -17 833 -17 685 -17 c 256,0,1
EndSplineSet
EndChar

StartChar: uhorn.sc
Encoding: 65700 -1 529
Width: 1509
GlyphClass: 2
Flags: W
AnchorPoint: "Anchor-2" 686 0 basechar 0
AnchorPoint: "Anchor-0" 686 1082 basechar 0
LayerCount: 2
Fore
SplineSet
685 -17 m 256,0,1
 537 -17 537 -17 424 32.5 c 128,-1,2
 311 82 311 82 247 175 c 128,-1,3
 183 268 183 268 183 398 c 2,4,-1
 183 1010 l 1,5,-1
 20 1038 l 1,6,-1
 20 1165 l 1,7,-1
 543 1165 l 1,8,-1
 543 1038 l 1,9,-1
 380 1010 l 1,10,-1
 380 398 l 2,11,12
 380 316 380 316 418.5 257 c 128,-1,13
 457 198 457 198 526 166.5 c 128,-1,14
 595 135 595 135 685 135 c 0,15,16
 777 135 777 135 845.5 166.5 c 128,-1,17
 914 198 914 198 952 257 c 128,-1,18
 990 316 990 316 990 398 c 2,19,-1
 990 1010 l 1,20,-1
 827 1038 l 1,21,-1
 827 1165 l 1,22,-1
 1186 1165 l 1,23,-1
 1186 398 l 2,24,25
 1186 268 1186 268 1122.5 175 c 128,-1,26
 1059 82 1059 82 946 32.5 c 128,-1,27
 833 -17 833 -17 685 -17 c 256,0,1
1162 839 m 1,28,-1
 1161 959 l 1,29,30
 1244 959 1244 959 1284 986.5 c 128,-1,31
 1324 1014 1324 1014 1336.5 1068 c 128,-1,32
 1349 1122 1349 1122 1349 1201 c 1,33,-1
 1507 1201 l 1,34,35
 1507 1094 1507 1094 1476 1012.5 c 128,-1,36
 1445 931 1445 931 1370 885 c 128,-1,37
 1295 839 1295 839 1162 839 c 1,28,-1
EndSplineSet
EndChar

StartChar: v.sc
Encoding: 65711 -1 540
Width: 1265
GlyphClass: 2
Flags: W
AnchorPoint: "Anchor-2" 633 0 basechar 0
AnchorPoint: "Anchor-0" 633 1082 basechar 0
LayerCount: 2
Fore
SplineSet
539 0 m 1,0,-1
 131 1022 l 1,1,-1
 20 1038 l 1,2,-1
 20 1165 l 1,3,-1
 448 1165 l 1,4,-1
 448 1038 l 1,5,-1
 339 1019 l 1,6,-1
 606 297 l 1,7,-1
 629 215 l 1,8,-1
 635 215 l 1,9,-1
 658 295 l 1,10,-1
 925 1019 l 1,11,-1
 816 1038 l 1,12,-1
 816 1165 l 1,13,-1
 1244 1165 l 1,14,-1
 1244 1038 l 1,15,-1
 1132 1022 l 1,16,-1
 724 0 l 1,17,-1
 539 0 l 1,0,-1
EndSplineSet
EndChar

StartChar: w.sc
Encoding: 65712 -1 541
Width: 1786
GlyphClass: 2
Flags: W
AnchorPoint: "Anchor-2" 893 0 basechar 0
AnchorPoint: "Anchor-0" 893 1165 basechar 0
LayerCount: 2
Fore
SplineSet
433 0 m 1,0,-1
 125 1025 l 1,1,-1
 40 1038 l 1,2,-1
 40 1165 l 1,3,-1
 434 1165 l 1,4,-1
 434 1038 l 1,5,-1
 320 1015 l 1,6,-1
 500 352 l 1,7,-1
 526 264 l 1,8,-1
 528 266 l 1,9,-1
 559 365 l 1,10,-1
 802 1165 l 1,11,-1
 987 1165 l 1,12,-1
 1229 367 l 1,13,-1
 1261 264 l 1,14,-1
 1263 266 l 1,15,-1
 1294 379 l 1,16,-1
 1466 1015 l 1,17,-1
 1353 1038 l 1,18,-1
 1353 1165 l 1,19,-1
 1746 1165 l 1,20,-1
 1746 1038 l 1,21,-1
 1661 1025 l 1,22,-1
 1354 0 l 1,23,-1
 1171 0 l 1,24,-1
 926 812 l 1,25,-1
 897 895 l 1,26,-1
 891 895 l 1,27,-1
 863 817 l 1,28,-1
 615 0 l 1,29,-1
 433 0 l 1,0,-1
EndSplineSet
EndChar

StartChar: x.sc
Encoding: 65717 -1 546
Width: 1162
GlyphClass: 2
Flags: W
AnchorPoint: "Anchor-2" 581 0 basechar 0
AnchorPoint: "Anchor-0" 581 1082 basechar 0
LayerCount: 2
Fore
SplineSet
32 0 m 1,0,-1
 32 126 l 1,1,-1
 158 147 l 1,2,-1
 459 588 l 1,3,-1
 167 1016 l 1,4,-1
 42 1038 l 1,5,-1
 42 1165 l 1,6,-1
 461 1165 l 1,7,-1
 461 1038 l 1,8,-1
 386 1025 l 1,9,-1
 572 732 l 1,10,-1
 760 1025 l 1,11,-1
 687 1038 l 1,12,-1
 687 1165 l 1,13,-1
 1108 1165 l 1,14,-1
 1108 1038 l 1,15,-1
 982 1016 l 1,16,-1
 691 588 l 1,17,-1
 991 147 l 1,18,-1
 1117 126 l 1,19,-1
 1117 0 l 1,20,-1
 699 0 l 1,21,-1
 699 126 l 1,22,-1
 772 138 l 1,23,-1
 575 442 l 1,24,-1
 379 138 l 1,25,-1
 453 126 l 1,26,-1
 453 0 l 1,27,-1
 32 0 l 1,0,-1
EndSplineSet
EndChar

StartChar: y.sc
Encoding: 65718 -1 547
Width: 1195
GlyphClass: 2
Flags: W
AnchorPoint: "Anchor-2" 598 0 basechar 0
AnchorPoint: "Anchor-0" 598 1082 basechar 0
LayerCount: 2
Fore
SplineSet
333 0 m 1,0,-1
 333 126 l 1,1,-1
 496 154 l 1,2,-1
 496 419 l 1,3,-1
 157 1018 l 1,4,-1
 20 1038 l 1,5,-1
 20 1165 l 1,6,-1
 458 1165 l 1,7,-1
 458 1038 l 1,8,-1
 369 1023 l 1,9,-1
 589 603 l 1,10,-1
 597 589 l 1,11,-1
 599 592 l 1,12,-1
 605 604 l 1,13,-1
 825 1023 l 1,14,-1
 737 1038 l 1,15,-1
 737 1165 l 1,16,-1
 1174 1165 l 1,17,-1
 1174 1038 l 1,18,-1
 1037 1018 l 1,19,-1
 693 410 l 1,20,-1
 693 154 l 1,21,-1
 856 126 l 1,22,-1
 856 0 l 1,23,-1
 333 0 l 1,0,-1
EndSplineSet
EndChar

StartChar: z.sc
Encoding: 65726 -1 555
Width: 1089
GlyphClass: 2
Flags: W
AnchorPoint: "Anchor-2" 545 0 basechar 0
AnchorPoint: "Anchor-0" 545 1082 basechar 0
LayerCount: 2
Fore
SplineSet
79 0 m 1,0,-1
 79 118 l 1,1,-1
 720 1012 l 1,2,-1
 296 1012 l 1,3,-1
 281 843 l 1,4,-1
 113 843 l 1,5,-1
 113 1165 l 1,6,-1
 961 1165 l 1,7,-1
 961 1051 l 1,8,-1
 318 152 l 1,9,-1
 800 152 l 1,10,-1
 816 321 l 1,11,-1
 984 321 l 1,12,-1
 984 0 l 1,13,-1
 79 0 l 1,0,-1
EndSplineSet
EndChar

StartChar: c.sc.ss05
Encoding: 65730 -1 559
Width: 1170
GlyphClass: 1
Flags: W
LayerCount: 2
Fore
SplineSet
615 -17 m 0,0,1
 470 -17 470 -17 356 52 c 128,-1,2
 242 121 242 121 177 249.5 c 128,-1,3
 112 378 112 378 112 555 c 2,4,-1
 112 590 l 2,5,6
 112 773 112 773 177 905.5 c 128,-1,7
 242 1038 242 1038 355.5 1109.5 c 128,-1,8
 469 1181 469 1181 615 1181 c 0,9,10
 818 1181 818 1181 940 1079.5 c 128,-1,11
 1062 978 1062 978 1058 791 c 1,12,-1
 1056 785 l 1,13,-1
 866 785 l 1,14,15
 866 906 866 906 799.5 967 c 128,-1,16
 733 1028 733 1028 615 1028 c 0,17,18
 481 1028 481 1028 395 909 c 128,-1,19
 309 790 309 790 309 591 c 2,20,-1
 309 555 l 2,21,22
 309 364 309 364 395 249.5 c 128,-1,23
 481 135 481 135 615 135 c 0,24,25
 694 135 694 135 749.5 162 c 128,-1,26
 805 189 805 189 835 244 c 128,-1,27
 865 299 865 299 865 381 c 1,28,-1
 1055 381 l 1,29,-1
 1057 375 l 1,30,31
 1060 249 1060 249 1004 161.5 c 128,-1,32
 948 74 948 74 847.5 28.5 c 128,-1,33
 747 -17 747 -17 615 -17 c 0,0,1
EndSplineSet
EndChar

StartChar: d.sc.ss05
Encoding: 65731 -1 560
Width: 1235
GlyphClass: 1
Flags: W
LayerCount: 2
Fore
SplineSet
31 0 m 1,0,-1
 31 126 l 1,1,-1
 194 154 l 1,2,-1
 194 1010 l 1,3,-1
 31 1038 l 1,4,-1
 31 1165 l 1,5,-1
 194 1165 l 1,6,-1
 615 1165 l 2,7,8
 756 1165 756 1165 869 1103.5 c 128,-1,9
 982 1042 982 1042 1048 934.5 c 128,-1,10
 1114 827 1114 827 1114 687 c 2,11,-1
 1114 477 l 2,12,13
 1114 337 1114 337 1048 229.5 c 128,-1,14
 982 122 982 122 869 61 c 128,-1,15
 756 0 756 0 615 0 c 2,16,-1
 31 0 l 1,0,-1
391 152 m 1,17,-1
 615 152 l 2,18,19
 699 152 699 152 767.5 194.5 c 128,-1,20
 836 237 836 237 876.5 311 c 128,-1,21
 917 385 917 385 917 477 c 2,22,-1
 917 688 l 2,23,24
 917 780 917 780 876.5 853 c 128,-1,25
 836 926 836 926 767.5 969 c 128,-1,26
 699 1012 699 1012 615 1012 c 2,27,-1
 391 1012 l 1,28,-1
 391 152 l 1,17,-1
EndSplineSet
EndChar

StartChar: g.sc.ss05
Encoding: 65732 -1 561
Width: 1235
GlyphClass: 1
Flags: W
LayerCount: 2
Fore
SplineSet
631 -17 m 0,0,1
 477 -17 477 -17 360 52.5 c 128,-1,2
 243 122 243 122 177.5 247 c 128,-1,3
 112 372 112 372 112 536 c 2,4,-1
 112 628 l 2,5,6
 112 791 112 791 175.5 915.5 c 128,-1,7
 239 1040 239 1040 351 1110.5 c 128,-1,8
 463 1181 463 1181 607 1181 c 0,9,10
 838 1181 838 1181 965 1080.5 c 128,-1,11
 1092 980 1092 980 1086 823 c 1,12,-1
 1084 817 l 1,13,-1
 898 817 l 1,14,15
 898 918 898 918 820 973 c 128,-1,16
 742 1028 742 1028 607 1028 c 0,17,18
 520 1028 520 1028 452.5 975.5 c 128,-1,19
 385 923 385 923 347 833 c 128,-1,20
 309 743 309 743 309 629 c 2,21,-1
 309 536 l 2,22,23
 309 420 309 420 349 329.5 c 128,-1,24
 389 239 389 239 461.5 187 c 128,-1,25
 534 135 534 135 631 135 c 0,26,27
 736 135 736 135 804.5 156 c 128,-1,28
 873 177 873 177 904 204 c 1,29,-1
 904 454 l 1,30,-1
 645 454 l 1,31,-1
 645 608 l 1,32,-1
 1099 608 l 1,33,-1
 1099 157 l 1,34,35
 1053 92 1053 92 932 37.5 c 128,-1,36
 811 -17 811 -17 631 -17 c 0,0,1
EndSplineSet
EndChar

StartChar: k.sc.ss05
Encoding: 65733 -1 562
Width: 1169
GlyphClass: 1
Flags: W
LayerCount: 2
Fore
SplineSet
30 0 m 1,0,-1
 30 126 l 1,1,-1
 193 154 l 1,2,-1
 193 1010 l 1,3,-1
 30 1038 l 1,4,-1
 30 1165 l 1,5,-1
 543 1165 l 1,6,-1
 543 1038 l 1,7,-1
 390 1010 l 1,8,-1
 390 657 l 1,9,-1
 474 657 l 1,10,-1
 752 1021 l 1,11,-1
 755 1025 l 1,12,-1
 660 1038 l 1,13,-1
 660 1165 l 1,14,-1
 1075 1165 l 1,15,-1
 1075 1038 l 1,16,-1
 971 1011 l 1,17,-1
 640 606 l 1,18,-1
 1007 152 l 1,19,-1
 1128 126 l 1,20,-1
 1128 0 l 1,21,-1
 682 0 l 1,22,-1
 682 126 l 1,23,-1
 775 139 l 1,24,-1
 773 142 l 1,25,-1
 489 500 l 1,26,-1
 390 500 l 1,27,-1
 390 154 l 1,28,-1
 543 126 l 1,29,-1
 543 0 l 1,30,-1
 30 0 l 1,0,-1
EndSplineSet
EndChar

StartChar: o.sc.ss05
Encoding: 65734 -1 563
Width: 1227
GlyphClass: 1
Flags: W
LayerCount: 2
Fore
SplineSet
614 -17 m 0,0,1
 460 -17 460 -17 342 55 c 128,-1,2
 224 127 224 127 158 256 c 128,-1,3
 92 385 92 385 92 555 c 2,4,-1
 92 609 l 2,5,6
 92 779 92 779 157.5 907.5 c 128,-1,7
 223 1036 223 1036 340.5 1108.5 c 128,-1,8
 458 1181 458 1181 612 1181 c 0,9,10
 767 1181 767 1181 884.5 1108.5 c 128,-1,11
 1002 1036 1002 1036 1068.5 907.5 c 128,-1,12
 1135 779 1135 779 1135 609 c 2,13,-1
 1135 555 l 2,14,15
 1135 385 1135 385 1069 256 c 128,-1,16
 1003 127 1003 127 886 55 c 128,-1,17
 769 -17 769 -17 614 -17 c 0,0,1
614 135 m 256,18,19
 765 135 765 135 851.5 246 c 128,-1,20
 938 357 938 357 938 555 c 2,21,-1
 938 610 l 2,22,23
 938 806 938 806 850.5 917 c 128,-1,24
 763 1028 763 1028 612 1028 c 256,25,26
 461 1028 461 1028 375 917 c 128,-1,27
 289 806 289 806 289 610 c 2,28,-1
 289 555 l 2,29,30
 289 357 289 357 376 246 c 128,-1,31
 463 135 463 135 614 135 c 256,18,19
EndSplineSet
EndChar

StartChar: q.sc.ss05
Encoding: 65735 -1 564
Width: 1251
GlyphClass: 1
Flags: W
LayerCount: 2
Fore
SplineSet
1004 -213 m 1,0,-1
 723 -7 l 1,1,2
 695 -11 695 -11 668 -14 c 128,-1,3
 641 -17 641 -17 614 -17 c 0,4,5
 460 -17 460 -17 342 55 c 128,-1,6
 224 127 224 127 158 256 c 128,-1,7
 92 385 92 385 92 555 c 2,8,-1
 92 609 l 2,9,10
 92 779 92 779 157.5 907.5 c 128,-1,11
 223 1036 223 1036 340.5 1108.5 c 128,-1,12
 458 1181 458 1181 612 1181 c 0,13,14
 767 1181 767 1181 884.5 1108.5 c 128,-1,15
 1002 1036 1002 1036 1068.5 907.5 c 128,-1,16
 1135 779 1135 779 1135 609 c 2,17,-1
 1135 555 l 2,18,19
 1135 387 1135 387 1070 258 c 128,-1,20
 1005 129 1005 129 890 58 c 1,21,-1
 1149 -87 l 1,22,-1
 1004 -213 l 1,0,-1
614 135 m 256,23,24
 765 135 765 135 851.5 246 c 128,-1,25
 938 357 938 357 938 555 c 2,26,-1
 938 610 l 2,27,28
 938 806 938 806 850.5 917 c 128,-1,29
 763 1028 763 1028 612 1028 c 256,30,31
 461 1028 461 1028 375 917 c 128,-1,32
 289 806 289 806 289 610 c 2,33,-1
 289 555 l 2,34,35
 289 357 289 357 376 246 c 128,-1,36
 463 135 463 135 614 135 c 256,23,24
EndSplineSet
EndChar

StartChar: r.sc.ss05
Encoding: 65736 -1 565
Width: 1237
GlyphClass: 1
Flags: W
LayerCount: 2
Fore
SplineSet
31 0 m 1,0,-1
 31 126 l 1,1,-1
 194 154 l 1,2,-1
 194 1010 l 1,3,-1
 31 1038 l 1,4,-1
 31 1165 l 1,5,-1
 194 1165 l 1,6,-1
 655 1165 l 2,7,8
 792 1165 792 1165 888 1124.5 c 128,-1,9
 984 1084 984 1084 1034.5 1007.5 c 128,-1,10
 1085 931 1085 931 1085 823 c 0,11,12
 1085 734 1085 734 1035.5 671 c 128,-1,13
 986 608 986 608 890 569 c 1,14,15
 994 539 994 539 1039.5 467 c 128,-1,16
 1085 395 1085 395 1085 290 c 2,17,-1
 1085 172 l 2,18,19
 1085 165 1085 165 1085 158 c 128,-1,20
 1085 151 1085 151 1085 143 c 1,21,-1
 1184 126 l 1,22,-1
 1184 0 l 1,23,-1
 906 0 l 1,24,25
 894 23 894 23 891 72 c 128,-1,26
 888 121 888 121 888 173 c 2,27,-1
 888 289 l 2,28,29
 888 379 888 379 835.5 429 c 128,-1,30
 783 479 783 479 685 479 c 2,31,-1
 391 479 l 1,32,-1
 391 154 l 1,33,-1
 554 126 l 1,34,-1
 554 0 l 1,35,-1
 31 0 l 1,0,-1
391 633 m 1,36,-1
 655 633 l 2,37,38
 775 633 775 633 831 680 c 128,-1,39
 887 727 887 727 887 815 c 0,40,41
 887 907 887 907 830.5 959.5 c 128,-1,42
 774 1012 774 1012 655 1012 c 2,43,-1
 391 1012 l 1,44,-1
 391 633 l 1,36,-1
EndSplineSet
EndChar

StartChar: s.sc.ss05
Encoding: 65737 -1 566
Width: 1137
GlyphClass: 1
Flags: W
LayerCount: 2
Fore
SplineSet
569 -17 m 0,0,1
 434 -17 434 -17 325.5 20.5 c 128,-1,2
 217 58 217 58 155.5 136.5 c 128,-1,3
 94 215 94 215 98 337 c 1,4,-1
 99 343 l 1,5,-1
 288 343 l 1,6,7
 288 271 288 271 325.5 225 c 128,-1,8
 363 179 363 179 426.5 157 c 128,-1,9
 490 135 490 135 569 135 c 0,10,11
 700 135 700 135 772 182 c 128,-1,12
 844 229 844 229 844 304 c 0,13,14
 844 352 844 352 817.5 386.5 c 128,-1,15
 791 421 791 421 728.5 449 c 128,-1,16
 666 477 666 477 557 503 c 0,17,18
 409 542 409 542 314.5 586 c 128,-1,19
 220 630 220 630 175.5 695 c 128,-1,20
 131 760 131 760 131 860 c 0,21,22
 131 958 131 958 186 1030 c 128,-1,23
 241 1102 241 1102 342.5 1141.5 c 128,-1,24
 444 1181 444 1181 581 1181 c 0,25,26
 790 1181 790 1181 908 1088 c 128,-1,27
 1026 995 1026 995 1021 827 c 1,28,-1
 1019 821 l 1,29,-1
 832 821 l 1,30,31
 832 913 832 913 766 970.5 c 128,-1,32
 700 1028 700 1028 581 1028 c 0,33,34
 455 1028 455 1028 392 981.5 c 128,-1,35
 329 935 329 935 329 861 c 0,36,37
 329 813 329 813 352.5 779.5 c 128,-1,38
 376 746 376 746 439.5 719.5 c 128,-1,39
 503 693 503 693 621 664 c 0,40,41
 837 606 837 606 939 528 c 128,-1,42
 1041 450 1041 450 1041 305 c 0,43,44
 1041 203 1041 203 983 131 c 128,-1,45
 925 59 925 59 819.5 21 c 128,-1,46
 714 -17 714 -17 569 -17 c 0,0,1
EndSplineSet
EndChar

StartChar: uni207F
Encoding: 8319 8319 567
Width: 940
GlyphClass: 1
Flags: W
LayerCount: 2
Fore
SplineSet
150 651 m 1,0,-1
 150 1451 l 1,1,-1
 286 1451 l 1,2,-1
 317 1331 l 1,3,4
 353 1395 353 1395 408 1430.5 c 128,-1,5
 463 1466 463 1466 533 1466 c 0,6,7
 655 1466 655 1466 722.5 1390.5 c 128,-1,8
 790 1315 790 1315 790 1159 c 2,9,-1
 790 651 l 1,10,-1
 610 651 l 1,11,-1
 610 1126 l 2,12,13
 610 1228 610 1228 574.5 1273.5 c 128,-1,14
 539 1319 539 1319 474 1319 c 0,15,16
 421 1319 421 1319 385 1292 c 128,-1,17
 349 1265 349 1265 330 1218 c 1,18,-1
 330 651 l 1,19,-1
 150 651 l 1,0,-1
EndSplineSet
EndChar

StartChar: ordfeminine
Encoding: 170 170 568
Width: 894
GlyphClass: 1
Flags: W
LayerCount: 2
Fore
SplineSet
355 692 m 0,0,1
 236 692 236 692 171 753 c 128,-1,2
 106 814 106 814 106 920 c 0,3,4
 106 1030 106 1030 190 1090 c 128,-1,5
 274 1150 274 1150 436 1150 c 2,6,-1
 574 1150 l 1,7,-1
 574 1202 l 2,8,9
 574 1265 574 1265 544.5 1299 c 128,-1,10
 515 1333 515 1333 457 1333 c 0,11,12
 390 1333 390 1333 353.5 1306 c 128,-1,13
 317 1279 317 1279 317 1230 c 1,14,-1
 154 1243 l 1,15,-1
 153 1249 l 1,16,17
 147 1347 147 1347 232 1412 c 128,-1,18
 317 1477 317 1477 457 1477 c 0,19,20
 590 1477 590 1477 668.5 1406 c 128,-1,21
 747 1335 747 1335 747 1201 c 2,22,-1
 747 887 l 2,23,24
 747 836 747 836 753 792 c 128,-1,25
 759 748 759 748 773 706 c 1,26,-1
 598 706 l 1,27,28
 590 727 590 727 585 751 c 128,-1,29
 580 775 580 775 577 801 c 1,30,31
 544 754 544 754 488 723 c 128,-1,32
 432 692 432 692 355 692 c 0,0,1
397 831 m 0,33,34
 431 831 431 831 467.5 845 c 128,-1,35
 504 859 504 859 533 880.5 c 128,-1,36
 562 902 562 902 574 926 c 1,37,-1
 574 1036 l 1,38,-1
 437 1036 l 2,39,40
 362 1036 362 1036 320 1003 c 128,-1,41
 278 970 278 970 278 924 c 0,42,43
 278 879 278 879 307.5 855 c 128,-1,44
 337 831 337 831 397 831 c 0,33,34
EndSplineSet
EndChar

StartChar: ordmasculine
Encoding: 186 186 569
Width: 941
GlyphClass: 1
Flags: W
LayerCount: 2
Fore
SplineSet
468 691 m 0,0,1
 309 691 309 691 215 783.5 c 128,-1,2
 121 876 121 876 121 1025 c 2,3,-1
 121 1142 l 2,4,5
 121 1290 121 1290 214.5 1383.5 c 128,-1,6
 308 1477 308 1477 466 1477 c 256,7,8
 624 1477 624 1477 718 1383.5 c 128,-1,9
 812 1290 812 1290 812 1142 c 2,10,-1
 812 1025 l 2,11,12
 812 876 812 876 718.5 783.5 c 128,-1,13
 625 691 625 691 468 691 c 0,0,1
468 832 m 0,14,15
 551 832 551 832 595 885 c 128,-1,16
 639 938 639 938 639 1025 c 2,17,-1
 639 1142 l 2,18,19
 639 1226 639 1226 594.5 1279.5 c 128,-1,20
 550 1333 550 1333 466 1333 c 256,21,22
 382 1333 382 1333 337.5 1279.5 c 128,-1,23
 293 1226 293 1226 293 1142 c 2,24,-1
 293 1025 l 2,25,26
 293 937 293 937 337 884.5 c 128,-1,27
 381 832 381 832 468 832 c 0,14,15
EndSplineSet
EndChar

StartChar: uni0411
Encoding: 1041 1041 571
Width: 1359
GlyphClass: 1
Flags: W
LayerCount: 2
Fore
SplineSet
60 0 m 1,0,-1
 60 126 l 1,1,-1
 223 154 l 1,2,-1
 223 1301 l 1,3,-1
 60 1329 l 1,4,-1
 60 1456 l 1,5,-1
 1116 1456 l 1,6,-1
 1116 1134 l 1,7,-1
 947 1134 l 1,8,-1
 932 1301 l 1,9,-1
 430 1301 l 1,10,-1
 430 860 l 1,11,-1
 789 860 l 2,12,13
 945 860 945 860 1054.5 808 c 128,-1,14
 1164 756 1164 756 1222 660.5 c 128,-1,15
 1280 565 1280 565 1280 434 c 256,16,17
 1280 303 1280 303 1222 205 c 128,-1,18
 1164 107 1164 107 1054.5 53.5 c 128,-1,19
 945 0 945 0 789 0 c 2,20,-1
 60 0 l 1,0,-1
430 154 m 1,21,-1
 789 154 l 2,22,23
 937 154 937 154 1010 234 c 128,-1,24
 1083 314 1083 314 1083 436 c 0,25,26
 1083 554 1083 554 1010 629.5 c 128,-1,27
 937 705 937 705 789 705 c 2,28,-1
 430 705 l 1,29,-1
 430 154 l 1,21,-1
EndSplineSet
EndChar

StartChar: uni0413
Encoding: 1043 1043 573
Width: 1216
GlyphClass: 2
Flags: W
AnchorPoint: "Anchor-4" 379 753 basechar 0
AnchorPoint: "Anchor-0" 648 1376 basechar 0
LayerCount: 2
Fore
SplineSet
77 0 m 1,0,-1
 77 126 l 1,1,-1
 240 154 l 1,2,-1
 240 1301 l 1,3,-1
 77 1329 l 1,4,-1
 77 1456 l 1,5,-1
 1133 1456 l 1,6,-1
 1133 1134 l 1,7,-1
 964 1134 l 1,8,-1
 949 1301 l 1,9,-1
 437 1301 l 1,10,-1
 437 154 l 1,11,-1
 600 126 l 1,12,-1
 600 0 l 1,13,-1
 77 0 l 1,0,-1
EndSplineSet
EndChar

StartChar: uni0490
Encoding: 1168 1168 575
Width: 1207
GlyphClass: 1
Flags: W
LayerCount: 2
Fore
SplineSet
60 0 m 1,0,-1
 60 126 l 1,1,-1
 223 154 l 1,2,-1
 223 1301 l 1,3,-1
 60 1329 l 1,4,-1
 60 1456 l 1,5,-1
 931 1456 l 1,6,-1
 958 1790 l 1,7,-1
 1116 1790 l 1,8,-1
 1116 1301 l 1,9,-1
 420 1301 l 1,10,-1
 420 154 l 1,11,-1
 583 126 l 1,12,-1
 583 0 l 1,13,-1
 60 0 l 1,0,-1
EndSplineSet
EndChar

StartChar: uni0494
Encoding: 1172 1172 578
Width: 1240
GlyphClass: 1
Flags: W
LayerCount: 2
Fore
SplineSet
688 -284 m 1,0,-1
 682 -282 l 1,1,-1
 680 -140 l 1,2,3
 781 -140 781 -140 842.5 -94.5 c 128,-1,4
 904 -49 904 -49 932.5 39.5 c 128,-1,5
 961 128 961 128 961 255 c 0,6,7
 961 457 961 457 860 562.5 c 128,-1,8
 759 668 759 668 558 668 c 2,9,-1
 437 668 l 1,10,-1
 437 154 l 1,11,-1
 600 126 l 1,12,-1
 600 0 l 1,13,-1
 77 0 l 1,14,-1
 77 126 l 1,15,-1
 240 154 l 1,16,-1
 240 1301 l 1,17,-1
 77 1329 l 1,18,-1
 77 1456 l 1,19,-1
 1133 1456 l 1,20,-1
 1133 1134 l 1,21,-1
 964 1134 l 1,22,-1
 949 1301 l 1,23,-1
 437 1301 l 1,24,-1
 437 833 l 1,25,-1
 558 833 l 2,26,27
 748 833 748 833 882 763.5 c 128,-1,28
 1016 694 1016 694 1087 565 c 128,-1,29
 1158 436 1158 436 1158 255 c 0,30,31
 1158 123 1158 123 1127.5 22 c 128,-1,32
 1097 -79 1097 -79 1037 -148 c 128,-1,33
 977 -217 977 -217 889.5 -251.5 c 128,-1,34
 802 -286 802 -286 688 -284 c 1,0,-1
EndSplineSet
EndChar

StartChar: uni0414
Encoding: 1044 1044 579
Width: 1570
GlyphClass: 1
Flags: W
LayerCount: 2
Fore
SplineSet
84 -359 m 1,0,-1
 55 154 l 1,1,-1
 180 154 l 1,2,3
 231 213 231 213 277.5 306 c 128,-1,4
 324 399 324 399 355 537 c 128,-1,5
 386 675 386 675 390 867 c 1,6,-1
 414 1302 l 1,7,-1
 260 1329 l 1,8,-1
 260 1456 l 1,9,-1
 1462 1456 l 1,10,-1
 1462 1329 l 1,11,-1
 1299 1301 l 1,12,-1
 1299 154 l 1,13,-1
 1499 154 l 1,14,-1
 1479 -357 l 1,15,-1
 1302 -357 l 1,16,-1
 1302 0 l 1,17,-1
 252 0 l 1,18,-1
 252 -359 l 1,19,-1
 84 -359 l 1,0,-1
398 154 m 1,20,-1
 1102 154 l 1,21,-1
 1102 1301 l 1,22,-1
 612 1301 l 1,23,-1
 589 867 l 2,24,25
 583 709 583 709 558 575 c 128,-1,26
 533 441 533 441 492.5 335.5 c 128,-1,27
 452 230 452 230 398 154 c 1,20,-1
EndSplineSet
EndChar

StartChar: uni0416
Encoding: 1046 1046 583
Width: 2041
GlyphClass: 2
Flags: W
AnchorPoint: "Anchor-0" 1027 1376 basechar 0
LayerCount: 2
Fore
SplineSet
63 0 m 1,0,-1
 63 126 l 1,1,-1
 209 147 l 1,2,-1
 597 761 l 1,3,-1
 331 1185 l 2,4,5
 292 1244 292 1244 258 1269.5 c 128,-1,6
 224 1295 224 1295 177 1295 c 0,7,8
 155 1295 155 1295 133.5 1292 c 128,-1,9
 112 1289 112 1289 91 1285 c 1,10,-1
 62 1423 l 1,11,12
 94 1444 94 1444 131 1455.5 c 128,-1,13
 168 1467 168 1467 217 1467 c 0,14,15
 273 1467 273 1467 319 1450 c 128,-1,16
 365 1433 365 1433 408 1391.5 c 128,-1,17
 451 1350 451 1350 497 1274 c 2,18,-1
 787 800 l 1,19,-1
 929 800 l 1,20,-1
 929 1301 l 1,21,-1
 766 1329 l 1,22,-1
 766 1456 l 1,23,-1
 1288 1456 l 1,24,-1
 1288 1329 l 1,25,-1
 1125 1301 l 1,26,-1
 1125 800 l 1,27,-1
 1279 800 l 1,28,-1
 1569 1274 l 2,29,30
 1638 1387 1638 1387 1701 1427 c 128,-1,31
 1764 1467 1764 1467 1849 1467 c 0,32,33
 1897 1467 1897 1467 1934 1455.5 c 128,-1,34
 1971 1444 1971 1444 2003 1423 c 1,35,-1
 1974 1285 l 1,36,37
 1953 1289 1953 1289 1931.5 1292 c 128,-1,38
 1910 1295 1910 1295 1889 1295 c 0,39,40
 1841 1295 1841 1295 1807 1269.5 c 128,-1,41
 1773 1244 1773 1244 1734 1185 c 2,42,-1
 1455 752 l 1,43,-1
 1837 147 l 1,44,-1
 1983 126 l 1,45,-1
 1983 0 l 1,46,-1
 1522 0 l 1,47,-1
 1522 126 l 1,48,-1
 1600 139 l 1,49,-1
 1597 144 l 1,50,-1
 1300 634 l 1,51,-1
 1125 634 l 1,52,-1
 1125 154 l 1,53,-1
 1288 126 l 1,54,-1
 1288 0 l 1,55,-1
 766 0 l 1,56,-1
 766 126 l 1,57,-1
 929 154 l 1,58,-1
 929 634 l 1,59,-1
 747 634 l 1,60,-1
 448 143 l 1,61,-1
 446 139 l 1,62,-1
 525 126 l 1,63,-1
 525 0 l 1,64,-1
 63 0 l 1,0,-1
EndSplineSet
EndChar

StartChar: uni0417
Encoding: 1047 1047 584
Width: 1222
GlyphClass: 2
Flags: W
AnchorPoint: "Anchor-2" 585 0 basechar 0
AnchorPoint: "Anchor-0" 590 1376 basechar 0
LayerCount: 2
Fore
SplineSet
581 -21 m 0,0,1
 442 -21 442 -21 325.5 27 c 128,-1,2
 209 75 209 75 141 168.5 c 128,-1,3
 73 262 73 262 76 398 c 1,4,-1
 78 404 l 1,5,-1
 266 404 l 1,6,7
 266 328 266 328 303.5 266.5 c 128,-1,8
 341 205 341 205 412.5 169 c 128,-1,9
 484 133 484 133 585 133 c 0,10,11
 731 133 731 133 826 207.5 c 128,-1,12
 921 282 921 282 921 417 c 0,13,14
 921 537 921 537 839 600.5 c 128,-1,15
 757 664 757 664 597 664 c 2,16,-1
 433 664 l 1,17,-1
 433 820 l 1,18,-1
 597 820 l 2,19,20
 751 820 751 820 825 885 c 128,-1,21
 899 950 899 950 899 1062 c 0,22,23
 899 1178 899 1178 817 1250 c 128,-1,24
 735 1322 735 1322 571 1322 c 0,25,26
 466 1322 466 1322 394 1291.5 c 128,-1,27
 322 1261 322 1261 277 1215 c 1,28,-1
 239 1010 l 1,29,-1
 101 1010 l 1,30,-1
 101 1268 l 1,31,32
 163 1348 163 1348 290.5 1412.5 c 128,-1,33
 418 1477 418 1477 590 1477 c 0,34,35
 823 1477 823 1477 959.5 1372.5 c 128,-1,36
 1096 1268 1096 1268 1096 1089 c 0,37,38
 1096 968 1096 968 1033 881.5 c 128,-1,39
 970 795 970 795 860 747 c 1,40,41
 985 705 985 705 1051.5 618 c 128,-1,42
 1118 531 1118 531 1118 405 c 0,43,44
 1118 272 1118 272 1050.5 176.5 c 128,-1,45
 983 81 983 81 862 30 c 128,-1,46
 741 -21 741 -21 581 -21 c 0,0,1
EndSplineSet
EndChar

StartChar: uni0418
Encoding: 1048 1048 585
Width: 1574
GlyphClass: 2
Flags: W
AnchorPoint: "Anchor-0" 790 1376 basechar 0
LayerCount: 2
Fore
SplineSet
77 0 m 1,0,-1
 77 126 l 1,1,-1
 240 154 l 1,2,-1
 240 1301 l 1,3,-1
 77 1329 l 1,4,-1
 77 1456 l 1,5,-1
 240 1456 l 1,6,-1
 437 1456 l 1,7,-1
 600 1456 l 1,8,-1
 600 1329 l 1,9,-1
 437 1301 l 1,10,-1
 437 462 l 1,11,-1
 443 460 l 1,12,-1
 1143 1209 l 1,13,-1
 1143 1301 l 1,14,-1
 980 1329 l 1,15,-1
 980 1456 l 1,16,-1
 1143 1456 l 1,17,-1
 1340 1456 l 1,18,-1
 1503 1456 l 1,19,-1
 1503 1329 l 1,20,-1
 1340 1301 l 1,21,-1
 1340 154 l 1,22,-1
 1503 126 l 1,23,-1
 1503 0 l 1,24,-1
 980 0 l 1,25,-1
 980 126 l 1,26,-1
 1143 154 l 1,27,-1
 1143 966 l 1,28,-1
 1137 968 l 1,29,-1
 437 218 l 1,30,-1
 437 154 l 1,31,-1
 600 126 l 1,32,-1
 600 0 l 1,33,-1
 77 0 l 1,0,-1
EndSplineSet
EndChar

StartChar: uni041A
Encoding: 1050 1050 589
Width: 1452
GlyphClass: 2
Flags: W
AnchorPoint: "Anchor-4" 373 1096 basechar 0
AnchorPoint: "Anchor-0" 726 1376 basechar 0
LayerCount: 2
Fore
SplineSet
71 0 m 1,0,-1
 71 126 l 1,1,-1
 234 154 l 1,2,-1
 234 1301 l 1,3,-1
 71 1329 l 1,4,-1
 71 1456 l 1,5,-1
 594 1456 l 1,6,-1
 594 1329 l 1,7,-1
 431 1301 l 1,8,-1
 431 800 l 1,9,-1
 590 800 l 1,10,-1
 919 1274 l 2,11,12
 1000 1386 1000 1386 1060 1426.5 c 128,-1,13
 1120 1467 1120 1467 1199 1467 c 0,14,15
 1246 1467 1246 1467 1278.5 1455.5 c 128,-1,16
 1311 1444 1311 1444 1347 1422 c 1,17,-1
 1318 1283 l 1,18,19
 1291 1288 1291 1288 1270.5 1291.5 c 128,-1,20
 1250 1295 1250 1295 1230 1295 c 0,21,22
 1183 1295 1183 1295 1150.5 1270 c 128,-1,23
 1118 1245 1118 1245 1075 1185 c 2,24,-1
 762 749 l 1,25,-1
 1246 151 l 1,26,-1
 1383 126 l 1,27,-1
 1383 0 l 1,28,-1
 905 0 l 1,29,-1
 905 126 l 1,30,-1
 1016 140 l 1,31,-1
 1012 145 l 1,32,-1
 619 634 l 1,33,-1
 431 634 l 1,34,-1
 431 154 l 1,35,-1
 594 126 l 1,36,-1
 594 0 l 1,37,-1
 71 0 l 1,0,-1
EndSplineSet
EndChar

StartChar: uni041B
Encoding: 1051 1051 591
Width: 1512
GlyphClass: 2
Flags: W
LayerCount: 2
Fore
SplineSet
57 0 m 1,0,-1
 57 154 l 1,1,-1
 97 154 l 2,2,3
 165 154 165 154 211.5 186.5 c 128,-1,4
 258 219 258 219 287.5 291.5 c 128,-1,5
 317 364 317 364 334 481.5 c 128,-1,6
 351 599 351 599 358 770 c 2,7,-1
 382 1302 l 1,8,-1
 226 1329 l 1,9,-1
 226 1456 l 1,10,-1
 1441 1456 l 1,11,-1
 1441 1329 l 1,12,-1
 1278 1301 l 1,13,-1
 1278 154 l 1,14,-1
 1441 126 l 1,15,-1
 1441 0 l 1,16,-1
 918 0 l 1,17,-1
 918 126 l 1,18,-1
 1081 154 l 1,19,-1
 1081 1301 l 1,20,-1
 578 1301 l 1,21,-1
 554 770 l 2,22,23
 545 565 545 565 518 418.5 c 128,-1,24
 491 272 491 272 439.5 179.5 c 128,-1,25
 388 87 388 87 307 43.5 c 128,-1,26
 226 0 226 0 109 0 c 2,27,-1
 57 0 l 1,0,-1
EndSplineSet
EndChar

StartChar: uni0423
Encoding: 1059 1059 599
Width: 1360
GlyphClass: 2
Flags: W
AnchorPoint: "Anchor-0" 671 1376 basechar 0
LayerCount: 2
Fore
SplineSet
387 -21 m 0,0,1
 362 -21 362 -21 328.5 -18 c 128,-1,2
 295 -15 295 -15 286 -12 c 1,3,-1
 292 137 l 1,4,5
 302 135 302 135 335 134 c 128,-1,6
 368 133 368 133 385 133 c 0,7,8
 456 133 456 133 486.5 168.5 c 128,-1,9
 517 204 517 204 556 285 c 2,10,-1
 595 368 l 1,11,-1
 172 1311 l 1,12,-1
 54 1329 l 1,13,-1
 54 1456 l 1,14,-1
 511 1456 l 1,15,-1
 511 1329 l 1,16,-1
 389 1310 l 1,17,-1
 610 775 l 1,18,-1
 683 587 l 1,19,-1
 689 587 l 1,20,-1
 962 1309 l 1,21,-1
 835 1329 l 1,22,-1
 835 1456 l 1,23,-1
 1300 1456 l 1,24,-1
 1300 1329 l 1,25,-1
 1186 1312 l 1,26,-1
 737 239 l 2,27,28
 698 152 698 152 656 94 c 128,-1,29
 614 36 614 36 551.5 7.5 c 128,-1,30
 489 -21 489 -21 387 -21 c 0,0,1
EndSplineSet
EndChar

StartChar: uni0424
Encoding: 1060 1060 601
Width: 1600
GlyphClass: 1
Flags: W
LayerCount: 2
Fore
SplineSet
539 -79 m 1,0,-1
 539 47 l 1,1,-1
 702 76 l 1,2,-1
 702 194 l 1,3,-1
 673 194 l 2,4,5
 504 194 504 194 371 263 c 128,-1,6
 238 332 238 332 161 452 c 128,-1,7
 84 572 84 572 84 723 c 0,8,9
 84 878 84 878 161.5 1000 c 128,-1,10
 239 1122 239 1122 372 1192.5 c 128,-1,11
 505 1263 505 1263 673 1263 c 2,12,-1
 702 1263 l 1,13,-1
 702 1380 l 1,14,-1
 539 1409 l 1,15,-1
 539 1535 l 1,16,-1
 1062 1535 l 1,17,-1
 1062 1409 l 1,18,-1
 899 1380 l 1,19,-1
 899 1263 l 1,20,-1
 925 1263 l 2,21,22
 1093 1263 1093 1263 1227 1193 c 128,-1,23
 1361 1123 1361 1123 1438.5 1001.5 c 128,-1,24
 1516 880 1516 880 1516 725 c 0,25,26
 1516 574 1516 574 1438.5 453.5 c 128,-1,27
 1361 333 1361 333 1227 263.5 c 128,-1,28
 1093 194 1093 194 925 194 c 2,29,-1
 899 194 l 1,30,-1
 899 76 l 1,31,-1
 1062 47 l 1,32,-1
 1062 -79 l 1,33,-1
 539 -79 l 1,0,-1
673 348 m 2,34,-1
 702 348 l 1,35,-1
 702 1108 l 1,36,-1
 673 1108 l 2,37,38
 547 1108 547 1108 459 1060 c 128,-1,39
 371 1012 371 1012 325 925.5 c 128,-1,40
 279 839 279 839 279 723 c 0,41,42
 279 611 279 611 325 526.5 c 128,-1,43
 371 442 371 442 459 395 c 128,-1,44
 547 348 547 348 673 348 c 2,34,-1
899 348 m 1,45,-1
 927 348 l 2,46,47
 1051 348 1051 348 1139 395.5 c 128,-1,48
 1227 443 1227 443 1273.5 528 c 128,-1,49
 1320 613 1320 613 1320 725 c 0,50,51
 1320 840 1320 840 1273.5 926 c 128,-1,52
 1227 1012 1227 1012 1139 1060 c 128,-1,53
 1051 1108 1051 1108 927 1108 c 2,54,-1
 899 1108 l 1,55,-1
 899 348 l 1,45,-1
EndSplineSet
EndChar

StartChar: uni0427
Encoding: 1063 1063 603
Width: 1526
GlyphClass: 2
Flags: W
AnchorPoint: "Anchor-0" 763 1376 basechar 0
LayerCount: 2
Fore
SplineSet
942 0 m 1,0,-1
 942 126 l 1,1,-1
 1105 154 l 1,2,-1
 1105 603 l 1,3,4
 1010 574 1010 574 921 561 c 128,-1,5
 832 548 832 548 710 548 c 0,6,7
 470 548 470 548 346 653 c 128,-1,8
 222 758 222 758 222 996 c 2,9,-1
 222 1301 l 1,10,-1
 59 1329 l 1,11,-1
 59 1456 l 1,12,-1
 582 1456 l 1,13,-1
 582 1329 l 1,14,-1
 419 1301 l 1,15,-1
 419 996 l 2,16,17
 419 831 419 831 488 767.5 c 128,-1,18
 557 704 557 704 710 704 c 0,19,20
 814 704 814 704 910 718 c 128,-1,21
 1006 732 1006 732 1105 759 c 1,22,-1
 1105 1301 l 1,23,-1
 942 1329 l 1,24,-1
 942 1456 l 1,25,-1
 1466 1456 l 1,26,-1
 1466 1329 l 1,27,-1
 1303 1301 l 1,28,-1
 1303 154 l 1,29,-1
 1466 126 l 1,30,-1
 1466 0 l 1,31,-1
 942 0 l 1,0,-1
EndSplineSet
EndChar

StartChar: uni0426
Encoding: 1062 1062 604
Width: 1594
GlyphClass: 1
Flags: W
LayerCount: 2
Fore
SplineSet
1337 -351 m 1,0,-1
 1337 0 l 1,1,-1
 77 0 l 1,2,-1
 77 126 l 1,3,-1
 240 154 l 1,4,-1
 240 1301 l 1,5,-1
 77 1329 l 1,6,-1
 77 1456 l 1,7,-1
 600 1456 l 1,8,-1
 600 1329 l 1,9,-1
 437 1301 l 1,10,-1
 437 154 l 1,11,-1
 1145 154 l 1,12,-1
 1145 1301 l 1,13,-1
 982 1329 l 1,14,-1
 982 1456 l 1,15,-1
 1505 1456 l 1,16,-1
 1505 1329 l 1,17,-1
 1342 1301 l 1,18,-1
 1342 154 l 1,19,-1
 1532 154 l 1,20,-1
 1532 -351 l 1,21,-1
 1337 -351 l 1,0,-1
EndSplineSet
EndChar

StartChar: uni0428
Encoding: 1064 1064 605
Width: 2037
GlyphClass: 1
Flags: W
LayerCount: 2
Fore
SplineSet
77 0 m 1,0,-1
 77 126 l 1,1,-1
 240 154 l 1,2,-1
 240 1301 l 1,3,-1
 77 1329 l 1,4,-1
 77 1456 l 1,5,-1
 437 1456 l 1,6,-1
 600 1456 l 1,7,-1
 600 1329 l 1,8,-1
 437 1301 l 1,9,-1
 437 154 l 1,10,-1
 929 154 l 1,11,-1
 929 1301 l 1,12,-1
 766 1329 l 1,13,-1
 766 1456 l 1,14,-1
 1288 1456 l 1,15,-1
 1288 1329 l 1,16,-1
 1125 1301 l 1,17,-1
 1125 154 l 1,18,-1
 1615 154 l 1,19,-1
 1615 1301 l 1,20,-1
 1452 1329 l 1,21,-1
 1452 1456 l 1,22,-1
 1615 1456 l 1,23,-1
 1812 1456 l 1,24,-1
 1975 1456 l 1,25,-1
 1975 1329 l 1,26,-1
 1812 1301 l 1,27,-1
 1812 154 l 1,28,-1
 1975 126 l 1,29,-1
 1975 0 l 1,30,-1
 77 0 l 1,0,-1
EndSplineSet
EndChar

StartChar: uni0429
Encoding: 1065 1065 606
Width: 2044
GlyphClass: 1
Flags: W
LayerCount: 2
Fore
SplineSet
1797 -351 m 1,0,-1
 1797 0 l 1,1,-1
 77 0 l 1,2,-1
 77 126 l 1,3,-1
 240 154 l 1,4,-1
 240 1301 l 1,5,-1
 77 1329 l 1,6,-1
 77 1456 l 1,7,-1
 600 1456 l 1,8,-1
 600 1329 l 1,9,-1
 437 1301 l 1,10,-1
 437 154 l 1,11,-1
 929 154 l 1,12,-1
 929 1301 l 1,13,-1
 766 1329 l 1,14,-1
 766 1456 l 1,15,-1
 1288 1456 l 1,16,-1
 1288 1329 l 1,17,-1
 1125 1301 l 1,18,-1
 1125 154 l 1,19,-1
 1615 154 l 1,20,-1
 1615 1301 l 1,21,-1
 1452 1329 l 1,22,-1
 1452 1456 l 1,23,-1
 1975 1456 l 1,24,-1
 1975 1329 l 1,25,-1
 1812 1301 l 1,26,-1
 1812 155 l 1,27,-1
 1992 155 l 1,28,-1
 1972 -351 l 1,29,-1
 1797 -351 l 1,0,-1
EndSplineSet
EndChar

StartChar: uni040F
Encoding: 1039 1039 607
Width: 1575
GlyphClass: 1
Flags: W
LayerCount: 2
Fore
SplineSet
699 -359 m 1,0,-1
 699 0 l 1,1,-1
 77 0 l 1,2,-1
 77 126 l 1,3,-1
 240 154 l 1,4,-1
 240 1301 l 1,5,-1
 77 1329 l 1,6,-1
 77 1456 l 1,7,-1
 437 1456 l 1,8,-1
 600 1456 l 1,9,-1
 600 1329 l 1,10,-1
 437 1301 l 1,11,-1
 437 154 l 1,12,-1
 1145 154 l 1,13,-1
 1145 1301 l 1,14,-1
 982 1329 l 1,15,-1
 982 1456 l 1,16,-1
 1505 1456 l 1,17,-1
 1505 1329 l 1,18,-1
 1342 1301 l 1,19,-1
 1342 154 l 1,20,-1
 1505 126 l 1,21,-1
 1505 0 l 1,22,-1
 896 0 l 1,23,-1
 896 -359 l 1,24,-1
 699 -359 l 1,0,-1
EndSplineSet
EndChar

StartChar: uni042C
Encoding: 1068 1068 608
Width: 1358
GlyphClass: 2
Flags: W
AnchorPoint: "Anchor-4" 372 1092 basechar 0
LayerCount: 2
Fore
SplineSet
70 0 m 1,0,-1
 70 126 l 1,1,-1
 233 154 l 1,2,-1
 233 1301 l 1,3,-1
 70 1329 l 1,4,-1
 70 1456 l 1,5,-1
 593 1456 l 1,6,-1
 593 1329 l 1,7,-1
 430 1301 l 1,8,-1
 430 860 l 1,9,-1
 789 860 l 2,10,11
 945 860 945 860 1054.5 808 c 128,-1,12
 1164 756 1164 756 1222 660.5 c 128,-1,13
 1280 565 1280 565 1280 434 c 256,14,15
 1280 303 1280 303 1222 205 c 128,-1,16
 1164 107 1164 107 1054.5 53.5 c 128,-1,17
 945 0 945 0 789 0 c 2,18,-1
 70 0 l 1,0,-1
430 154 m 1,19,-1
 789 154 l 2,20,21
 937 154 937 154 1010 234 c 128,-1,22
 1083 314 1083 314 1083 436 c 0,23,24
 1083 554 1083 554 1010 629.5 c 128,-1,25
 937 705 937 705 789 705 c 2,26,-1
 430 705 l 1,27,-1
 430 154 l 1,19,-1
EndSplineSet
EndChar

StartChar: uni042A
Encoding: 1066 1066 610
Width: 1740
GlyphClass: 2
Flags: W
AnchorPoint: "Anchor-0" 717 1376 basechar 0
LayerCount: 2
Fore
SplineSet
431 0 m 1,0,-1
 431 126 l 1,1,-1
 594 154 l 1,2,-1
 594 1301 l 1,3,-1
 245 1301 l 1,4,-1
 231 1135 l 1,5,-1
 62 1135 l 1,6,-1
 62 1456 l 1,7,-1
 954 1456 l 1,8,-1
 954 1329 l 1,9,-1
 791 1301 l 1,10,-1
 791 860 l 1,11,-1
 1150 860 l 2,12,13
 1306 860 1306 860 1415.5 808 c 128,-1,14
 1525 756 1525 756 1583 660.5 c 128,-1,15
 1641 565 1641 565 1641 434 c 256,16,17
 1641 303 1641 303 1583 205 c 128,-1,18
 1525 107 1525 107 1415.5 53.5 c 128,-1,19
 1306 0 1306 0 1150 0 c 2,20,-1
 431 0 l 1,0,-1
791 154 m 1,21,-1
 1150 154 l 2,22,23
 1298 154 1298 154 1371 234 c 128,-1,24
 1444 314 1444 314 1444 436 c 0,25,26
 1444 554 1444 554 1371 629.5 c 128,-1,27
 1298 705 1298 705 1150 705 c 2,28,-1
 791 705 l 1,29,-1
 791 154 l 1,21,-1
EndSplineSet
EndChar

StartChar: uni0409
Encoding: 1033 1033 611
Width: 2205
GlyphClass: 1
Flags: W
LayerCount: 2
Fore
SplineSet
57 0 m 1,0,-1
 57 154 l 1,1,-1
 97 154 l 2,2,3
 172 154 172 154 225.5 188.5 c 128,-1,4
 279 223 279 223 313 296.5 c 128,-1,5
 347 370 347 370 363.5 487.5 c 128,-1,6
 380 605 380 605 380 770 c 2,7,-1
 380 1301 l 1,8,-1
 217 1329 l 1,9,-1
 217 1456 l 1,10,-1
 1441 1456 l 1,11,-1
 1441 1329 l 1,12,-1
 1278 1301 l 1,13,-1
 1278 889 l 1,14,-1
 1637 889 l 2,15,16
 1792 889 1792 889 1901.5 833 c 128,-1,17
 2011 777 2011 777 2069 676.5 c 128,-1,18
 2127 576 2127 576 2127 444 c 256,19,20
 2127 312 2127 312 2069 212 c 128,-1,21
 2011 112 2011 112 1901.5 56 c 128,-1,22
 1792 0 1792 0 1637 0 c 2,23,-1
 1081 0 l 1,24,-1
 1081 1301 l 1,25,-1
 577 1301 l 1,26,-1
 576 770 l 2,27,28
 576 569 576 569 549.5 423.5 c 128,-1,29
 523 278 523 278 467.5 184 c 128,-1,30
 412 90 412 90 323.5 45 c 128,-1,31
 235 0 235 0 109 0 c 2,32,-1
 57 0 l 1,0,-1
1278 154 m 1,33,-1
 1637 154 l 2,34,35
 1784 154 1784 154 1857.5 238.5 c 128,-1,36
 1931 323 1931 323 1931 446 c 0,37,38
 1931 527 1931 527 1898.5 592.5 c 128,-1,39
 1866 658 1866 658 1800.5 696.5 c 128,-1,40
 1735 735 1735 735 1637 735 c 2,41,-1
 1278 735 l 1,42,-1
 1278 154 l 1,33,-1
EndSplineSet
EndChar

StartChar: uni040A
Encoding: 1034 1034 612
Width: 2274
GlyphClass: 1
Flags: W
LayerCount: 2
Fore
SplineSet
81 0 m 1,0,-1
 81 126 l 1,1,-1
 244 154 l 1,2,-1
 244 1301 l 1,3,-1
 81 1329 l 1,4,-1
 81 1456 l 1,5,-1
 604 1456 l 1,6,-1
 604 1329 l 1,7,-1
 441 1301 l 1,8,-1
 441 827 l 1,9,-1
 1149 827 l 1,10,-1
 1149 1301 l 1,11,-1
 986 1329 l 1,12,-1
 986 1456 l 1,13,-1
 1149 1456 l 1,14,-1
 1346 1456 l 1,15,-1
 1509 1456 l 1,16,-1
 1509 1329 l 1,17,-1
 1346 1301 l 1,18,-1
 1346 840 l 1,19,-1
 1705 840 l 2,20,21
 1861 840 1861 840 1970.5 788.5 c 128,-1,22
 2080 737 2080 737 2138 643.5 c 128,-1,23
 2196 550 2196 550 2196 424 c 256,24,25
 2196 298 2196 298 2137.5 202.5 c 128,-1,26
 2079 107 2079 107 1969.5 53.5 c 128,-1,27
 1860 0 1860 0 1705 0 c 2,28,-1
 986 0 l 1,29,-1
 986 126 l 1,30,-1
 1149 154 l 1,31,-1
 1149 673 l 1,32,-1
 441 673 l 1,33,-1
 441 154 l 1,34,-1
 604 126 l 1,35,-1
 604 0 l 1,36,-1
 81 0 l 1,0,-1
1346 165 m 1,37,-1
 1705 165 l 2,38,39
 1853 165 1853 165 1926.5 239 c 128,-1,40
 2000 313 2000 313 2000 426 c 0,41,42
 2000 501 2000 501 1967.5 559.5 c 128,-1,43
 1935 618 1935 618 1869.5 651.5 c 128,-1,44
 1804 685 1804 685 1705 685 c 2,45,-1
 1346 685 l 1,46,-1
 1346 165 l 1,37,-1
EndSplineSet
EndChar

StartChar: uni0404
Encoding: 1028 1028 614
Width: 1284
GlyphClass: 1
Flags: W
LayerCount: 2
Fore
SplineSet
700 -20 m 0,0,1
 510 -20 510 -20 364 76 c 128,-1,2
 218 172 218 172 135 339 c 128,-1,3
 52 506 52 506 52 718 c 2,4,-1
 52 739 l 2,5,6
 52 953 52 953 133.5 1119.5 c 128,-1,7
 215 1286 215 1286 361 1382 c 128,-1,8
 507 1478 507 1478 700 1478 c 0,9,10
 866 1478 866 1478 992 1413.5 c 128,-1,11
 1118 1349 1118 1349 1181 1269 c 1,12,-1
 1181 1010 l 1,13,-1
 1042 1010 l 1,14,-1
 1005 1216 l 1,15,16
 957 1263 957 1263 887 1293 c 128,-1,17
 817 1323 817 1323 720 1323 c 0,18,19
 580 1323 580 1323 479 1258 c 128,-1,20
 378 1193 378 1193 320.5 1078 c 128,-1,21
 263 963 263 963 252 813 c 1,22,-1
 258 813 l 1,23,-1
 844 813 l 1,24,-1
 844 659 l 1,25,-1
 257 659 l 1,26,-1
 251 659 l 1,27,28
 260 505 260 505 316 387 c 128,-1,29
 372 269 372 269 469.5 201.5 c 128,-1,30
 567 134 567 134 700 134 c 0,31,32
 799 134 799 134 880 165 c 128,-1,33
 961 196 961 196 1005 241 c 1,34,-1
 1042 447 l 1,35,-1
 1181 447 l 1,36,-1
 1181 188 l 1,37,38
 1118 107 1118 107 992 43.5 c 128,-1,39
 866 -20 866 -20 700 -20 c 0,0,1
EndSplineSet
EndChar

StartChar: uni042D
Encoding: 1069 1069 615
Width: 1257
GlyphClass: 2
Flags: W
AnchorPoint: "Anchor-0" 562 1376 basechar 0
LayerCount: 2
Fore
SplineSet
563 -20 m 0,0,1
 396 -20 396 -20 270 44 c 128,-1,2
 144 108 144 108 83 188 c 1,3,-1
 83 447 l 1,4,-1
 221 447 l 1,5,-1
 258 241 l 1,6,7
 301 196 301 196 382 165 c 128,-1,8
 463 134 463 134 563 134 c 0,9,10
 693 134 693 134 785 199 c 128,-1,11
 877 264 877 264 928.5 379 c 128,-1,12
 980 494 980 494 987 645 c 1,13,-1
 985 650 l 1,14,-1
 431 650 l 1,15,-1
 431 804 l 1,16,-1
 986 804 l 1,17,-1
 988 809 l 1,18,19
 982 961 982 961 929.5 1077 c 128,-1,20
 877 1193 877 1193 780 1258 c 128,-1,21
 683 1323 683 1323 543 1323 c 0,22,23
 445 1323 445 1323 375 1293 c 128,-1,24
 305 1263 305 1263 258 1216 c 1,25,-1
 221 1010 l 1,26,-1
 83 1010 l 1,27,-1
 83 1269 l 1,28,29
 124 1322 124 1322 194 1369.5 c 128,-1,30
 264 1417 264 1417 358 1447 c 128,-1,31
 452 1477 452 1477 563 1477 c 0,32,33
 755 1477 755 1477 896.5 1382 c 128,-1,34
 1038 1287 1038 1287 1115 1120.5 c 128,-1,35
 1192 954 1192 954 1192 739 c 2,36,-1
 1192 718 l 2,37,38
 1192 504 1192 504 1113 337.5 c 128,-1,39
 1034 171 1034 171 892.5 75.5 c 128,-1,40
 751 -20 751 -20 563 -20 c 0,0,1
EndSplineSet
EndChar

StartChar: uni040B
Encoding: 1035 1035 619
Width: 1745
GlyphClass: 1
Flags: W
LayerCount: 2
Fore
SplineSet
339 0 m 1,0,-1
 339 126 l 1,1,-1
 502 154 l 1,2,-1
 502 1301 l 1,3,-1
 239 1301 l 1,4,-1
 225 1134 l 1,5,-1
 56 1134 l 1,6,-1
 56 1456 l 1,7,-1
 1227 1456 l 1,8,-1
 1227 1134 l 1,9,-1
 1058 1134 l 1,10,-1
 1043 1301 l 1,11,-1
 700 1301 l 1,12,-1
 700 868 l 1,13,14
 776 888 776 888 855 898 c 128,-1,15
 934 908 934 908 1038 908 c 0,16,17
 1278 908 1278 908 1402.5 802 c 128,-1,18
 1527 696 1527 696 1527 460 c 2,19,-1
 1527 154 l 1,20,-1
 1690 126 l 1,21,-1
 1690 0 l 1,22,-1
 1167 0 l 1,23,-1
 1167 126 l 1,24,-1
 1330 154 l 1,25,-1
 1330 460 l 2,26,27
 1330 624 1330 624 1260.5 688 c 128,-1,28
 1191 752 1191 752 1038 752 c 0,29,30
 949 752 949 752 866 741 c 128,-1,31
 783 730 783 730 700 711 c 1,32,-1
 700 154 l 1,33,-1
 863 126 l 1,34,-1
 863 0 l 1,35,-1
 339 0 l 1,0,-1
EndSplineSet
EndChar

StartChar: uni042E
Encoding: 1070 1070 620
Width: 1994
GlyphClass: 2
Flags: W
AnchorPoint: "Anchor-0" 997 1376 basechar 0
LayerCount: 2
Fore
SplineSet
1254 -25 m 0,0,1
 1079 -25 1079 -25 942 59.5 c 128,-1,2
 805 144 805 144 722 292 c 128,-1,3
 639 440 639 440 623 632 c 1,4,-1
 407 632 l 1,5,-1
 407 154 l 1,6,-1
 570 126 l 1,7,-1
 570 0 l 1,8,-1
 47 0 l 1,9,-1
 47 126 l 1,10,-1
 210 154 l 1,11,-1
 210 1301 l 1,12,-1
 47 1329 l 1,13,-1
 47 1456 l 1,14,-1
 570 1456 l 1,15,-1
 570 1329 l 1,16,-1
 407 1301 l 1,17,-1
 407 786 l 1,18,-1
 621 786 l 1,19,20
 631 985 631 985 713.5 1140 c 128,-1,21
 796 1295 796 1295 935.5 1384 c 128,-1,22
 1075 1473 1075 1473 1254 1473 c 0,23,24
 1448 1473 1448 1473 1595.5 1376.5 c 128,-1,25
 1743 1280 1743 1280 1826 1113 c 128,-1,26
 1909 946 1909 946 1909 734 c 2,27,-1
 1909 713 l 2,28,29
 1909 501 1909 501 1826 334 c 128,-1,30
 1743 167 1743 167 1595.5 71 c 128,-1,31
 1448 -25 1448 -25 1254 -25 c 0,0,1
1254 136 m 0,32,33
 1400 136 1400 136 1502 209 c 128,-1,34
 1604 282 1604 282 1658 412 c 128,-1,35
 1712 542 1712 542 1712 713 c 2,36,-1
 1712 736 l 2,37,38
 1712 906 1712 906 1657.5 1035.5 c 128,-1,39
 1603 1165 1603 1165 1500.5 1238 c 128,-1,40
 1398 1311 1398 1311 1254 1311 c 0,41,42
 1117 1311 1117 1311 1019 1237.5 c 128,-1,43
 921 1164 921 1164 869 1034.5 c 128,-1,44
 817 905 817 905 817 736 c 2,45,-1
 817 713 l 2,46,47
 817 543 817 543 869 412.5 c 128,-1,48
 921 282 921 282 1019 209 c 128,-1,49
 1117 136 1117 136 1254 136 c 0,32,33
EndSplineSet
EndChar

StartChar: uni042F
Encoding: 1071 1071 621
Width: 1384
GlyphClass: 2
Flags: W
AnchorPoint: "Anchor-0" 732 1376 basechar 0
LayerCount: 2
Fore
SplineSet
1306 126 m 1,0,-1
 1306 0 l 1,1,-1
 782 0 l 1,2,-1
 782 126 l 1,3,-1
 945 154 l 1,4,-1
 945 570 l 1,5,-1
 650 570 l 1,6,-1
 431 167 l 2,7,8
 382 82 382 82 319 37 c 128,-1,9
 256 -8 256 -8 181 -8 c 0,10,11
 139 -8 139 -8 111.5 2 c 128,-1,12
 84 12 84 12 56 34 c 1,13,-1
 84 173 l 1,14,15
 117 163 117 163 145 163 c 0,16,17
 186 163 186 163 216.5 187 c 128,-1,18
 247 211 247 211 275 256 c 2,19,-1
 478 607 l 1,20,-1
 481 612 l 1,21,22
 325 663 325 663 243 765.5 c 128,-1,23
 161 868 161 868 161 1018 c 0,24,25
 161 1226 161 1226 298 1341 c 128,-1,26
 435 1456 435 1456 676 1456 c 2,27,-1
 1306 1456 l 1,28,-1
 1306 1329 l 1,29,-1
 1143 1301 l 1,30,-1
 1143 154 l 1,31,-1
 1306 126 l 1,0,-1
676 1301 m 2,32,33
 520 1301 520 1301 439 1226 c 128,-1,34
 358 1151 358 1151 358 1020 c 256,35,36
 358 889 358 889 440 807.5 c 128,-1,37
 522 726 522 726 675 726 c 2,38,-1
 945 726 l 1,39,-1
 945 1301 l 1,40,-1
 676 1301 l 2,32,33
EndSplineSet
EndChar

StartChar: uni0402
Encoding: 1026 1026 622
Width: 1573
GlyphClass: 1
Flags: W
LayerCount: 2
Fore
SplineSet
1011 -6 m 1,0,-1
 1006 -4 l 1,1,-1
 1004 137 l 1,2,3
 1112 137 1112 137 1178.5 171 c 128,-1,4
 1245 205 1245 205 1275 271 c 128,-1,5
 1305 337 1305 337 1305 433 c 0,6,7
 1303 576 1303 576 1222.5 651.5 c 128,-1,8
 1142 727 1142 727 982 727 c 0,9,10
 920 727 920 727 843.5 714.5 c 128,-1,11
 767 702 767 702 697 681 c 1,12,-1
 697 154 l 1,13,-1
 841 126 l 1,14,-1
 841 0 l 1,15,-1
 337 0 l 1,16,-1
 337 126 l 1,17,-1
 500 154 l 1,18,-1
 500 1301 l 1,19,-1
 257 1301 l 1,20,-1
 242 1134 l 1,21,-1
 74 1134 l 1,22,-1
 74 1456 l 1,23,-1
 1245 1456 l 1,24,-1
 1245 1134 l 1,25,-1
 1076 1134 l 1,26,-1
 1061 1301 l 1,27,-1
 697 1301 l 1,28,-1
 697 840 l 1,29,30
 778 862 778 862 853.5 877 c 128,-1,31
 929 892 929 892 982 892 c 0,32,33
 1228 892 1228 892 1365 771 c 128,-1,34
 1502 650 1502 650 1502 433 c 0,35,36
 1502 289 1502 289 1445.5 190.5 c 128,-1,37
 1389 92 1389 92 1279.5 42 c 128,-1,38
 1170 -8 1170 -8 1011 -6 c 1,0,-1
EndSplineSet
EndChar

StartChar: uni0460
Encoding: 1120 1120 623
Width: 1763
GlyphClass: 1
Flags: W
LayerCount: 2
Fore
SplineSet
543 -21 m 0,0,1
 423 -21 423 -21 333.5 26 c 128,-1,2
 244 73 244 73 194 165 c 128,-1,3
 144 257 144 257 144 391 c 2,4,-1
 144 1456 l 1,5,-1
 341 1456 l 1,6,-1
 341 391 l 2,7,8
 341 265 341 265 396.5 199 c 128,-1,9
 452 133 452 133 543 133 c 0,10,11
 651 133 651 133 717.5 198.5 c 128,-1,12
 784 264 784 264 784 391 c 2,13,-1
 784 1456 l 1,14,-1
 988 1456 l 1,15,-1
 988 391 l 2,16,17
 988 265 988 265 1049 199 c 128,-1,18
 1110 133 1110 133 1210 133 c 0,19,20
 1309 133 1309 133 1370 199 c 128,-1,21
 1431 265 1431 265 1431 391 c 2,22,-1
 1431 1456 l 1,23,-1
 1628 1456 l 1,24,-1
 1628 391 l 2,25,26
 1628 257 1628 257 1575.5 165 c 128,-1,27
 1523 73 1523 73 1429 26 c 128,-1,28
 1335 -21 1335 -21 1210 -21 c 0,29,30
 1101 -21 1101 -21 1016 22.5 c 128,-1,31
 931 66 931 66 884 152 c 1,32,33
 833 66 833 66 744.5 22.5 c 128,-1,34
 656 -21 656 -21 543 -21 c 0,0,1
EndSplineSet
EndChar

StartChar: uni0464
Encoding: 1124 1124 625
Width: 1804
GlyphClass: 1
Flags: W
LayerCount: 2
Fore
SplineSet
1256 -20 m 0,0,1
 1075 -20 1075 -20 932.5 69 c 128,-1,2
 790 158 790 158 705 313.5 c 128,-1,3
 620 469 620 469 609 668 c 0,4,5
 609 671 609 671 609 673.5 c 128,-1,6
 609 676 609 676 609 679 c 1,7,-1
 417 679 l 1,8,-1
 417 154 l 1,9,-1
 580 126 l 1,10,-1
 580 0 l 1,11,-1
 57 0 l 1,12,-1
 57 126 l 1,13,-1
 220 154 l 1,14,-1
 220 1301 l 1,15,-1
 57 1329 l 1,16,-1
 57 1456 l 1,17,-1
 220 1456 l 1,18,-1
 417 1456 l 1,19,-1
 580 1456 l 1,20,-1
 580 1329 l 1,21,-1
 417 1301 l 1,22,-1
 417 834 l 1,23,-1
 612 834 l 1,24,25
 630 1024 630 1024 715.5 1169 c 128,-1,26
 801 1314 801 1314 939.5 1396 c 128,-1,27
 1078 1478 1078 1478 1256 1478 c 0,28,29
 1422 1478 1422 1478 1548 1413.5 c 128,-1,30
 1674 1349 1674 1349 1737 1269 c 1,31,-1
 1737 1010 l 1,32,-1
 1598 1010 l 1,33,-1
 1561 1216 l 1,34,35
 1513 1263 1513 1263 1443 1293 c 128,-1,36
 1373 1323 1373 1323 1276 1323 c 0,37,38
 1140 1323 1140 1323 1040.5 1261.5 c 128,-1,39
 941 1200 941 1200 883.5 1091 c 128,-1,40
 826 982 826 982 814 840 c 1,41,-1
 817 834 l 1,42,-1
 1360 834 l 1,43,-1
 1360 679 l 1,44,-1
 813 679 l 1,45,-1
 810 674 l 1,46,47
 814 518 814 518 868.5 396 c 128,-1,48
 923 274 923 274 1022 204 c 128,-1,49
 1121 134 1121 134 1256 134 c 0,50,51
 1355 134 1355 134 1436 165 c 128,-1,52
 1517 196 1517 196 1561 241 c 1,53,-1
 1598 447 l 1,54,-1
 1737 447 l 1,55,-1
 1737 188 l 1,56,57
 1674 107 1674 107 1548 43.5 c 128,-1,58
 1422 -20 1422 -20 1256 -20 c 0,0,1
EndSplineSet
EndChar

StartChar: uni0466
Encoding: 1126 1126 626
Width: 1427
GlyphClass: 1
Flags: W
LayerCount: 2
Fore
SplineSet
52 0 m 1,0,-1
 52 126 l 1,1,-1
 156 141 l 1,2,-1
 630 1456 l 1,3,-1
 798 1456 l 1,4,-1
 1263 141 l 1,5,-1
 1367 126 l 1,6,-1
 1367 0 l 1,7,-1
 949 0 l 1,8,-1
 949 126 l 1,9,-1
 1062 145 l 1,10,-1
 957 457 l 1,11,-1
 802 457 l 1,12,-1
 802 0 l 1,13,-1
 606 0 l 1,14,-1
 606 457 l 1,15,-1
 464 457 l 1,16,-1
 356 145 l 1,17,-1
 469 126 l 1,18,-1
 469 0 l 1,19,-1
 52 0 l 1,0,-1
521 621 m 1,20,-1
 901 621 l 1,21,-1
 730 1125 l 1,22,-1
 716 1165 l 1,23,-1
 710 1165 l 1,24,-1
 698 1131 l 1,25,-1
 521 621 l 1,20,-1
EndSplineSet
EndChar

StartChar: uni0468
Encoding: 1128 1128 627
Width: 1935
GlyphClass: 1
Flags: W
LayerCount: 2
Fore
SplineSet
40 0 m 1,0,-1
 40 126 l 1,1,-1
 203 154 l 1,2,-1
 203 1301 l 1,3,-1
 40 1329 l 1,4,-1
 40 1456 l 1,5,-1
 203 1456 l 1,6,-1
 400 1456 l 1,7,-1
 563 1456 l 1,8,-1
 563 1329 l 1,9,-1
 400 1301 l 1,10,-1
 400 622 l 1,11,-1
 878 622 l 1,12,-1
 1179 1456 l 1,13,-1
 1347 1456 l 1,14,-1
 1812 141 l 1,15,-1
 1916 126 l 1,16,-1
 1916 0 l 1,17,-1
 1498 0 l 1,18,-1
 1498 126 l 1,19,-1
 1611 145 l 1,20,-1
 1506 457 l 1,21,-1
 1351 457 l 1,22,-1
 1351 0 l 1,23,-1
 1155 0 l 1,24,-1
 1155 457 l 1,25,-1
 1013 457 l 1,26,-1
 905 145 l 1,27,-1
 1018 126 l 1,28,-1
 1018 0 l 1,29,-1
 601 0 l 1,30,-1
 601 126 l 1,31,-1
 705 141 l 1,32,-1
 819 458 l 1,33,-1
 400 458 l 1,34,-1
 400 154 l 1,35,-1
 563 126 l 1,36,-1
 563 0 l 1,37,-1
 40 0 l 1,0,-1
1070 621 m 1,38,-1
 1450 621 l 1,39,-1
 1279 1124 l 1,40,-1
 1265 1165 l 1,41,-1
 1259 1165 l 1,42,-1
 1244 1123 l 1,43,-1
 1070 621 l 1,38,-1
EndSplineSet
EndChar

StartChar: uni046A
Encoding: 1130 1130 628
Width: 1895
GlyphClass: 1
Flags: W
LayerCount: 2
Fore
SplineSet
55 0 m 1,0,-1
 55 126 l 1,1,-1
 218 154 l 1,2,-1
 218 371 l 2,3,4
 218 605 218 605 341.5 709.5 c 128,-1,5
 465 814 465 814 705 814 c 0,6,7
 714 814 714 814 723.5 814 c 128,-1,8
 733 814 733 814 742 814 c 1,9,-1
 441 1308 l 1,10,-1
 297 1329 l 1,11,-1
 297 1456 l 1,12,-1
 1613 1456 l 1,13,-1
 1613 1329 l 1,14,-1
 1470 1308 l 1,15,-1
 1169 814 l 1,16,17
 1174 814 1174 814 1180 814 c 128,-1,18
 1186 814 1186 814 1191 814 c 0,19,20
 1430 814 1430 814 1554.5 709.5 c 128,-1,21
 1679 605 1679 605 1679 371 c 2,22,-1
 1679 154 l 1,23,-1
 1842 126 l 1,24,-1
 1842 0 l 1,25,-1
 1319 0 l 1,26,-1
 1319 126 l 1,27,-1
 1482 154 l 1,28,-1
 1482 371 l 2,29,30
 1482 533 1482 533 1413 596 c 128,-1,31
 1344 659 1344 659 1191 659 c 2,32,-1
 1075 659 l 1,33,-1
 1050 637 l 1,34,-1
 1050 154 l 1,35,-1
 1213 126 l 1,36,-1
 1213 0 l 1,37,-1
 690 0 l 1,38,-1
 690 126 l 1,39,-1
 853 154 l 1,40,-1
 853 632 l 1,41,-1
 836 659 l 1,42,-1
 705 659 l 2,43,44
 552 659 552 659 483.5 596 c 128,-1,45
 415 533 415 533 415 371 c 2,46,-1
 415 154 l 1,47,-1
 578 126 l 1,48,-1
 578 0 l 1,49,-1
 55 0 l 1,0,-1
950 814 m 1,50,-1
 960 814 l 1,51,-1
 977 843 l 1,52,-1
 1244 1301 l 1,53,-1
 666 1301 l 1,54,-1
 936 837 l 1,55,-1
 950 814 l 1,50,-1
EndSplineSet
EndChar

StartChar: uni046C
Encoding: 1132 1132 629
Width: 2438
GlyphClass: 1
Flags: W
LayerCount: 2
Fore
SplineSet
56 0 m 1,0,-1
 56 126 l 1,1,-1
 219 154 l 1,2,-1
 219 1301 l 1,3,-1
 56 1329 l 1,4,-1
 56 1456 l 1,5,-1
 579 1456 l 1,6,-1
 579 1329 l 1,7,-1
 416 1301 l 1,8,-1
 416 815 l 1,9,-1
 1433 815 l 1,10,-1
 1433 660 l 1,11,-1
 416 660 l 1,12,-1
 416 154 l 1,13,-1
 579 126 l 1,14,-1
 579 0 l 1,15,-1
 56 0 l 1,0,-1
621 0 m 1,16,-1
 621 126 l 1,17,-1
 784 154 l 1,18,-1
 784 371 l 2,19,20
 784 605 784 605 907.5 709.5 c 128,-1,21
 1031 814 1031 814 1271 814 c 0,22,23
 1280 814 1280 814 1289.5 814 c 128,-1,24
 1299 814 1299 814 1308 814 c 1,25,-1
 1007 1308 l 1,26,-1
 863 1329 l 1,27,-1
 863 1456 l 1,28,-1
 2179 1456 l 1,29,-1
 2179 1329 l 1,30,-1
 2036 1308 l 1,31,-1
 1735 814 l 1,32,33
 1740 814 1740 814 1746 814 c 128,-1,34
 1752 814 1752 814 1757 814 c 0,35,36
 1996 814 1996 814 2120.5 709.5 c 128,-1,37
 2245 605 2245 605 2245 371 c 2,38,-1
 2245 154 l 1,39,-1
 2408 126 l 1,40,-1
 2408 0 l 1,41,-1
 1885 0 l 1,42,-1
 1885 126 l 1,43,-1
 2048 154 l 1,44,-1
 2048 371 l 2,45,46
 2048 533 2048 533 1979 596 c 128,-1,47
 1910 659 1910 659 1757 659 c 2,48,-1
 1641 659 l 1,49,-1
 1616 637 l 1,50,-1
 1616 154 l 1,51,-1
 1779 126 l 1,52,-1
 1779 0 l 1,53,-1
 1256 0 l 1,54,-1
 1256 126 l 1,55,-1
 1419 154 l 1,56,-1
 1419 632 l 1,57,-1
 1402 659 l 1,58,-1
 1271 659 l 2,59,60
 1118 659 1118 659 1049.5 596 c 128,-1,61
 981 533 981 533 981 371 c 2,62,-1
 981 154 l 1,63,-1
 1144 126 l 1,64,-1
 1144 0 l 1,65,-1
 621 0 l 1,16,-1
1516 814 m 1,66,-1
 1526 814 l 1,67,-1
 1543 843 l 1,68,-1
 1810 1301 l 1,69,-1
 1232 1301 l 1,70,-1
 1502 837 l 1,71,-1
 1516 814 l 1,66,-1
EndSplineSet
EndChar

StartChar: uni046E
Encoding: 1134 1134 630
Width: 1053
GlyphClass: 1
Flags: W
LayerCount: 2
Fore
SplineSet
356 -444 m 1,0,1
 282 -412 282 -412 221.5 -365 c 128,-1,2
 161 -318 161 -318 125 -257 c 128,-1,3
 89 -196 89 -196 89 -122 c 0,4,5
 89 7 89 7 178.5 71 c 128,-1,6
 268 135 268 135 429 135 c 2,7,-1
 470 135 l 2,8,9
 600 135 600 135 674.5 209.5 c 128,-1,10
 749 284 749 284 749 403 c 0,11,12
 749 536 749 536 667 603 c 128,-1,13
 585 670 585 670 427 670 c 2,14,-1
 284 670 l 1,15,-1
 284 825 l 1,16,-1
 427 825 l 2,17,18
 581 825 581 825 654 888.5 c 128,-1,19
 727 952 727 952 727 1066 c 0,20,21
 727 1170 727 1170 655 1240.5 c 128,-1,22
 583 1311 583 1311 447 1311 c 0,23,24
 370 1311 370 1311 310.5 1290.5 c 128,-1,25
 251 1270 251 1270 213 1235 c 1,26,-1
 200 1065 l 1,27,-1
 42 1065 l 1,28,-1
 43 1306 l 1,29,30
 110 1381 110 1381 213.5 1423.5 c 128,-1,31
 317 1466 317 1466 447 1466 c 0,32,33
 587 1466 587 1466 694.5 1415.5 c 128,-1,34
 802 1365 802 1365 863 1274.5 c 128,-1,35
 924 1184 924 1184 924 1062 c 0,36,37
 924 959 924 959 859 877 c 128,-1,38
 794 795 794 795 680 751 c 1,39,40
 809 710 809 710 878 622 c 128,-1,41
 947 534 947 534 947 407 c 0,42,43
 947 274 947 274 886.5 178 c 128,-1,44
 826 82 826 82 719 31 c 128,-1,45
 612 -20 612 -20 470 -20 c 2,46,-1
 421 -20 l 2,47,48
 345 -20 345 -20 310.5 -49.5 c 128,-1,49
 276 -79 276 -79 276 -132 c 0,50,51
 276 -178 276 -178 297.5 -212.5 c 128,-1,52
 319 -247 319 -247 355 -272 c 128,-1,53
 391 -297 391 -297 435 -317 c 1,54,-1
 356 -444 l 1,0,1
402 1591 m 1,55,-1
 154 1829 l 1,56,-1
 154 1854 l 1,57,-1
 315 1854 l 1,58,-1
 462 1706 l 1,59,-1
 607 1854 l 1,60,-1
 767 1854 l 1,61,-1
 767 1828 l 1,62,-1
 521 1591 l 1,63,-1
 402 1591 l 1,55,-1
EndSplineSet
EndChar

StartChar: uni0472
Encoding: 1138 1138 632
Width: 1403
GlyphClass: 1
Flags: W
LayerCount: 2
Fore
SplineSet
713 -21 m 0,0,1
 525 -21 525 -21 382 75 c 128,-1,2
 239 171 239 171 159 338 c 128,-1,3
 79 505 79 505 79 717 c 2,4,-1
 79 738 l 2,5,6
 79 950 79 950 159 1117 c 128,-1,7
 239 1284 239 1284 382 1380.5 c 128,-1,8
 525 1477 525 1477 713 1477 c 0,9,10
 907 1477 907 1477 1054.5 1380.5 c 128,-1,11
 1202 1284 1202 1284 1285 1117 c 128,-1,12
 1368 950 1368 950 1368 738 c 2,13,-1
 1368 717 l 2,14,15
 1368 505 1368 505 1285 338 c 128,-1,16
 1202 171 1202 171 1054.5 75 c 128,-1,17
 907 -21 907 -21 713 -21 c 0,0,1
713 140 m 0,18,19
 847 140 847 140 944.5 202 c 128,-1,20
 1042 264 1042 264 1098 376 c 128,-1,21
 1154 488 1154 488 1163 636 c 1,22,-1
 1161 641 l 1,23,-1
 286 641 l 1,24,-1
 284 636 l 1,25,26
 293 488 293 488 346.5 376.5 c 128,-1,27
 400 265 400 265 493.5 202.5 c 128,-1,28
 587 140 587 140 713 140 c 0,18,19
284 796 m 1,29,-1
 1162 796 l 1,30,-1
 1164 801 l 1,31,32
 1158 953 1158 953 1102 1068.5 c 128,-1,33
 1046 1184 1046 1184 947.5 1249.5 c 128,-1,34
 849 1315 849 1315 713 1315 c 0,35,36
 584 1315 584 1315 489.5 1249.5 c 128,-1,37
 395 1184 395 1184 341.5 1068.5 c 128,-1,38
 288 953 288 953 282 801 c 1,39,-1
 284 796 l 1,29,-1
EndSplineSet
EndChar

StartChar: uni0474
Encoding: 1140 1140 633
Width: 1387
GlyphClass: 2
Flags: W
AnchorPoint: "Anchor-0" 716 1376 basechar 0
LayerCount: 2
Fore
SplineSet
620 0 m 1,0,-1
 159 1314 l 1,1,-1
 57 1329 l 1,2,-1
 57 1456 l 1,3,-1
 487 1456 l 1,4,-1
 487 1329 l 1,5,-1
 371 1309 l 1,6,-1
 669 382 l 1,7,-1
 702 261 l 1,8,-1
 708 261 l 1,9,-1
 741 382 l 1,10,-1
 994 1187 l 2,11,12
 1043 1343 1043 1343 1108.5 1409.5 c 128,-1,13
 1174 1476 1174 1476 1282 1476 c 2,14,-1
 1332 1475 l 1,15,-1
 1331 1306 l 1,16,-1
 1319 1306 l 2,17,18
 1286 1306 1286 1306 1262 1292.5 c 128,-1,19
 1238 1279 1238 1279 1219 1248 c 128,-1,20
 1200 1217 1200 1217 1181 1163 c 2,21,-1
 789 0 l 1,22,-1
 620 0 l 1,0,-1
EndSplineSet
EndChar

StartChar: uni049C
Encoding: 1180 1180 639
Width: 1470
GlyphClass: 1
Flags: W
LayerCount: 2
Fore
SplineSet
70 0 m 1,0,-1
 70 126 l 1,1,-1
 233 154 l 1,2,-1
 233 1301 l 1,3,-1
 70 1329 l 1,4,-1
 70 1456 l 1,5,-1
 593 1456 l 1,6,-1
 593 1329 l 1,7,-1
 430 1301 l 1,8,-1
 430 800 l 1,9,-1
 749 800 l 1,10,-1
 987 1274 l 2,11,12
 1044 1391 1044 1391 1106 1429 c 128,-1,13
 1168 1467 1168 1467 1257 1467 c 0,14,15
 1305 1467 1305 1467 1342 1455.5 c 128,-1,16
 1379 1444 1379 1444 1412 1423 c 1,17,-1
 1383 1285 l 1,18,19
 1362 1289 1362 1289 1340.5 1292 c 128,-1,20
 1319 1295 1319 1295 1297 1295 c 0,21,22
 1248 1295 1248 1295 1216.5 1270.5 c 128,-1,23
 1185 1246 1185 1246 1152 1185 c 2,24,-1
 918 750 l 1,25,-1
 1264 146 l 1,26,-1
 1402 126 l 1,27,-1
 1402 0 l 1,28,-1
 1103 0 l 1,29,-1
 773 634 l 1,30,-1
 430 634 l 1,31,-1
 430 154 l 1,32,-1
 593 126 l 1,33,-1
 593 0 l 1,34,-1
 70 0 l 1,0,-1
529 412 m 1,35,-1
 529 1064 l 1,36,-1
 686 1064 l 1,37,-1
 686 412 l 1,38,-1
 529 412 l 1,35,-1
EndSplineSet
EndChar

StartChar: uni04A0
Encoding: 1184 1184 641
Width: 1787
GlyphClass: 1
Flags: W
LayerCount: 2
Fore
SplineSet
433 0 m 1,0,-1
 433 126 l 1,1,-1
 596 154 l 1,2,-1
 596 1301 l 1,3,-1
 203 1301 l 1,4,-1
 188 1135 l 1,5,-1
 20 1135 l 1,6,-1
 20 1456 l 1,7,-1
 956 1456 l 1,8,-1
 956 1329 l 1,9,-1
 793 1301 l 1,10,-1
 793 800 l 1,11,-1
 952 800 l 1,12,-1
 1281 1274 l 2,13,14
 1362 1386 1362 1386 1422 1426.5 c 128,-1,15
 1482 1467 1482 1467 1561 1467 c 0,16,17
 1608 1467 1608 1467 1640.5 1455.5 c 128,-1,18
 1673 1444 1673 1444 1709 1422 c 1,19,-1
 1680 1283 l 1,20,21
 1653 1288 1653 1288 1632.5 1291.5 c 128,-1,22
 1612 1295 1612 1295 1592 1295 c 0,23,24
 1545 1295 1545 1295 1512.5 1270 c 128,-1,25
 1480 1245 1480 1245 1437 1185 c 2,26,-1
 1124 749 l 1,27,-1
 1608 151 l 1,28,-1
 1745 126 l 1,29,-1
 1745 0 l 1,30,-1
 1267 0 l 1,31,-1
 1267 126 l 1,32,-1
 1378 140 l 1,33,-1
 1371 149 l 1,34,-1
 981 634 l 1,35,-1
 793 634 l 1,36,-1
 793 154 l 1,37,-1
 956 126 l 1,38,-1
 956 0 l 1,39,-1
 433 0 l 1,0,-1
EndSplineSet
EndChar

StartChar: uni04A4
Encoding: 1188 1188 643
Width: 2045
GlyphClass: 1
Flags: W
LayerCount: 2
Fore
SplineSet
48 0 m 1,0,-1
 48 126 l 1,1,-1
 211 154 l 1,2,-1
 211 1301 l 1,3,-1
 48 1329 l 1,4,-1
 48 1456 l 1,5,-1
 211 1456 l 1,6,-1
 408 1456 l 1,7,-1
 571 1456 l 1,8,-1
 571 1329 l 1,9,-1
 408 1301 l 1,10,-1
 408 798 l 1,11,-1
 1114 798 l 1,12,-1
 1114 1301 l 1,13,-1
 951 1329 l 1,14,-1
 951 1456 l 1,15,-1
 1978 1456 l 1,16,-1
 1978 1135 l 1,17,-1
 1810 1135 l 1,18,-1
 1795 1301 l 1,19,-1
 1311 1301 l 1,20,-1
 1311 154 l 1,21,-1
 1474 126 l 1,22,-1
 1474 0 l 1,23,-1
 951 0 l 1,24,-1
 951 126 l 1,25,-1
 1114 154 l 1,26,-1
 1114 643 l 1,27,-1
 408 643 l 1,28,-1
 408 154 l 1,29,-1
 571 126 l 1,30,-1
 571 0 l 1,31,-1
 48 0 l 1,0,-1
EndSplineSet
EndChar

StartChar: uni04A6
Encoding: 1190 1190 644
Width: 2127
GlyphClass: 1
Flags: W
LayerCount: 2
Fore
SplineSet
1528 -284 m 1,0,-1
 1522 -282 l 1,1,-1
 1520 -140 l 1,2,3
 1621 -140 1621 -140 1682.5 -94.5 c 128,-1,4
 1744 -49 1744 -49 1772.5 39.5 c 128,-1,5
 1801 128 1801 128 1801 255 c 0,6,7
 1799 457 1799 457 1699 562.5 c 128,-1,8
 1599 668 1599 668 1398 668 c 2,9,-1
 1342 668 l 1,10,-1
 1342 154 l 1,11,-1
 1505 126 l 1,12,-1
 1505 0 l 1,13,-1
 982 0 l 1,14,-1
 982 126 l 1,15,-1
 1145 154 l 1,16,-1
 1145 1301 l 1,17,-1
 437 1301 l 1,18,-1
 437 154 l 1,19,-1
 600 126 l 1,20,-1
 600 0 l 1,21,-1
 77 0 l 1,22,-1
 77 126 l 1,23,-1
 240 154 l 1,24,-1
 240 1301 l 1,25,-1
 77 1329 l 1,26,-1
 77 1456 l 1,27,-1
 1505 1456 l 1,28,-1
 1505 1329 l 1,29,-1
 1342 1301 l 1,30,-1
 1342 833 l 1,31,-1
 1398 833 l 2,32,33
 1588 833 1588 833 1722 763.5 c 128,-1,34
 1856 694 1856 694 1927 565 c 128,-1,35
 1998 436 1998 436 1998 255 c 0,36,37
 1998 123 1998 123 1967.5 22 c 128,-1,38
 1937 -79 1937 -79 1877 -148 c 128,-1,39
 1817 -217 1817 -217 1729.5 -251.5 c 128,-1,40
 1642 -286 1642 -286 1528 -284 c 1,0,-1
EndSplineSet
EndChar

StartChar: uni04A8
Encoding: 1192 1192 645
Width: 1541
GlyphClass: 1
Flags: W
LayerCount: 2
Fore
SplineSet
1428 -30 m 1,0,1
 1206 -30 1206 -30 1032 44 c 1,2,3
 891 -21 891 -21 720 -21 c 0,4,5
 538 -21 538 -21 399.5 70.5 c 128,-1,6
 261 162 261 162 183.5 320.5 c 128,-1,7
 106 479 106 479 106 679 c 2,8,-1
 106 840 l 2,9,10
 106 1022 106 1022 163 1165.5 c 128,-1,11
 220 1309 220 1309 321.5 1391 c 128,-1,12
 423 1473 423 1473 554 1469 c 1,13,-1
 560 1467 l 1,14,-1
 561 1315 l 1,15,16
 482 1315 482 1315 424 1254 c 128,-1,17
 366 1193 366 1193 334.5 1086.5 c 128,-1,18
 303 980 303 980 303 842 c 2,19,-1
 303 679 l 2,20,21
 303 522 303 522 354.5 400 c 128,-1,22
 406 278 406 278 500 209 c 128,-1,23
 594 140 594 140 720 140 c 0,24,25
 753 140 753 140 784.5 143.5 c 128,-1,26
 816 147 816 147 847 154 c 1,27,28
 725 251 725 251 659.5 391 c 128,-1,29
 594 531 594 531 594 700 c 2,30,-1
 594 922 l 2,31,32
 594 1080 594 1080 646 1205 c 128,-1,33
 698 1330 698 1330 790.5 1402 c 128,-1,34
 883 1474 883 1474 1005 1474 c 256,35,36
 1127 1474 1127 1474 1219.5 1403.5 c 128,-1,37
 1312 1333 1312 1333 1364 1209 c 128,-1,38
 1416 1085 1416 1085 1416 922 c 2,39,-1
 1416 679 l 2,40,41
 1416 521 1416 521 1359.5 386.5 c 128,-1,42
 1303 252 1303 252 1200 157 c 1,43,44
 1251 143 1251 143 1308 136.5 c 128,-1,45
 1365 130 1365 130 1428 130 c 1,46,-1
 1428 -30 l 1,0,1
1021 238 m 1,47,48
 1114 301 1114 301 1166.5 419.5 c 128,-1,49
 1219 538 1219 538 1219 683 c 2,50,-1
 1219 925 l 2,51,52
 1219 1041 1219 1041 1193 1128.5 c 128,-1,53
 1167 1216 1167 1216 1119 1265 c 128,-1,54
 1071 1314 1071 1314 1005 1314 c 0,55,56
 941 1314 941 1314 892.5 1263.5 c 128,-1,57
 844 1213 844 1213 817.5 1125 c 128,-1,58
 791 1037 791 1037 791 925 c 2,59,-1
 791 698 l 2,60,61
 791 545 791 545 851 426 c 128,-1,62
 911 307 911 307 1021 238 c 1,47,48
EndSplineSet
EndChar

StartChar: uni04B4
Encoding: 1204 1204 651
Width: 1817
GlyphClass: 1
Flags: W
LayerCount: 2
Fore
SplineSet
1589 -351 m 1,0,-1
 1589 0 l 1,1,-1
 329 0 l 1,2,-1
 329 126 l 1,3,-1
 492 154 l 1,4,-1
 492 1301 l 1,5,-1
 260 1301 l 1,6,-1
 246 1134 l 1,7,-1
 77 1134 l 1,8,-1
 77 1456 l 1,9,-1
 1031 1456 l 1,10,-1
 1031 1134 l 1,11,-1
 862 1134 l 1,12,-1
 847 1301 l 1,13,-1
 689 1301 l 1,14,-1
 689 154 l 1,15,-1
 1397 154 l 1,16,-1
 1397 1301 l 1,17,-1
 1234 1329 l 1,18,-1
 1234 1456 l 1,19,-1
 1757 1456 l 1,20,-1
 1757 1329 l 1,21,-1
 1594 1301 l 1,22,-1
 1594 154 l 1,23,-1
 1784 154 l 1,24,-1
 1784 -351 l 1,25,-1
 1589 -351 l 1,0,-1
EndSplineSet
EndChar

StartChar: uni04B8
Encoding: 1208 1208 653
Width: 1527
GlyphClass: 1
Flags: W
LayerCount: 2
Fore
SplineSet
942 0 m 1,0,-1
 942 126 l 1,1,-1
 1105 154 l 1,2,-1
 1105 603 l 1,3,4
 1010 574 1010 574 921 561 c 128,-1,5
 832 548 832 548 710 548 c 0,6,7
 470 548 470 548 346 653 c 128,-1,8
 222 758 222 758 222 996 c 2,9,-1
 222 1301 l 1,10,-1
 59 1329 l 1,11,-1
 59 1456 l 1,12,-1
 582 1456 l 1,13,-1
 582 1329 l 1,14,-1
 419 1301 l 1,15,-1
 419 996 l 2,16,17
 419 831 419 831 488 767.5 c 128,-1,18
 557 704 557 704 710 704 c 0,19,20
 814 704 814 704 910 718 c 128,-1,21
 1006 732 1006 732 1105 759 c 1,22,-1
 1105 1301 l 1,23,-1
 942 1329 l 1,24,-1
 942 1456 l 1,25,-1
 1466 1456 l 1,26,-1
 1466 1329 l 1,27,-1
 1303 1301 l 1,28,-1
 1303 154 l 1,29,-1
 1466 126 l 1,30,-1
 1466 0 l 1,31,-1
 942 0 l 1,0,-1
663 316 m 1,32,-1
 663 1017 l 1,33,-1
 821 1017 l 1,34,-1
 821 316 l 1,35,-1
 663 316 l 1,32,-1
EndSplineSet
EndChar

StartChar: uni04BA
Encoding: 1210 1210 654
Width: 1537
GlyphClass: 2
Flags: W
LayerCount: 2
Fore
SplineSet
58 0 m 1,0,-1
 58 127 l 1,1,-1
 221 155 l 1,2,-1
 221 1302 l 1,3,-1
 58 1330 l 1,4,-1
 58 1456 l 1,5,-1
 221 1456 l 1,6,-1
 419 1456 l 1,7,-1
 582 1456 l 1,8,-1
 582 1330 l 1,9,-1
 419 1302 l 1,10,-1
 419 853 l 1,11,12
 515 880 515 880 603.5 894 c 128,-1,13
 692 908 692 908 814 908 c 0,14,15
 1053 908 1053 908 1177.5 802.5 c 128,-1,16
 1302 697 1302 697 1302 460 c 2,17,-1
 1302 155 l 1,18,-1
 1465 127 l 1,19,-1
 1465 0 l 1,20,-1
 942 0 l 1,21,-1
 942 127 l 1,22,-1
 1105 155 l 1,23,-1
 1105 460 l 2,24,25
 1105 624 1105 624 1035.5 688 c 128,-1,26
 966 752 966 752 814 752 c 0,27,28
 709 752 709 752 613 737.5 c 128,-1,29
 517 723 517 723 419 696 c 1,30,-1
 419 155 l 1,31,-1
 582 127 l 1,32,-1
 582 0 l 1,33,-1
 58 0 l 1,0,-1
EndSplineSet
EndChar

StartChar: uni04BC
Encoding: 1212 1212 655
Width: 1539
GlyphClass: 2
Flags: W
LayerCount: 2
Fore
SplineSet
999 -23 m 0,0,1
 805 -23 805 -23 666.5 55.5 c 128,-1,2
 528 134 528 134 454.5 275 c 128,-1,3
 381 416 381 416 381 604 c 2,4,-1
 381 706 l 1,5,6
 223 726 223 726 141 825.5 c 128,-1,7
 59 925 59 925 66 1081 c 1,8,-1
 217 1081 l 1,9,10
 217 988 217 988 257 927 c 128,-1,11
 297 866 297 866 381 846 c 1,12,-1
 381 850 l 2,13,14
 381 1031 381 1031 453 1172 c 128,-1,15
 525 1313 525 1313 648 1394 c 128,-1,16
 771 1475 771 1475 923 1475 c 0,17,18
 1099 1475 1099 1475 1219.5 1395 c 128,-1,19
 1340 1315 1340 1315 1402 1166 c 128,-1,20
 1464 1017 1464 1017 1464 809 c 2,21,-1
 1464 700 l 1,22,-1
 578 700 l 1,23,-1
 578 604 l 2,24,25
 578 464 578 464 624 357 c 128,-1,26
 670 250 670 250 763.5 190.5 c 128,-1,27
 857 131 857 131 999 131 c 0,28,29
 1107 131 1107 131 1184 154 c 128,-1,30
 1261 177 1261 177 1334 215 c 1,31,-1
 1383 76 l 1,32,33
 1333 40 1333 40 1237 8.5 c 128,-1,34
 1141 -23 1141 -23 999 -23 c 0,0,1
578 835 m 1,35,-1
 1267 835 l 1,36,-1
 1267 867 l 2,37,38
 1267 1005 1267 1005 1231.5 1106.5 c 128,-1,39
 1196 1208 1196 1208 1120.5 1264 c 128,-1,40
 1045 1320 1045 1320 923 1320 c 0,41,42
 816 1320 816 1320 738.5 1258.5 c 128,-1,43
 661 1197 661 1197 619.5 1090.5 c 128,-1,44
 578 984 578 984 578 850 c 2,45,-1
 578 835 l 1,35,-1
EndSplineSet
EndChar

StartChar: uni04C3
Encoding: 1219 1219 659
Width: 1426
GlyphClass: 1
Flags: W
LayerCount: 2
Fore
SplineSet
824 -287 m 1,0,-1
 818 -285 l 1,1,-1
 816 -143 l 1,2,3
 917 -143 917 -143 979 -97.5 c 128,-1,4
 1041 -52 1041 -52 1069.5 36 c 128,-1,5
 1098 124 1098 124 1098 252 c 0,6,7
 1098 454 1098 454 997 559 c 128,-1,8
 896 664 896 664 694 664 c 2,9,-1
 430 664 l 1,10,-1
 430 154 l 1,11,-1
 593 126 l 1,12,-1
 593 0 l 1,13,-1
 70 0 l 1,14,-1
 70 126 l 1,15,-1
 233 154 l 1,16,-1
 233 1301 l 1,17,-1
 70 1329 l 1,18,-1
 70 1456 l 1,19,-1
 593 1456 l 1,20,-1
 593 1329 l 1,21,-1
 430 1301 l 1,22,-1
 430 830 l 1,23,-1
 557 830 l 1,24,-1
 1078 1456 l 1,25,-1
 1331 1456 l 1,26,-1
 1331 1329 l 1,27,-1
 1177 1302 l 1,28,-1
 783 832 l 1,29,-1
 778 826 l 1,30,31
 780 826 780 826 787 825.5 c 128,-1,32
 794 825 794 825 801 824 c 0,33,34
 955 808 955 808 1065.5 735.5 c 128,-1,35
 1176 663 1176 663 1235.5 540.5 c 128,-1,36
 1295 418 1295 418 1295 252 c 0,37,38
 1295 120 1295 120 1264 19 c 128,-1,39
 1233 -82 1233 -82 1173 -151 c 128,-1,40
 1113 -220 1113 -220 1025.5 -254.5 c 128,-1,41
 938 -289 938 -289 824 -287 c 1,0,-1
EndSplineSet
EndChar

StartChar: uni04C7
Encoding: 1223 1223 661
Width: 1563
GlyphClass: 1
Flags: W
LayerCount: 2
Fore
SplineSet
1014 -437 m 0,0,1
 983 -437 983 -437 956.5 -432.5 c 128,-1,2
 930 -428 930 -428 902 -419 c 1,3,-1
 916 -269 l 1,4,5
 929 -274 929 -274 963 -278 c 128,-1,6
 997 -282 997 -282 1014 -282 c 0,7,8
 1074 -282 1074 -282 1108.5 -230.5 c 128,-1,9
 1143 -179 1143 -179 1143 -89 c 2,10,-1
 1143 643 l 1,11,-1
 437 643 l 1,12,-1
 437 154 l 1,13,-1
 600 126 l 1,14,-1
 600 0 l 1,15,-1
 77 0 l 1,16,-1
 77 126 l 1,17,-1
 240 154 l 1,18,-1
 240 1301 l 1,19,-1
 77 1329 l 1,20,-1
 77 1456 l 1,21,-1
 437 1456 l 1,22,-1
 600 1456 l 1,23,-1
 600 1329 l 1,24,-1
 437 1301 l 1,25,-1
 437 798 l 1,26,-1
 1143 798 l 1,27,-1
 1143 1301 l 1,28,-1
 980 1329 l 1,29,-1
 980 1456 l 1,30,-1
 1503 1456 l 1,31,-1
 1503 1329 l 1,32,-1
 1340 1301 l 1,33,-1
 1340 -89 l 2,34,35
 1340 -256 1340 -256 1254 -346.5 c 128,-1,36
 1168 -437 1168 -437 1014 -437 c 0,0,1
EndSplineSet
EndChar

StartChar: uni04E0
Encoding: 1248 1248 673
Width: 1124
GlyphClass: 1
Flags: W
LayerCount: 2
Fore
SplineSet
547 -21 m 0,0,1
 419 -21 419 -21 312 27 c 128,-1,2
 205 75 205 75 142.5 168.5 c 128,-1,3
 80 262 80 262 83 398 c 1,4,-1
 85 404 l 1,5,-1
 274 404 l 1,6,7
 274 328 274 328 308.5 266.5 c 128,-1,8
 343 205 343 205 405 169 c 128,-1,9
 467 133 467 133 547 133 c 0,10,11
 685 133 685 133 765 207.5 c 128,-1,12
 845 282 845 282 845 402 c 0,13,14
 845 555 845 555 764 626.5 c 128,-1,15
 683 698 683 698 524 698 c 2,16,-1
 377 698 l 1,17,-1
 377 852 l 1,18,-1
 754 1296 l 1,19,-1
 752 1301 l 1,20,-1
 304 1301 l 1,21,-1
 290 1134 l 1,22,-1
 121 1134 l 1,23,-1
 121 1456 l 1,24,-1
 990 1456 l 1,25,-1
 991 1336 l 1,26,-1
 581 852 l 1,27,-1
 581 845 l 1,28,29
 583 845 583 845 587 845 c 128,-1,30
 591 845 591 845 601 844 c 0,31,32
 809 829 809 829 925.5 716 c 128,-1,33
 1042 603 1042 603 1042 406 c 0,34,35
 1042 273 1042 273 979.5 177 c 128,-1,36
 917 81 917 81 805.5 30 c 128,-1,37
 694 -21 694 -21 547 -21 c 0,0,1
EndSplineSet
EndChar

StartChar: uni04FE
Encoding: 1278 1278 687
Width: 1529
GlyphClass: 2
Flags: W
AnchorPoint: "Anchor-4" 769 744 basechar 0
AnchorPoint: "Anchor-2" 765 0 basechar 0
AnchorPoint: "Anchor-0" 765 1376 basechar 0
LayerCount: 2
Fore
SplineSet
80 0 m 1,0,-1
 80 126 l 1,1,-1
 206 148 l 1,2,-1
 601 666 l 1,3,-1
 422 666 l 1,4,-1
 422 821 l 1,5,-1
 597 821 l 1,6,-1
 239 1307 l 1,7,-1
 112 1329 l 1,8,-1
 112 1456 l 1,9,-1
 584 1456 l 1,10,-1
 584 1329 l 1,11,-1
 447 1316 l 1,12,-1
 769 867 l 1,13,-1
 1075 1316 l 1,14,-1
 935 1329 l 1,15,-1
 935 1456 l 1,16,-1
 1410 1456 l 1,17,-1
 1410 1329 l 1,18,-1
 1277 1307 l 1,19,-1
 939 821 l 1,20,-1
 1115 821 l 1,21,-1
 1115 666 l 1,22,-1
 936 666 l 1,23,-1
 1320 148 l 1,24,-1
 1449 126 l 1,25,-1
 1449 0 l 1,26,-1
 971 0 l 1,27,-1
 971 126 l 1,28,-1
 1112 139 l 1,29,-1
 767 612 l 1,30,-1
 423 139 l 1,31,-1
 556 126 l 1,32,-1
 556 0 l 1,33,-1
 80 0 l 1,0,-1
EndSplineSet
EndChar

StartChar: uni0500
Encoding: 1280 1280 688
Width: 1350
GlyphClass: 1
Flags: W
LayerCount: 2
Fore
SplineSet
569 0 m 2,0,1
 414 0 414 0 304 56 c 128,-1,2
 194 112 194 112 136.5 212 c 128,-1,3
 79 312 79 312 79 444 c 256,4,5
 79 576 79 576 136.5 674 c 128,-1,6
 194 772 194 772 303.5 826 c 128,-1,7
 413 880 413 880 569 880 c 2,8,-1
 928 880 l 1,9,-1
 928 1301 l 1,10,-1
 765 1329 l 1,11,-1
 765 1456 l 1,12,-1
 1288 1456 l 1,13,-1
 1288 1329 l 1,14,-1
 1125 1301 l 1,15,-1
 1125 154 l 1,16,-1
 1288 126 l 1,17,-1
 1288 0 l 1,18,-1
 569 0 l 2,0,1
569 154 m 2,19,-1
 928 154 l 1,20,-1
 928 725 l 1,21,-1
 569 725 l 2,22,23
 471 725 471 725 405.5 688.5 c 128,-1,24
 340 652 340 652 308 589 c 128,-1,25
 276 526 276 526 276 446 c 0,26,27
 276 323 276 323 348.5 238.5 c 128,-1,28
 421 154 421 154 569 154 c 2,19,-1
EndSplineSet
EndChar

StartChar: uni0502
Encoding: 1282 1282 689
Width: 1703
GlyphClass: 1
Flags: W
LayerCount: 2
Fore
SplineSet
569 0 m 2,0,1
 414 0 414 0 304 56 c 128,-1,2
 194 112 194 112 136.5 212 c 128,-1,3
 79 312 79 312 79 444 c 256,4,5
 79 576 79 576 136.5 674 c 128,-1,6
 194 772 194 772 303.5 826 c 128,-1,7
 413 880 413 880 569 880 c 2,8,-1
 928 880 l 1,9,-1
 928 1301 l 1,10,-1
 765 1329 l 1,11,-1
 765 1456 l 1,12,-1
 928 1456 l 1,13,-1
 1288 1456 l 1,14,-1
 1288 1329 l 1,15,-1
 1125 1301 l 1,16,-1
 1125 153 l 1,17,-1
 1209 154 l 2,18,19
 1315 155 1315 155 1372.5 225.5 c 128,-1,20
 1430 296 1430 296 1434 422 c 0,21,22
 1435 499 1435 499 1419.5 582.5 c 128,-1,23
 1404 666 1404 666 1374 745 c 1,24,-1
 1564 745 l 1,25,26
 1597 645 1597 645 1615 569.5 c 128,-1,27
 1633 494 1633 494 1631 422 c 0,28,29
 1629 286 1629 286 1572.5 192 c 128,-1,30
 1516 98 1516 98 1421.5 49 c 128,-1,31
 1327 0 1327 0 1209 0 c 2,32,-1
 569 0 l 2,0,1
569 154 m 2,33,-1
 928 154 l 1,34,-1
 928 725 l 1,35,-1
 569 725 l 2,36,37
 471 725 471 725 405.5 688.5 c 128,-1,38
 340 652 340 652 308 589 c 128,-1,39
 276 526 276 526 276 446 c 0,40,41
 276 323 276 323 348.5 238.5 c 128,-1,42
 421 154 421 154 569 154 c 2,33,-1
EndSplineSet
EndChar

